<svg xmlns="http://www.w3.org/2000/svg" xmlns:xlink="http://www.w3.org/1999/xlink" width="216.936" height="206.158" viewBox="0 0 216.936 206.158">
  <defs>
    <clipPath id="clip-path">
      <path id="Tracé_6614" data-name="Tracé 6614" d="M1185.959,351.223s-39.09,9.709-108.468,9.709-108.468-9.709-108.468-9.709V154.775h216.936Z" transform="translate(-969.023 -133.678)" fill="none"/>
    </clipPath>
  </defs>
  <g id="illu-chef" transform="translate(-919.023 -175.872)">
    <g id="Groupe_1164" data-name="Groupe 1164" transform="translate(919.023 154.775)" clip-path="url(#clip-path)">
      <g id="Groupe_1163" data-name="Groupe 1163" transform="translate(41.241 21.097)">
        <g id="Groupe_1093" data-name="Groupe 1093" transform="translate(43.915 49.978)">
          <path id="Tracé_6549" data-name="Tracé 6549" d="M1327.741,436.7a6.61,6.61,0,0,0-1.867-4.143c-1.013-1.024-1.1-1-.982-2.492a10.773,10.773,0,0,0-.186-3,4.656,4.656,0,0,0-2.182-2.978.605.605,0,0,0-.289-.641c-1.323-.838-2.906-.838-4.457-1.158-2.316-.476-4.663-.7-6.99-1.127a27.461,27.461,0,0,0-7.29-.714,27.066,27.066,0,0,0-6.007,1.572c-1.841.62-4.209,1.4-5.3,3.185a2.723,2.723,0,0,0-.3.74c-1.455.616-2.6,3.24-2.766,4.428a12.86,12.86,0,0,0-.044,2.624c-1.731,2.455-2.366,6.277-1.241,8.7a6.339,6.339,0,0,0,2.718,2.854,5.357,5.357,0,0,0,3.26,4.81c2.551,1.247,5.666,1.971,8.208.434a.538.538,0,0,0-.269-.994,10.77,10.77,0,0,0-2.17.436,7.027,7.027,0,0,1-2.18-.178,1.186,1.186,0,0,0,.13-.751,1.565,1.565,0,0,0,.531.054,1.278,1.278,0,0,0,.385-.1.736.736,0,0,0,.711-.16,1.111,1.111,0,0,0,.365-.83l.387.159c.487.2.728-.543.34-.807-.175-.119-.57-.363-.99-.658-.011-.029-.024-.058-.036-.087l.944.1a4.227,4.227,0,0,0,1.53,0,3.194,3.194,0,0,1,2.275.134,6.807,6.807,0,0,0,4.632-.434c2.048-.735,3.555.093,5.6.367a5,5,0,0,0,.081,3.339c.584,1.32,2.638,1.631,3.929,1.448,1.641-.233,3.959-1.195,4.736-2.719a6.46,6.46,0,0,0,.646-2.478,22.852,22.852,0,0,0,2.329-1.508,4.711,4.711,0,0,0,2.183-3.644A11.505,11.505,0,0,0,1327.741,436.7Z" transform="translate(-1287.272 -420.4)" fill="#873500"/>
        </g>
        <g id="Groupe_1094" data-name="Groupe 1094" transform="translate(46.846)">
          <path id="Tracé_6550" data-name="Tracé 6550" d="M1328.427,236.378c-1.169-.431-8.32-2.757-13.511-2.757a41.234,41.234,0,0,0-15.275,3.361c-.986.6-1.415,29.211-1.415,29.211h.448l32.226-.776S1329.6,236.809,1328.427,236.378Z" transform="translate(-1298.227 -233.621)" fill="#ffeacc"/>
        </g>
        <g id="Groupe_1098" data-name="Groupe 1098" transform="translate(29.231 376.553)">
          <g id="Groupe_1095" data-name="Groupe 1095" transform="translate(6.545)">
            <path id="Tracé_6551" data-name="Tracé 6551" d="M1270.255,1640.886l-1.9,22.317-6.935.423-3.906-1.337-.661-19.143Z" transform="translate(-1256.857 -1640.886)" fill="#ff883d"/>
          </g>
          <g id="Groupe_1096" data-name="Groupe 1096" transform="translate(0 19.131)">
            <path id="Tracé_6552" data-name="Tracé 6552" d="M1250.36,1722.487a6.878,6.878,0,0,1-.693,3.164c-1.117,1.21-14.621,1.116-16.1.517-1.437-.579-2.212-4.984,1.7-7.93a.031.031,0,0,1,.021-.011c.1-.083.228-.165.341-.248a24.38,24.38,0,0,0,3.981-3.319s3.423-2.192,3.681-2.275,7.155,3.185,7.155,3.185S1250.6,1719.5,1250.36,1722.487Z" transform="translate(-1232.396 -1712.383)" fill="#ff883d"/>
          </g>
          <g id="Groupe_1097" data-name="Groupe 1097" transform="translate(0 24.767)">
            <path id="Tracé_6553" data-name="Tracé 6553" d="M1250.36,1737.913a6.879,6.879,0,0,1-.693,3.164c-1.117,1.209-14.621,1.116-16.1.517-1.437-.579-2.212-4.984,1.7-7.931a.032.032,0,0,1,.021-.01,9.646,9.646,0,0,1,5.677.527c2.678,1.251,3.66,3.35,4.394,3.443C1245.862,1737.686,1248.675,1737.83,1250.36,1737.913Z" transform="translate(-1232.396 -1733.445)" fill="#42200a"/>
          </g>
        </g>
        <g id="Groupe_1102" data-name="Groupe 1102" transform="translate(84.262 377.4)">
          <g id="Groupe_1099" data-name="Groupe 1099">
            <path id="Tracé_6554" data-name="Tracé 6554" d="M1438.057,1644.052l2.3,20.073,6.355,1.752,4.7-.677.409-21.147Z" transform="translate(-1438.057 -1644.052)" fill="#ff883d"/>
          </g>
          <g id="Groupe_1100" data-name="Groupe 1100" transform="translate(1.988 17.851)">
            <path id="Tracé_6555" data-name="Tracé 6555" d="M1471.277,1724.726c-2.337.983-22.024,1.551-24.351,0-1.148-.765-1.438-3.629-1.438-6.338a52.02,52.02,0,0,1,.31-5.4s5.1-2.223,5.615-2.223,5.5.778,5.5.778.15,2.624,6.127,4.8c.414.155.848.3,1.3.455C1476.229,1720.766,1472.373,1724.261,1471.277,1724.726Z" transform="translate(-1445.488 -1710.767)" fill="#ff883d"/>
          </g>
          <g id="Groupe_1101" data-name="Groupe 1101" transform="translate(1.988 23.425)">
            <path id="Tracé_6556" data-name="Tracé 6556" d="M1471.277,1739.982c-2.337.982-22.024,1.551-24.351,0-1.148-.765-1.438-3.629-1.438-6.338,3.154.413,11.137,1.427,12.791,1.427,1.623,0,3.505-2.44,4.756-3.474.414.155.848.3,1.3.455C1476.229,1736.022,1472.373,1739.516,1471.277,1739.982Z" transform="translate(-1445.488 -1731.596)" fill="#42200a"/>
          </g>
        </g>
        <g id="Groupe_1103" data-name="Groupe 1103" transform="translate(45.454 66.565)">
          <path id="Tracé_6557" data-name="Tracé 6557" d="M1329.854,506.079,1310.724,518.1l-17.7-11.757s7.5-6.2,8.148-8.789a14.087,14.087,0,0,0,.237-2.606c.052-2.12-.041-4.953-.134-7.259-.114-2.316-.238-4.095-.238-4.095l20.292-1.212s.565,10.211.948,14.089S1329.854,506.079,1329.854,506.079Z" transform="translate(-1293.022 -482.388)" fill="#ff883d"/>
        </g>
        <g id="Groupe_1104" data-name="Groupe 1104" transform="translate(48.261 33.642)">
          <path id="Tracé_6558" data-name="Tracé 6558" d="M1303.522,374.979s-.3,14.426,2.678,18.433,9.656,7.761,13.275,7.89c3.368.12,9.956-4.607,12.252-7.955,3.1-4.524,2.29-18.318,2.29-18.318s-15.732-16.062-15.991-15.675S1303.522,374.979,1303.522,374.979Z" transform="translate(-1303.514 -359.347)" fill="#ff883d"/>
        </g>
        <g id="Groupe_1105" data-name="Groupe 1105" transform="translate(53.668 71.147)">
          <path id="Tracé_6559" data-name="Tracé 6559" d="M1334.244,509.253c-3.143.486-8.655-1.21-10.351-1.758.052-2.12-.171-7.983-.171-7.983s7.88,5.226,10.554,5.284c2.973.065,3.97-1.565,4.867-1.045C1340.371,504.462,1338,508.674,1334.244,509.253Z" transform="translate(-1323.722 -499.512)" fill="#ed7124"/>
        </g>
        <g id="Groupe_1106" data-name="Groupe 1106" transform="translate(72.465 52.304)">
          <path id="Tracé_6560" data-name="Tracé 6560" d="M1395.455,429.9a1.07,1.07,0,0,0-.546-.763c-.66-.254-.9.584-.936,1.022-.031.391.072,1.119.446,1.325a.75.75,0,0,0,1.058-.579A2.147,2.147,0,0,0,1395.455,429.9Z" transform="translate(-1393.968 -429.093)" fill="#42200a"/>
        </g>
        <g id="Groupe_1107" data-name="Groupe 1107" transform="translate(53.449 52.681)">
          <path id="Tracé_6561" data-name="Tracé 6561" d="M1324.391,431.311a1.072,1.072,0,0,0-.546-.763c-.66-.253-.9.584-.936,1.022-.031.39.072,1.119.445,1.324a.749.749,0,0,0,1.058-.579A2.147,2.147,0,0,0,1324.391,431.311Z" transform="translate(-1322.904 -430.501)" fill="#42200a"/>
        </g>
        <g id="Groupe_1108" data-name="Groupe 1108" transform="translate(76.991 52.421)">
          <path id="Tracé_6562" data-name="Tracé 6562" d="M1411.918,429.672s2.456-1.163,2.973,3.188-4.007,6.376-4.007,6.376V432.6C1410.884,432.343,1411.918,429.672,1411.918,429.672Z" transform="translate(-1410.884 -429.53)" fill="#ff883d"/>
        </g>
        <g id="Groupe_1109" data-name="Groupe 1109" transform="translate(45.971 52.421)">
          <path id="Tracé_6563" data-name="Tracé 6563" d="M1297.968,429.672s-2.456-1.163-2.973,3.188,4.007,6.376,4.007,6.376V432.6C1299,432.343,1297.968,429.672,1297.968,429.672Z" transform="translate(-1294.954 -429.53)" fill="#ff883d"/>
        </g>
        <g id="Groupe_1110" data-name="Groupe 1110" transform="translate(25.917 86.933)">
          <path id="Tracé_6564" data-name="Tracé 6564" d="M1243.547,558.51a30.4,30.4,0,0,0,14.783,4.232,25.291,25.291,0,0,0,14.476-4.184s20.61,8.655,22.85,10.379,3.086,32.274,2.456,49.341c-.412,11.156-3.764,32.183-3.764,34.424s-67.383,2.24-67.383,2.24-6.032-26.367-6.721-32.916.29-48.986.979-52.605S1243.547,558.51,1243.547,558.51Z" transform="translate(-1220.009 -558.51)" fill="#ffeacc"/>
        </g>
        <g id="Groupe_1111" data-name="Groupe 1111" transform="translate(78.714 86.981)">
          <path id="Tracé_6565" data-name="Tracé 6565" d="M1417.325,558.69s17.578,3.8,25.392,10.1c5.94,4.789,24.623,21.1,31.193,28.179,3.356,3.618,11.18,10.952,13.313,14.073,8.173,11.96-1.853,32.2-14.95,27.014-3.381-1.338-34.424-25.2-34.424-25.2l-10.907-45.8Z" transform="translate(-1417.325 -558.69)" fill="#ffeacc"/>
        </g>
        <g id="Groupe_1112" data-name="Groupe 1112" transform="translate(33.503 176.801)">
          <path id="Tracé_6566" data-name="Tracé 6566" d="M1248.36,895.194l67.227-.827s6.957,38.222,7.281,52.491-3.012,150.632-3.475,153.034-6.458,4.181-13.37,4.719c-4.9.382-9.8-1.021-11.426-2.318s-11.9-90.3-13.2-95.491-4.54-54.481-5.189-59.346-25.944-35.348-25.944-36.321S1248.36,895.194,1248.36,895.194Z" transform="translate(-1248.36 -894.367)" fill="#593e2d"/>
        </g>
        <g id="Groupe_1113" data-name="Groupe 1113" transform="translate(23.503 177.627)">
          <path id="Tracé_6567" data-name="Tracé 6567" d="M1222.022,897.456s-9.778,28.335-10.8,56.576,1.452,148.227,3.764,150.125,8.207,3.348,12.753,3.576,11.532-1.637,13.1-4.265,13.922-150.033,13.922-150.033.088-26.276-.953-29.5S1222.022,897.456,1222.022,897.456Z" transform="translate(-1210.988 -897.456)" fill="#593e2d"/>
        </g>
        <g id="Groupe_1117" data-name="Groupe 1117" transform="translate(6.248 165.446)">
          <g id="Groupe_1114" data-name="Groupe 1114" transform="translate(0.413 0)">
            <path id="Tracé_6568" data-name="Tracé 6568" d="M1149.134,856.206s-.771,12.614-.8,22.219-.291,30.274-.291,30.274l8.029-1.015s5.943-22.738,7.9-33.352,4.13-22.4,4.13-22.4Z" transform="translate(-1148.046 -851.932)" fill="#ff883d"/>
          </g>
          <g id="Groupe_1115" data-name="Groupe 1115" transform="translate(0 50.995)">
            <path id="Tracé_6569" data-name="Tracé 6569" d="M1146.944,1047.438a56.757,56.757,0,0,0-.369,8.747c.283,3.2.336,7.128,3.132,7.952s6.993.266,7.616-.182,2.359-2.673,1.284-4.26c-1.367-2.02-5.842-1.03-5.951-1.707s3.327-3.084,3.546-5.32a12.738,12.738,0,0,0-1.061-5.157l-2.773-5Z" transform="translate(-1146.503 -1042.511)" fill="#ff883d"/>
          </g>
          <g id="Groupe_1116" data-name="Groupe 1116" transform="translate(5.867 55.993)">
            <path id="Tracé_6570" data-name="Tracé 6570" d="M1168.971,1069.426c.376-.061,2.513,1.217,3.932,2.842s4.482,4.338,3.065-1.11c-.881-3.386-4.769-9.967-4.769-9.967s-2.347,2.694-2.687,2.98S1168.971,1069.426,1168.971,1069.426Z" transform="translate(-1168.428 -1061.191)" fill="#ff883d"/>
          </g>
        </g>
        <g id="Groupe_1118" data-name="Groupe 1118" transform="translate(50.886 48.716)">
          <path id="Tracé_6571" data-name="Tracé 6571" d="M1320.328,416.77c-.255-1.162-2.21-1.136-3.1-1.049a9.191,9.191,0,0,0-3.492,1.052l-.125.071c-.294.172-.4.652-.127.836.575.383,2.024.079,2.963-.051,1.15-.158,2.521.227,3.612-.125C1320.341,417.413,1320.4,417.077,1320.328,416.77Z" transform="translate(-1313.324 -415.684)" fill="#873500"/>
        </g>
        <g id="Groupe_1119" data-name="Groupe 1119" transform="translate(70.158 48.572)">
          <path id="Tracé_6572" data-name="Tracé 6572" d="M1385.368,416.315c.214-1.164,2.156-1.209,3.047-1.155a9.243,9.243,0,0,1,3.492.909c.06.03.12.06.178.092a.533.533,0,0,1,.155.831c-.518.428-1.943.278-2.886.181-1.154-.119-2.589.181-3.691-.134C1385.377,416.958,1385.311,416.624,1385.368,416.315Z" transform="translate(-1385.349 -415.146)" fill="#873500"/>
        </g>
        <g id="Groupe_1120" data-name="Groupe 1120" transform="translate(59.734 65.232)">
          <path id="Tracé_6573" data-name="Tracé 6573" d="M1354.537,477.635c-.252-.342-7.572-.29-8.065.121-.36.3.423,2.879,4.187,2.788C1353.927,480.465,1354.789,477.976,1354.537,477.635Z" transform="translate(-1346.393 -477.409)" fill="#fff"/>
        </g>
        <g id="Groupe_1121" data-name="Groupe 1121" transform="translate(47.334 44.204)">
          <path id="Tracé_6574" data-name="Tracé 6574" d="M1305.487,398.822a9.682,9.682,0,0,0-1.823,1.034c.1.734-.579-.143-.93.485-.178-.221-.1,1.228-.387,1.363-.97.451-1.362,2.188-1.362,2.188a8.73,8.73,0,0,0-.926,3.148c.064.551.658,2.612,1.272,2.9a.63.63,0,0,0,.722-.093c1.477-1.206.737-4.452,1.328-6.067C1303.633,403.089,1305.487,398.822,1305.487,398.822Z" transform="translate(-1300.049 -398.822)" fill="#873500"/>
        </g>
        <g id="Groupe_1122" data-name="Groupe 1122" transform="translate(73.344 42.515)">
          <path id="Tracé_6575" data-name="Tracé 6575" d="M1402.675,399.318a8.033,8.033,0,0,0-1.328-3.309,42.733,42.733,0,0,0-4.085-3.491c-.147,2,1.9,3.421,3.082,8.143.262,1.047.488,3.161,1.585,3.863.165.106.471.156.6,0C1404.472,402.132,1402.675,399.318,1402.675,399.318Z" transform="translate(-1397.255 -392.51)" fill="#873500"/>
        </g>
        <g id="Groupe_1123" data-name="Groupe 1123" transform="translate(46.235 29.298)">
          <path id="Tracé_6576" data-name="Tracé 6576" d="M1297.186,365.167c.543.05,2.022-8.4,16.809-8.546,12.849-.129,14.418,7.772,15.091,8.055,1.17.492,1.4-18.137,1.1-18.783s-10.515-2.714-16.972-2.779-16.812,2.779-17.189,3.619S1296.643,365.118,1297.186,365.167Z" transform="translate(-1295.943 -343.113)" fill="#ffeacc"/>
        </g>
        <g id="Groupe_1124" data-name="Groupe 1124" transform="translate(41.518 39.292)">
          <path id="Tracé_6577" data-name="Tracé 6577" d="M1304.079,383.563a2.232,2.232,0,0,0-.371-1.115,4.686,4.686,0,0,0-2.724-1.513,7.318,7.318,0,0,0-2.923-.1,5.973,5.973,0,0,1-3.182.011,7.718,7.718,0,0,0-6.68.822,6.567,6.567,0,0,0-1.619,1.729,17.048,17.048,0,0,0-3.034.74,8.824,8.824,0,0,0-4.737,4.285,5.247,5.247,0,0,0,3.122,7.227,3.423,3.423,0,0,0,2.486,2.587,1.478,1.478,0,0,0,1.454-.384c1.4-1.591,1.292-4.562.7-6.624.675-.5,1.244-1.562,1.708-1.9a5,5,0,0,1,1.994-.618,8.018,8.018,0,0,0,1.967-.843c1.631-.839,3.507-.937,5.177-1.673a8.643,8.643,0,0,1,.962-.365c.476-.085.95-.173,1.407-.231a14.166,14.166,0,0,0,3.588-.851A1.174,1.174,0,0,0,1304.079,383.563Z" transform="translate(-1278.314 -380.463)" fill="#873500"/>
        </g>
        <g id="Groupe_1125" data-name="Groupe 1125" transform="translate(47.457 28.532)">
          <path id="Tracé_6578" data-name="Tracé 6578" d="M1301.042,343.953a.53.53,0,0,1-.245-1c.19-.1,4.769-2.421,14.6-2.68s15.942,2.166,16.2,2.269a.53.53,0,0,1-.4.984c-.061-.024-6.171-2.45-15.775-2.193-9.555.251-14.1,2.538-14.141,2.561A.523.523,0,0,1,1301.042,343.953Z" transform="translate(-1300.511 -340.253)" fill="#edcb98"/>
        </g>
        <g id="Groupe_1126" data-name="Groupe 1126" transform="translate(49.489 4.553)">
          <path id="Tracé_6579" data-name="Tracé 6579" d="M1308.634,275.678h-.024a.529.529,0,0,1-.505-.553l1.086-23.979a.512.512,0,0,1,.553-.506.529.529,0,0,1,.505.553l-1.086,23.979A.53.53,0,0,1,1308.634,275.678Z" transform="translate(-1308.104 -250.638)" fill="#edcb98"/>
        </g>
        <g id="Groupe_1127" data-name="Groupe 1127" transform="translate(4.176 175.61)">
          <path id="Tracé_6580" data-name="Tracé 6580" d="M1139.465,889.915s-1.034,5.946-.6,6.721,4.481,2.715,10.427,3.641,10.873,1.443,11.21,1.012,2.146-6.135,2.146-6.135Z" transform="translate(-1138.757 -889.915)" fill="#593e2d"/>
        </g>
        <g id="Groupe_1128" data-name="Groupe 1128" transform="translate(48.261 82.589)">
          <path id="Tracé_6581" data-name="Tracé 6581" d="M1303.514,547.745s2.636-5.4,3.218-5.467,11.6,1.142,12.39,1.831,0,7.863,0,7.863-13.179-.969-13.851-1.034S1303.514,547.745,1303.514,547.745Z" transform="translate(-1303.514 -542.276)" fill="#ffeacc"/>
        </g>
        <g id="Groupe_1129" data-name="Groupe 1129" transform="translate(63.206 82.589)">
          <path id="Tracé_6582" data-name="Tracé 6582" d="M1375.957,547.124s-3.264-4.781-3.846-4.846-11.6,1.142-12.39,1.831,0,7.863,0,7.863,13.179-.969,13.851-1.034S1375.957,547.124,1375.957,547.124Z" transform="translate(-1359.368 -542.276)" fill="#ffeacc"/>
        </g>
        <g id="Groupe_1130" data-name="Groupe 1130" transform="translate(55.365 6.708)">
          <path id="Tracé_6583" data-name="Tracé 6583" d="M1330.593,278.706a.53.53,0,0,1-.53-.53V259.219a.53.53,0,0,1,1.06,0v18.957A.53.53,0,0,1,1330.593,278.706Z" transform="translate(-1330.063 -258.689)" fill="#edcb98"/>
        </g>
        <g id="Groupe_1131" data-name="Groupe 1131" transform="translate(66.754 2.831)">
          <path id="Tracé_6584" data-name="Tracé 6584" d="M1375.49,268.439a.53.53,0,0,1-.526-.477l-2.335-23.179a.529.529,0,0,1,.474-.581.542.542,0,0,1,.58.474l2.335,23.179a.53.53,0,0,1-.474.581Z" transform="translate(-1372.626 -244.2)" fill="#edcb98"/>
        </g>
        <g id="Groupe_1132" data-name="Groupe 1132" transform="translate(73.461 9.984)">
          <path id="Tracé_6585" data-name="Tracé 6585" d="M1399.943,289.311a.529.529,0,0,1-.526-.478l-1.723-17.32a.53.53,0,1,1,1.054-.1l1.723,17.32a.53.53,0,0,1-.474.58Z" transform="translate(-1397.691 -270.932)" fill="#edcb98"/>
        </g>
        <g id="Groupe_1133" data-name="Groupe 1133" transform="translate(0 96.551)">
          <path id="Tracé_6586" data-name="Tracé 6586" d="M1151.252,594.454s-5.278,3.705-8.035,13.356c-2.1,7.336-16.145,47.263-18.213,51.744s-2.914,8.527.188,13.959c1.874,3.282,16.348,10.276,25.505,6.376s6.016-27.574,6.016-27.574l-1.606-55.018Z" transform="translate(-1123.152 -594.454)" fill="#ffeacc"/>
        </g>
        <g id="Groupe_1134" data-name="Groupe 1134" transform="translate(17.041 182.444)">
          <path id="Tracé_6587" data-name="Tracé 6587" d="M1201.317,916.986s-12.825,40.666-14.479,119.68c-.087,4.161,35.078,7.584,49.2,7.584s46.189-4.2,46.137-7.755c-1.277-87.891-10.653-121.039-10.653-121.039Z" transform="translate(-1186.837 -915.456)" fill="#ffeacc"/>
        </g>
        <g id="Groupe_1135" data-name="Groupe 1135" transform="translate(31.52 176.801)">
          <path id="Tracé_6588" data-name="Tracé 6588" d="M1240.95,894.918s22.651,1.963,35.835,1.834,33.375-2.385,33.375-2.385l1,5.643s-5.419,2.041-34.673,2.386c-30.5.359-35.534-.856-35.534-.856Z" transform="translate(-1240.95 -894.367)" fill="#593e2d"/>
        </g>
        <g id="Groupe_1136" data-name="Groupe 1136" transform="translate(52.055 92.403)">
          <path id="Tracé_6589" data-name="Tracé 6589" d="M1319.121,661.826a.53.53,0,0,1-.527-.484c-.01-.116-1.018-11.958-.891-38.566s1.05-43.162,1.059-43.326a.52.52,0,0,1,.559-.5.53.53,0,0,1,.5.559c-.009.164-.93,16.705-1.057,43.272s.876,38.352.886,38.469a.53.53,0,0,1-.482.574Z" transform="translate(-1317.693 -578.951)" fill="#edcb98"/>
        </g>
        <g id="Groupe_1137" data-name="Groupe 1137" transform="translate(75.442 89.817)">
          <path id="Tracé_6590" data-name="Tracé 6590" d="M1407.014,654.749h-.026a.53.53,0,0,1-.5-.556c.009-.2.971-19.72,1.353-37.856.383-18.108-2.708-46.179-2.739-46.46a.53.53,0,1,1,1.054-.117c.031.282,3.129,28.422,2.745,46.6-.383,18.151-1.345,37.691-1.356,37.886A.529.529,0,0,1,1407.014,654.749Z" transform="translate(-1405.096 -569.288)" fill="#edcb98"/>
        </g>
        <g id="Groupe_1138" data-name="Groupe 1138" transform="translate(27.536 99.596)">
          <path id="Tracé_6591" data-name="Tracé 6591" d="M1231.066,682.379a.53.53,0,0,1-.525-.466c-.038-.311-3.83-31.155-4.138-37.781-.769-16.462-.009-37.574,0-37.786a.531.531,0,0,1,.53-.51h.02a.53.53,0,0,1,.51.549c-.008.211-.766,21.28,0,37.7.308,6.586,4.094,37.391,4.132,37.7a.529.529,0,0,1-.461.591A.5.5,0,0,1,1231.066,682.379Z" transform="translate(-1226.059 -605.836)" fill="#edcb98"/>
        </g>
        <g id="Groupe_1139" data-name="Groupe 1139" transform="translate(99.659 96.022)">
          <path id="Tracé_6592" data-name="Tracé 6592" d="M1499.056,638.127a.53.53,0,0,1-.528-.5L1495.6,593.04a.53.53,0,0,1,.494-.564.537.537,0,0,1,.564.495l2.926,44.592a.53.53,0,0,1-.494.564Z" transform="translate(-1495.601 -592.476)" fill="#edcb98"/>
        </g>
        <g id="Groupe_1140" data-name="Groupe 1140" transform="translate(55.849 91.162)">
          <path id="Tracé_6593" data-name="Tracé 6593" d="M1335.066,575.912a1.6,1.6,0,1,0-1.6,1.6A1.6,1.6,0,0,0,1335.066,575.912Z" transform="translate(-1331.872 -574.315)" fill="#593e2d"/>
        </g>
        <g id="Groupe_1141" data-name="Groupe 1141" transform="translate(54.769 107.491)">
          <path id="Tracé_6594" data-name="Tracé 6594" d="M1331.029,636.937a1.6,1.6,0,1,0-1.6,1.6A1.6,1.6,0,0,0,1331.029,636.937Z" transform="translate(-1327.835 -635.34)" fill="#593e2d"/>
        </g>
        <g id="Groupe_1142" data-name="Groupe 1142" transform="translate(54.769 125.26)">
          <path id="Tracé_6595" data-name="Tracé 6595" d="M1331.029,703.344a1.6,1.6,0,1,0-1.6,1.6A1.6,1.6,0,0,0,1331.029,703.344Z" transform="translate(-1327.835 -701.747)" fill="#593e2d"/>
        </g>
        <g id="Groupe_1143" data-name="Groupe 1143" transform="translate(54.769 144.198)">
          <path id="Tracé_6596" data-name="Tracé 6596" d="M1331.029,774.121a1.6,1.6,0,1,0-1.6,1.6A1.6,1.6,0,0,0,1331.029,774.121Z" transform="translate(-1327.835 -772.524)" fill="#593e2d"/>
        </g>
        <g id="Groupe_1144" data-name="Groupe 1144" transform="translate(54.769 164.276)">
          <path id="Tracé_6597" data-name="Tracé 6597" d="M1331.029,849.154a1.6,1.6,0,1,0-1.6,1.6A1.6,1.6,0,0,0,1331.029,849.154Z" transform="translate(-1327.835 -847.557)" fill="#593e2d"/>
        </g>
        <g id="Groupe_1145" data-name="Groupe 1145" transform="translate(71.187 90.688)">
          <path id="Tracé_6598" data-name="Tracé 6598" d="M1392.388,574.141a1.6,1.6,0,1,0-1.6,1.6A1.6,1.6,0,0,0,1392.388,574.141Z" transform="translate(-1389.193 -572.544)" fill="#593e2d"/>
        </g>
        <g id="Groupe_1146" data-name="Groupe 1146" transform="translate(72.784 107.491)">
          <path id="Tracé_6599" data-name="Tracé 6599" d="M1398.357,636.937a1.6,1.6,0,1,0-1.6,1.6A1.6,1.6,0,0,0,1398.357,636.937Z" transform="translate(-1395.162 -635.34)" fill="#593e2d"/>
        </g>
        <g id="Groupe_1147" data-name="Groupe 1147" transform="translate(73.646 125.26)">
          <path id="Tracé_6600" data-name="Tracé 6600" d="M1401.577,703.344a1.6,1.6,0,1,0-1.6,1.6A1.6,1.6,0,0,0,1401.577,703.344Z" transform="translate(-1398.383 -701.747)" fill="#593e2d"/>
        </g>
        <g id="Groupe_1148" data-name="Groupe 1148" transform="translate(72.784 144.198)">
          <path id="Tracé_6601" data-name="Tracé 6601" d="M1398.357,774.121a1.6,1.6,0,1,0-1.6,1.6A1.6,1.6,0,0,0,1398.357,774.121Z" transform="translate(-1395.162 -772.524)" fill="#593e2d"/>
        </g>
        <g id="Groupe_1149" data-name="Groupe 1149" transform="translate(72.784 164.276)">
          <path id="Tracé_6602" data-name="Tracé 6602" d="M1398.357,849.154a1.6,1.6,0,1,0-1.6,1.6A1.6,1.6,0,0,0,1398.357,849.154Z" transform="translate(-1395.162 -847.557)" fill="#593e2d"/>
        </g>
        <g id="Groupe_1154" data-name="Groupe 1154" transform="translate(96.693 142.148)">
          <g id="Groupe_1150" data-name="Groupe 1150" transform="translate(29.116)">
            <path id="Tracé_6603" data-name="Tracé 6603" d="M1593.49,778.247s-1.034-6.308,2.154-9.961,11.891-4.429,15.855-2.1a13.747,13.747,0,0,1,6.2,10.168c.255,3.157-1.664,7.256-3.291,8.974s-3.408,4.114-7.21,4.377a14.6,14.6,0,0,1-7.421-1.891Z" transform="translate(-1593.33 -764.863)" fill="#593e2d"/>
          </g>
          <g id="Groupe_1153" data-name="Groupe 1153" transform="translate(0 3.627)">
            <g id="Groupe_1151" data-name="Groupe 1151" transform="translate(11.586)">
              <path id="Tracé_6604" data-name="Tracé 6604" d="M1562.051,779.767c4.831,3.139,3.85,10.539.152,14.957-2.24,2.676-28.256,28.943-28.256,28.943l-6.131-6s19.861-33.541,20.8-34.824c3.016-4.107,9.159-5.852,13.431-3.076Z" transform="translate(-1527.817 -778.418)" fill="#ff883d"/>
            </g>
            <g id="Groupe_1152" data-name="Groupe 1152" transform="translate(0 37.245)">
              <path id="Tracé_6605" data-name="Tracé 6605" d="M1499.092,917.61s-7.731,2.068-11.935,5.62c-3.468,2.931-2.91,7.2-1.756,8.752s6.024,1.276,10.861-1.075a13.741,13.741,0,0,0,6.448-5.969s3.544-6.105,3.063-6.325S1499.092,917.61,1499.092,917.61Z" transform="translate(-1484.517 -917.61)" fill="#ff883d"/>
            </g>
          </g>
        </g>
        <g id="Groupe_1155" data-name="Groupe 1155" transform="translate(121.643 137.855)">
          <path id="Tracé_6606" data-name="Tracé 6606" d="M1578.4,766.076a.531.531,0,0,1-.53-.512l-.012-.111a15.527,15.527,0,0,1,2.155-9.744c3-5.038,9.354-6.8,9.622-6.875a.53.53,0,0,1,.278,1.024c-.062.017-6.207,1.731-8.989,6.4a14.448,14.448,0,0,0-2.013,9.073c.013.114.02.188.02.22A.53.53,0,0,1,1578.4,766.076Z" transform="translate(-1577.758 -748.816)" fill="#edcb98"/>
        </g>
        <g id="Groupe_1156" data-name="Groupe 1156" transform="translate(119.776 129.928)">
          <path id="Tracé_6607" data-name="Tracé 6607" d="M1571.312,742.649h-.02a.525.525,0,0,1-.51-.524c0-.263,1.931-15.8,2.761-22.469a.53.53,0,1,1,1.052.131c-.937,7.526-2.718,21.885-2.754,22.366A.535.535,0,0,1,1571.312,742.649Z" transform="translate(-1570.782 -719.191)" fill="#edcb98"/>
        </g>
        <g id="Groupe_1157" data-name="Groupe 1157" transform="translate(32.013 184.365)">
          <path id="Tracé_6608" data-name="Tracé 6608" d="M1274.05,932.669c-14.951,0-30.831-8.951-30.99-9.041a.53.53,0,0,1,.525-.922c.158.089,15.8,8.9,30.464,8.9h.036c22.186-.022,35.008-8.788,35.136-8.877a.53.53,0,1,1,.607.869c-.13.091-13.2,9.046-35.742,9.068Z" transform="translate(-1242.793 -922.635)" fill="#edcb98"/>
        </g>
        <g id="Groupe_1158" data-name="Groupe 1158" transform="translate(19.491 299.851)">
          <path id="Tracé_6609" data-name="Tracé 6609" d="M1238.862,1360.823c-26.509,0-42.355-5.5-42.517-5.56a.53.53,0,1,1,.354-1c.164.058,16.786,5.828,44.506,5.484s43.991-5.438,44.151-5.489a.53.53,0,1,1,.323,1.01c-.163.052-16.555,5.2-44.462,5.54Q1240.027,1360.823,1238.862,1360.823Z" transform="translate(-1195.992 -1354.234)" fill="#edcb98"/>
        </g>
        <g id="Groupe_1159" data-name="Groupe 1159" transform="translate(57.433 187.315)">
          <path id="Tracé_6610" data-name="Tracé 6610" d="M1339.161,958.692c-.547,0-.851-.016-.87-.017a.53.53,0,1,1,.06-1.058,48.613,48.613,0,0,0,24.093-6.22c11.912-6.792,15.062-17.249,15.092-17.353a.53.53,0,0,1,1.019.3c-.13.445-3.3,10.975-15.585,17.979A50.327,50.327,0,0,1,1339.161,958.692Z" transform="translate(-1337.791 -933.661)" fill="#edcb98"/>
        </g>
        <g id="Groupe_1160" data-name="Groupe 1160" transform="translate(30.765 120.474)">
          <path id="Tracé_6611" data-name="Tracé 6611" d="M1238.915,684.02c.668-.5,16.592.237,17.354,1.034s.638,3.219,0,3.591-17.361-.6-17.9-1.114S1238.247,684.515,1238.915,684.02Z" transform="translate(-1238.126 -683.858)" fill="#593e2d"/>
        </g>
        <g id="Groupe_1161" data-name="Groupe 1161" transform="translate(48.385 87.102)">
          <path id="Tracé_6612" data-name="Tracé 6612" d="M1319.562,562.193c-6.11,0-14.8-1.921-15.17-2.005a.53.53,0,1,1,.23-1.034c.093.021,9.341,2.034,15.314,1.977a83.594,83.594,0,0,0,14.251-1.976.53.53,0,1,1,.238,1.033,84.85,84.85,0,0,1-14.474,2Z" transform="translate(-1303.976 -559.14)" fill="#edcb98"/>
        </g>
        <g id="Groupe_1162" data-name="Groupe 1162" transform="translate(61.818 54.315)">
          <path id="Tracé_6613" data-name="Tracé 6613" d="M1356.231,445.641a.53.53,0,0,1-.332-.117,4.949,4.949,0,0,1-1.7-2.437c-.185-1.108,1.2-5.289,1.478-6.116a.53.53,0,1,1,1,.34,25.416,25.416,0,0,0-1.436,5.6,3.974,3.974,0,0,0,1.32,1.786.53.53,0,0,1-.333.943Z" transform="translate(-1354.181 -436.609)" fill="#ed7124"/>
        </g>
      </g>
    </g>
  </g>
</svg>
