<svg xmlns="http://www.w3.org/2000/svg" xmlns:xlink="http://www.w3.org/1999/xlink" width="270.752" height="148.971" viewBox="0 0 270.752 148.971">
  <defs>
    <clipPath id="clip-path">
      <path id="Tracé_5579" data-name="Tracé 5579" d="M2612.2,324.754c.306-.734,10.1-3.978,25.824-3.855s24.293,3.121,24.783,3.855-9.424,3.3-25.885,3.61S2611.891,325.488,2612.2,324.754Z" transform="translate(-2612.188 -320.895)" fill="none"/>
    </clipPath>
  </defs>
  <g id="ferme-valeur-illu-1" transform="translate(-2608.064 -195.611)">
    <path id="Tracé_5525" data-name="Tracé 5525" d="M2813.317,278.177a6.359,6.359,0,0,1,2.6-3.838c2.055-1.193,4-1.936,4.521-.853s-1.547,3.562-1.547,3.562-1.374,1.679-1.972,1.734A28.626,28.626,0,0,1,2813.317,278.177Z" transform="translate(-54.529 -20.549)" fill="#36312f"/>
    <path id="Tracé_5526" data-name="Tracé 5526" d="M2769.736,265.013s7.2,9.911,8.426,10.659,11.715.673,11.715.673l1.209,10.64s-16.012,1.853-18.947,1.2-11.157-12.294-11.157-12.294Z" transform="translate(-40.626 -18.438)" fill="#ff8426"/>
    <path id="Tracé_5527" data-name="Tracé 5527" d="M2795.7,291.021c-1.058-.972-.057-12.628.529-12.843s11.095,1.232,12.285.921,8.571-3.017,11.233-2.63,5.574,3.151,4.6,6.4-5.552,4.092-8.849,4.8c-1.5.319-3.777.159-4.321.369S2796.757,291.994,2795.7,291.021Z" transform="translate(-49.725 -21.472)" fill="#36312f"/>
    <path id="Tracé_5528" data-name="Tracé 5528" d="M2900.6,359.659c-6.8-3.625-13.918-4.568-21.521-4.709l-6.725-.125c-3.487-.065-6.973-.129-10.458-.25-3.312-.115-6.623-.28-9.922-.589-2.467-.231-4.928-.543-7.4-.7-4.06-.264-8.132-.12-12.2-.058-5.414.082-10.829.018-16.243-.046-4.477-.054-8.954-.107-13.432-.2-10.751-.218-22.728-2.264-33.326-.083a8.182,8.182,0,0,0-4.6,2.5c-2.058.114-4.114.192-6.165.166a59.136,59.136,0,0,0-6.048.72c-2.382.215-3.816-.477-6.084-1.015a11.2,11.2,0,0,0-3.478-.088c-6.142.491-12.359,1.569-18.513,1.687-1.74.029-3.459.184-5.192.235-2.122.059-4.134-.58-6.235-.624-2.379-.059-6.271,1.072-7.879,2.967-1.4,1.667-.235,4.612,1.27,5.787,1.146.9,2.533.852,3.916,1,4.754.506,9.054,5.482,13.44,7.353,5.635,2.4,12.045,1.672,17.962,2.753,4.393.8,8.541,2.571,12.818,3.854,5.883,1.766,11.087.513,16.948,1.176,5.061.572,10.051,1.646,15.122,2.134,11.353,1.093,22.821-.774,34.192.109,6.429.5,12.766,1.873,19.194,2.379,12.79,1.007,24.009-4.927,36.309-7.451,3.993-.82,8.1-.914,12.123-1.56,5.357-.86,14.225-4.185,15.747-10.233C2905.067,363.42,2903.5,361.2,2900.6,359.659Z" transform="translate(-25.634 -41.522)" fill="#662910"/>
    <path id="Tracé_5529" data-name="Tracé 5529" d="M2697.984,352.474s-13.333-.472-14.088.048-1.665,1.832-2.126,4.142a83.136,83.136,0,0,0-1.4,10.291c-.168,2.336-.731,4.667-.483,7.022.463,4.388,6.655,3.022,8.189.173,1.66-3.083,2.172-6.826,3.943-9.85.106-.179,5.516-.7,5.516-.7Z" transform="translate(-19.065 -41.622)" fill="#36312f"/>
    <path id="Tracé_5530" data-name="Tracé 5530" d="M2791.042,346.025s2.362,5.282-.3,10.217c-3.124,5.785-18.331,4.378-18.331,4.378s1.744-10.372,1.744-10.648S2791.042,346.025,2791.042,346.025Z" transform="translate(-43.661 -39.96)" fill="#f57f25"/>
    <path id="Tracé_5531" data-name="Tracé 5531" d="M2697.049,326.243s-2.111,8.353,1.285,12.3,9.4,5.416,9.4,5.416-6.465-.367-6.833.459-.241,11.749,1.165,11.933,15.725,1.01,20.865,1.469,27.537,1.193,31.209-3.58a11.968,11.968,0,0,0,2.21-9.913s-32.684-21.479-33.786-21.938S2697.049,326.243,2697.049,326.243Z" transform="translate(-23.468 -33.672)" fill="#ffa058"/>
    <path id="Tracé_5532" data-name="Tracé 5532" d="M2770.69,263c-.1.83-10.949,9.835-11.75,10.114-.286.1-1.593-1.3-3.172-3.143-1.865-2.166-2.65-6.545-4.045-8.307-.808-1.021-1.329-1.7-1.329-1.7l1.322-7.483,1.762-9.95a.138.138,0,0,0,.052.015c.022.007.044.022.066.029.2.066.646.228,1.227.477a21.5,21.5,0,0,1,2.592,1.263,12.029,12.029,0,0,1,2.974,2.254c2.225,2.475,7.461,11.926,8.467,13.49S2770.786,262.166,2770.69,263Z" transform="translate(-37.813 -12.465)" fill="#d9c08d"/>
    <g id="Groupe_867" data-name="Groupe 867" transform="translate(2701.617 195.611)">
      <path id="Tracé_5533" data-name="Tracé 5533" d="M2762.476,201.248c-.128-.178-.088-.814-.148-1.053a4.582,4.582,0,0,0-.466-1.215,2.454,2.454,0,0,0-1.734-1.171,6.786,6.786,0,0,0-1.917.021c-.369.039-1.126.3-1.434.015-.487-.446-.53-1.179-1.039-1.631a2.692,2.692,0,0,0-1.906-.6,3.4,3.4,0,0,0-1.077.213c-.315.117-.616.5-.933.564-.867.168-2.021-.278-2.95-.26a8.281,8.281,0,0,0-3.152.523c-.745.331-1.283,1.025-2.074,1.265-1.232.374-2.313.1-2.948,1.488a5.32,5.32,0,0,0-1,.213c-1.231.369-2.293,1.1-2.321,2.519-.015.8.353,1.483.147,2.24-.346,1.273-.989,2.523-.145,3.772a1.846,1.846,0,0,1,.383.7,2.393,2.393,0,0,1-.01.448c-.032.96.74,1.811.937,2.734.244,1.148.292,2.333.552,3.479.28,1.229,1,2.308,1.342,3.517.238.835-.278,2.492.7,2.981a.164.164,0,0,0,.228-.1,5.707,5.707,0,0,0,.044-2.475,6.676,6.676,0,0,1,1.028-.389,1.558,1.558,0,0,0,.815-.33,8.624,8.624,0,0,0,2.365-3.268c.595-1.476.587-2.445,2.159-3.2.61-.294,1.241-.543,1.858-.83a7.753,7.753,0,0,0,3.54-2.519c.727-1.087.654-1.806,2.218-2.049.617-.1,1.256-.132,1.88-.22a18.7,18.7,0,0,0,3.708-.609C2762.446,205.529,2763.43,202.571,2762.476,201.248Z" transform="translate(-2735.861 -195.611)" fill="#36312f"/>
      <path id="Tracé_5534" data-name="Tracé 5534" d="M2760.6,208.654s-.154,2.445-.455,5.552c-.015.176-.037.352-.051.536-.015.206-.037.419-.059.632-.015.154-.029.3-.044.455a81.566,81.566,0,0,1-1.314,9.135c-.881,3.73-3.363,4.8-5.772,4.744a12.211,12.211,0,0,1-6.624-3.165c-.977-1.19-2.57-6.227-2.57-6.227s-.33-8.107-.271-8.283,2.387-3.4,3.738-4.054,5.9-2.32,5.9-2.32Z" transform="translate(-2737.581 -198.28)" fill="#ff8426"/>
      <path id="Tracé_5535" data-name="Tracé 5535" d="M2743.139,219.189s-2.483-1.508-3.812.325.611,4.844,2.084,5.311a22.076,22.076,0,0,0,3.83.662Z" transform="translate(-2736.372 -201.72)" fill="#ff8426"/>
      <path id="Tracé_5536" data-name="Tracé 5536" d="M2749.8,234.7l-.623,1.33-1.225,2.643-2.084,4.469-3.4,3.374-4.2-.711-2.808-6.5,5.814-13.126Z" transform="translate(-2735.463 -203.733)" fill="#ff8426"/>
      <path id="Tracé_5537" data-name="Tracé 5537" d="M2752.462,237.358l-1.219,2.64a12.342,12.342,0,0,1-2.745-1.018c-2.82-1.472-2.676-3.57-2.314-3.8s1.358-.145,2.759.846A9.675,9.675,0,0,0,2752.462,237.358Z" transform="translate(-2738.26 -206.096)" fill="#e66617"/>
      <path id="Tracé_5538" data-name="Tracé 5538" d="M2753.736,220.11a.377.377,0,0,0-.453-.188,1.118,1.118,0,0,0-.616,1.046.459.459,0,0,0,.765.153,1.081,1.081,0,0,0,.315-.985A.2.2,0,0,0,2753.736,220.11Z" transform="translate(-2740.029 -202.063)" fill="#36312f"/>
      <path id="Tracé_5539" data-name="Tracé 5539" d="M2764.316,221.193c-.028-.131-.089-.29-.242-.311-.467-.061-.862.637-.772,1.039a.422.422,0,0,0,.694.181A1.04,1.04,0,0,0,2764.316,221.193Z" transform="translate(-2742.855 -202.324)" fill="#36312f"/>
      <path id="Tracé_5540" data-name="Tracé 5540" d="M2759.991,223.794a2.922,2.922,0,0,1-.562-1.2c-.111-.486.042-1.02-.084-1.483s-.389.153-.462.364a4.762,4.762,0,0,0-.206,2.074,2.472,2.472,0,0,0,.941,1.762c.383.264,1.116.64,1.421.069.341-.637-.542-1.067-.9-1.43Q2760.059,223.878,2759.991,223.794Z" transform="translate(-2741.621 -202.341)" fill="#e66617"/>
      <path id="Tracé_5541" data-name="Tracé 5541" d="M2759.479,228.843a.481.481,0,0,0-.13-.142.4.4,0,0,0-.3-.06,1.672,1.672,0,0,0-.6.292,1.359,1.359,0,0,1-.705.252,1.927,1.927,0,0,1-.954-.189,1.716,1.716,0,0,1-.685-.719.615.615,0,0,0-.331-.263c-.665-.175-.629,1.033-.5,1.381.505,1.392,2.42,1.58,3.482.9C2759.075,230.08,2759.749,229.3,2759.479,228.843Z" transform="translate(-2740.704 -204.215)" fill="#fff"/>
      <path id="Tracé_5542" data-name="Tracé 5542" d="M2754.381,216.811a1.87,1.87,0,0,0-2.081-.658c-.33.063-2.241.547-1.792,1.121.323.413,1.061.179,1.523.154C2752.393,217.408,2754.893,217.711,2754.381,216.811Z" transform="translate(-2739.442 -201.052)" fill="#36312f"/>
      <path id="Tracé_5543" data-name="Tracé 5543" d="M2765.25,217.223c-.015.176-.037.352-.052.536-.015.206-.037.419-.059.632a.5.5,0,0,0-.1-.015c-.367-.029-2.871.191-2.335-.69a1.867,1.867,0,0,1,2.1-.587A3.848,3.848,0,0,1,2765.25,217.223Z" transform="translate(-2742.682 -201.297)" fill="#36312f"/>
      <path id="Tracé_5544" data-name="Tracé 5544" d="M2763.228,205.259c-.066-.176-.507-1.241-.543-1.241a.535.535,0,0,0-.705-.47c-1.535-1.212-3.98-1.021-5.8-1.16-2.886-.235-5.816-.4-8.144,1.491-1.909,1.542-4.531,3.3-5.706,5.5-.6,1.116-.154,2.423.125,3.576-.139.521.514,2.122,1.006,2.254a.223.223,0,0,0,.213-.051,4.309,4.309,0,0,0,.925-2.181,4.011,4.011,0,0,1,.551-2.034c.485-.609,1.19-.778,1.623-1.483.1-.162.279-.742.375-.881.7-1.021.609-.595,1.447-.734a4.818,4.818,0,0,0,1.74-.374c.6-.308,1.572-1.527,2.2-1.623.852-.14.823.764,1.373,1.168.786.587,1.63.1,2.5.264a3.574,3.574,0,0,1,1.344.624,5.137,5.137,0,0,0,3.128,1.168,2.4,2.4,0,0,0,2.651-2.063A3.1,3.1,0,0,0,2763.228,205.259Z" transform="translate(-2737.208 -197.374)" fill="#36312f"/>
    </g>
    <path id="Tracé_5545" data-name="Tracé 5545" d="M2744.768,247.2c-.389,3.789-3.657,9.539-5.9,13.115-1.219,1.939-2.137,3.231-2.137,3.231l-8.871,30.937-12.645-.676-13.218-.7s3.121-20.1,3.76-26.524,2.974-15.862,5.236-20.561a16.206,16.206,0,0,1,14.3-8.533,13.952,13.952,0,0,1,2.43.257,12.439,12.439,0,0,1,1.234.286c4.986,1.4,8.893,1.909,11.661,3.158a.141.141,0,0,0,.052.015,11.007,11.007,0,0,1,1.3.72,6.745,6.745,0,0,1,2.548,3,2.389,2.389,0,0,1,.162.507A4.992,4.992,0,0,1,2744.768,247.2Z" transform="translate(-24.954 -11.125)" fill="#f2e2c2"/>
    <path id="Tracé_5546" data-name="Tracé 5546" d="M2699.611,311.219s-6.67,10.127-6.578,11.5,3.3,2.2,8.536,2.57,6.792-1.377,11.015-1.652,2.754.184,7.71-.459,8.169-2.295,8.353-2.57-3.172-8.016-3.172-8.016-11.147-6.946-12.341-6.946S2699.611,311.219,2699.611,311.219Z" transform="translate(-22.573 -29.234)" fill="#f2e2c2"/>
    <path id="Tracé_5547" data-name="Tracé 5547" d="M2749.586,264.778c-.072.543-.228,1.322-.448,2.276-1.821,8.056-8,28.749-8,28.749h-21.016s-.11-1.05-.125-1.99a4.037,4.037,0,0,1,.125-1.314c.271-.639,11.47-40.616,11.47-40.616a48.068,48.068,0,0,0-.235-7.211c-.844-5.111-1.248-7.035-1.277-7.182a13.952,13.952,0,0,1,2.43.257,28.654,28.654,0,0,1,.874,3.165,69.43,69.43,0,0,1,1.19,9.319s5.4.624,9.069.911a11.3,11.3,0,0,0,3.326.051c.11-.375-.125-7.028-.213-9.267a1.931,1.931,0,0,0-.007-.213,21.519,21.519,0,0,1,2.592,1.263c.029.543.073,1.4.125,2.453.029.543.059,1.138.088,1.777C2749.792,252.735,2750.619,256.945,2749.586,264.778Z" transform="translate(-29.736 -11.126)" fill="#36312f"/>
    <path id="Tracé_5548" data-name="Tracé 5548" d="M2716.733,311.066a32.75,32.75,0,0,1-7.825.956,25.532,25.532,0,0,1-6.83-.956l-.686,2.266a20.068,20.068,0,0,0,7.057,1.375,46.927,46.927,0,0,0,7.763-.672Z" transform="translate(-24.794 -30.673)" fill="#36312f"/>
    <path id="Tracé_5549" data-name="Tracé 5549" d="M2719.905,315.205s-.887,2.232.765,5.444,27.463,18.267,29.336,19.827,4.81,6.793,8.023,6.058,6.425-3.58,10.648-4.59,10.1-2.662,10.373-3.4-3.3-8.261-13.493-12.025-19.46-7.844-20.745-8.6-3.573-2.227-3.573-2.227-8.269-.919-9.278-.919S2719.905,315.205,2719.905,315.205Z" transform="translate(-29.65 -31.658)" fill="#36312f"/>
    <path id="Tracé_5550" data-name="Tracé 5550" d="M2608.133,324.542c-.826,2.111,5.994,21.39,9.54,24.942,2.019,2.022,34.887,1.791,38.467-.8,2.475-1.792,9.822-22.547,8.353-24.875s-9.546-4.748-30.108-4.748C2619.788,319.059,2608.959,322.43,2608.133,324.542Z" transform="translate(0 -32.796)" fill="#ffddae"/>
    <g id="Groupe_869" data-name="Groupe 869" transform="translate(2734.961 240.235)">
      <g id="Groupe_868" data-name="Groupe 868">
        <path id="Tracé_5551" data-name="Tracé 5551" d="M2836.129,332.82c-.353-1.048-1.4-.983-2.233-.609a1.008,1.008,0,0,1-.466.124c-.426-.028-.806-.386-1.264-.432a1.662,1.662,0,0,0-1.662,1.225,3.264,3.264,0,0,0,.564,2.578,3.331,3.331,0,0,0,3.929.663A2.918,2.918,0,0,0,2836.129,332.82Z" transform="translate(-2794.038 -276.442)" fill="#c93d2e"/>
        <path id="Tracé_5552" data-name="Tracé 5552" d="M2800.929,305.984c-.353-1.049-1.4-.983-2.233-.609a1.016,1.016,0,0,1-.465.123c-.426-.028-.806-.386-1.264-.431a1.661,1.661,0,0,0-1.662,1.224,3.267,3.267,0,0,0,.564,2.578,3.331,3.331,0,0,0,3.929.664A2.919,2.919,0,0,0,2800.929,305.984Z" transform="translate(-2784.687 -269.312)" fill="#c93d2e"/>
        <path id="Tracé_5553" data-name="Tracé 5553" d="M2811.38,282.15c-.353-1.048-1.4-.983-2.234-.609a1,1,0,0,1-.465.124c-.427-.028-.806-.385-1.264-.431a1.66,1.66,0,0,0-1.662,1.224,3.261,3.261,0,0,0,.564,2.577,3.33,3.33,0,0,0,3.929.663A2.92,2.92,0,0,0,2811.38,282.15Z" transform="translate(-2787.463 -262.981)" fill="#f26555"/>
        <path id="Tracé_5554" data-name="Tracé 5554" d="M2833.563,314.214a4.051,4.051,0,0,0-3.612-3.351,4.769,4.769,0,0,0-3.083-.036c-.78-.2-1.566-.356-2.353-.49l.056-.085c.156-.168.31-.343.476-.5.742-.712,3.382-2.677,2.969-3.877a1.488,1.488,0,0,0-1.246-1.005c-1.575-.186-2.35,1.174-3.15,2.268a7.441,7.441,0,0,0-1.345,2.13c-.209.242-.413.491-.616.746a24.967,24.967,0,0,0-4.855.194c.41-.674.787-1.384,1.169-2.064.632-1.126,1.895-3.5-.434-3.927-1.43-.259-2.63,1.53-3.217,2.581a9.145,9.145,0,0,0-.965,2.442,3.4,3.4,0,0,0,.161,1.658,13.309,13.309,0,0,0-5.84,3.783c-.19-2.683-.354-5.369-.354-8.077,0-4.36.222-8.7.48-13.039a11.323,11.323,0,0,1,3.354-1.22,6.324,6.324,0,0,0-.009,2.757c.268,1.5,1.361,4.3,3.3,4.146a1.219,1.219,0,0,0,1.108-.843c.469-1.121-.474-2.712-.8-3.755a11.114,11.114,0,0,0-1.06-2.732,15.418,15.418,0,0,1,1.561-.115,13.881,13.881,0,0,1,2.843.319c-.185,2.065.731,6.589,3.17,7.18,1.75.424,1.915-1.529,1.411-2.675a20.4,20.4,0,0,0-1.433-2.1,6.345,6.345,0,0,1-.7-1.838c.5.119,1,.233,1.523.326.037.007.083.006.124.01a16.649,16.649,0,0,0,3.562,2.213c.612.339,6.6,1.66,5.057-.357-.8-1.045-1.292-2.367-2.437-3.067-1.234-.756-2.934-.644-4.319-.676a14.877,14.877,0,0,1-2.937-.427c.145-.082.286-.167.427-.253a.959.959,0,0,0,.244-.069c1.374-.605,2.837-.757,3.811-2.049.731-.969.681-2.294-.8-2.365-1.609-.077-6.295,2.154-6.419,4.02l-.01.133c-.174-.029-.347-.06-.524-.082a20.809,20.809,0,0,0-3.708-.173c.139-.17.272-.35.4-.54a10.737,10.737,0,0,0,1.2-1.969,3.157,3.157,0,0,0,.792-1.228,1.026,1.026,0,0,0-1.49-1.146,7.018,7.018,0,0,0-1.95,2.088c-.161.187-.32.386-.468.6-.6.69-1.338,1.317-1.158,2.329a.8.8,0,0,0,.078.228,9.92,9.92,0,0,0-3.48,1.544c-.055.039-.112.081-.169.123.245-4.006.5-8.009.624-12.02a.492.492,0,0,0,.241-.2,19.407,19.407,0,0,1,7.446-2.767.83.83,0,0,0,.059.119,8.447,8.447,0,0,0,1.455,4.684c1.024,1.392,2.6,1.206,2.9-.591a5.845,5.845,0,0,0-1.748-4.487,36.721,36.721,0,0,1,5.373.24,1.153,1.153,0,0,0,.043.176,4.263,4.263,0,0,0,.165,2.71c.441,1.123,1.709,2.88,3.139,2.565,1.7-.374.927-2.581.483-3.6a8.935,8.935,0,0,0-.63-1.152.823.823,0,0,0,.71.317c1.292-.085,2.195,1.27,3.82,1.076a.922.922,0,0,0,.9-.9c-.053-1.343-1.873-2.507-3.1-2.757-.5-.1-.975.137-1.453.1a12.919,12.919,0,0,1-1.414-.195,7.408,7.408,0,0,0,2.96-2.271c.712-1,1.225-3.474-.717-3.457-1.538.013-3.417,1.334-4.4,2.424-.524.578-1.511,1.757-1.317,2.657a25.035,25.035,0,0,0-4.144-.2,22.464,22.464,0,0,0,1.721-2.9.953.953,0,0,0-.81-1.411c-1.794-.148-4.046,2.735-4.047,4.636a14.77,14.77,0,0,0-7.612,3.521c.015-.717.038-1.433.042-2.152.448-1.9.52-3.911.9-5.84.015-.076.034-.152.049-.228a15.142,15.142,0,0,0,1.844-.708,8.761,8.761,0,0,0,1.884-1.148c.771-.593,2.107-1.453,1.5-2.641-.6-1.167-2.1-.455-2.933-.035a6.254,6.254,0,0,0-1.455,1.027q.34-1.253.712-2.5a1.1,1.1,0,0,0,.4-.22,16.66,16.66,0,0,0,2.932-2.891c.614-.864.9-2.82-.176-3.494-1.126-.706-2.052.524-2.62,1.3a13.575,13.575,0,0,0-1.057,1.6,17.74,17.74,0,0,0-.938-2.127c-.318-.637-.582-1.519-1.337-1.732a1.064,1.064,0,0,0-1.28.487c-.52.947.12,2.486.416,3.427a4.135,4.135,0,0,0,1.265,2.3,1.3,1.3,0,0,0,.709.272c-.214.585-.416,1.195-.609,1.817-.329-.474-.685-.944-1.034-1.395-.5-.648-1.542-1.621-2.373-.9-.849.737.18,2.271.69,2.928a8.457,8.457,0,0,0,1.274,1.427c.217.176.467.389.731.568a28.62,28.62,0,0,0-.826,8.194,11.929,11.929,0,0,0-3.852-2.307,1.043,1.043,0,0,0-.459-.193c-.914-.381-1.762-.715-2.358-1.036-.364-.2-.753-.38-1.148-.56.288-.593.712-1.172.944-1.779a5.706,5.706,0,0,0,.6-2.822,1.006,1.006,0,0,0-1.255-.956c-1.343.441-1.849,2.46-2.34,3.628-.114.27-.223.571-.337.873a18.9,18.9,0,0,1-1.88-.941.9.9,0,0,0,.01-.14c.73-1.862,1.674-2.917,1.009-5.107a.959.959,0,0,0-1.589-.42c-.875.994-.9,2.159-1.266,3.409a5.537,5.537,0,0,1-.221.59,8.49,8.49,0,0,0-3.98-2.76.919.919,0,0,0-1.119,1.118c.376,1.859,2.012,2.586,3.467,3.463a6.285,6.285,0,0,0-3.389,2.523.958.958,0,0,0,.34,1.3c1.429.687,3.266-.6,4.331-1.513a7,7,0,0,0,.965-1.019c.733.369,1.515.665,2.271,1.019.065.031.13.064.2.1a4.773,4.773,0,0,0-2.164,2.171c-.22.584.335,1.063.848,1.114a2.219,2.219,0,0,0,1.7-.878c.41-.394,1.127-.908,1.595-1.434.924.465,1.85.932,2.783,1.37-.388.363-.773.728-1.129,1.124a1.035,1.035,0,0,0,.105,1.539.994.994,0,0,0,1.341-.1l.013.018c.385-.389.79-.753,1.2-1.112.206-.178.427-.354.635-.541,1.814.683,3.087.983,4.05,2.757-.531,3.01-1.109,6.019-1.377,9.018-.15,1.676-.3,3.348-.449,5.018-1.771-1.328-5.235-1.69-8.065-1.632a.773.773,0,0,0,.409-.71,2.836,2.836,0,0,0-.628-1.621,5.561,5.561,0,0,1-.772-1.812c-.219-.857-.779-1.925-1.855-1.536-2.272.822-.66,4.341.8,5.8-.545.056-1.029.125-1.409.2a20.869,20.869,0,0,0-2.715.8c-.114-.156-.357-.414-.585-.761a5.081,5.081,0,0,0-1.645-1.635,4.711,4.711,0,0,0-4.048-.317,1.019,1.019,0,0,0,0,1.946,9.254,9.254,0,0,1,3.133,1.955l-.223.084c-1.847.677-3.76,1.27-3.682,3.5a.789.789,0,0,0,1.175.674c1.165-.64,2.463-1.6,3.76-2.166a5.5,5.5,0,0,0-.211.616c-.264.945-.52,3.02.556,3.546,1.27.621,1.925-.739,2.217-1.705a13.625,13.625,0,0,0,.812-4.018,1.008,1.008,0,0,0-.015-.167c.876-.283,1.6-.495,1.958-.583.424-.1.883-.19,1.365-.262a4.626,4.626,0,0,0-1.1,1.776c-.276.808-.466,2.389.208,3.069,1.056,1.066,2.03-.306,2.423-1.207.422-.965,1.229-2.651,1.009-3.841a13.83,13.83,0,0,1,7,1.481c-.363,4.33-.65,8.656-.65,13.04,0,2.906.257,5.792.477,8.683a14.225,14.225,0,0,0-4.131-2.952,11.582,11.582,0,0,0-3.64-.9.921.921,0,0,0-.236-.2c-.643-1.609-1.291-6.173-3.44-4.283-1.155,1.015-.633,2.969.413,4.256l-.045,0c-2.02-.162-3.855-1.06-5.826-.8a13.052,13.052,0,0,0-1.024-1.009,10.376,10.376,0,0,0-2.64-1.5.948.948,0,0,0-1.186.9,1.944,1.944,0,0,0,.943,1.789c-2.034.576-3.9,1.82-3.253,3.378a.9.9,0,0,0,.828.63,12.458,12.458,0,0,0,5.1-1.531c-.284.285-.544.623-.79.893-.759.834-1.729,2.2-1.043,3.371.822,1.4,2.334.2,3.034-.634a14.067,14.067,0,0,0,1.453-2.056,7.666,7.666,0,0,0,.516-1.116,3.623,3.623,0,0,0,.15-.5c.031-.143.153-.431.026-.225a1.215,1.215,0,0,0,.09-.185,11.775,11.775,0,0,0,1.577.5,13.434,13.434,0,0,0,2.069.228c-.075.059-.135.107-.162.134a5.281,5.281,0,0,0-1.141,1.543,2.9,2.9,0,0,0-.093,2.648,1.068,1.068,0,0,0,1.441.377,22.948,22.948,0,0,0,3.624-3.88.91.91,0,0,0,.313-.513c.242.05.483.1.724.177a11.257,11.257,0,0,1,5.905,4.107c.221.286.43.565.642.838.014.919-.026,1.836-.079,2.753.041-.734-3.834-2.7-4.462-2.329l-.2.119c-1.951,1.144,1.871,4.04,2.579,4.7a5.088,5.088,0,0,0,1.916,1.23,23.843,23.843,0,0,1-.261,5.12c-.8,3.791-1.933,7.921-.273,11.653.928,2.08,2.8-2.307,2.912-2.885.425-2.184-.372-4.434-.016-6.568a39.135,39.135,0,0,0,.9-6.724c0-.556-.017-1.111-.032-1.665,1.284-.624,2.535-1.331,3.813-1.973a.888.888,0,0,0-.445-1.643,28.355,28.355,0,0,0-3.529.055q-.089-1.491-.2-2.981a13.864,13.864,0,0,1,.974-1.628,9.964,9.964,0,0,1,2.453-2.083,10.742,10.742,0,0,1,1.757-.828c-.616,1.129.115,2.688.922,3.585,1.084,1.208,2.876,2.711,4.633,2.512a1.2,1.2,0,0,0,1.017-1.773,9.1,9.1,0,0,0-.877-1.328c-.35-.521-.646-1.077-1-1.592a9.177,9.177,0,0,0-1.9-2.134c.234-.04.47-.077.706-.111a27.918,27.918,0,0,1,4.612-.256c-.031.063-.061.126-.086.19a3.116,3.116,0,0,0,.178,2.489c.755,1.706,2.976,4.336,5.053,4.12a1.054,1.054,0,0,0,1-1.309,3.882,3.882,0,0,0-.831-1.331c-.538-.771-1.171-1.5-1.645-2.313a9.3,9.3,0,0,0-1.182-1.712c.68.055,1.362.12,2.054.195a.249.249,0,0,0,.02.2q.119.188.239.366a.934.934,0,0,0,.543.738,6.285,6.285,0,0,0,1.715,1.472,16.155,16.155,0,0,0,3.631,1.344,2.289,2.289,0,0,0,1.057.145C2833.992,316.392,2833.747,314.937,2833.563,314.214Z" transform="translate(-2780.871 -256.379)" fill="#608d5c"/>
        <path id="Tracé_5555" data-name="Tracé 5555" d="M2802.291,277.96c-.437-1.3-1.738-1.218-2.768-.756a1.237,1.237,0,0,1-.577.153c-.528-.035-1-.477-1.565-.534a2.058,2.058,0,0,0-2.06,1.517,4.044,4.044,0,0,0,.7,3.194,4.127,4.127,0,0,0,4.869.822C2802.452,281.59,2802.808,279.5,2802.291,277.96Z" transform="translate(-2784.687 -261.809)" fill="#c93d2e"/>
        <path id="Tracé_5556" data-name="Tracé 5556" d="M2829.041,304.633c-.437-1.3-1.738-1.218-2.768-.755a1.244,1.244,0,0,1-.577.153c-.528-.034-1-.477-1.565-.534a2.058,2.058,0,0,0-2.06,1.517,4.043,4.043,0,0,0,.7,3.194,4.126,4.126,0,0,0,4.868.822C2829.2,308.263,2829.558,306.17,2829.041,304.633Z" transform="translate(-2791.793 -268.895)" fill="#f26555"/>
        <path id="Tracé_5557" data-name="Tracé 5557" d="M2806.291,335.54c-.437-1.3-1.738-1.218-2.768-.755a1.255,1.255,0,0,1-.576.153c-.528-.035-1-.478-1.566-.535a2.057,2.057,0,0,0-2.059,1.517,4.043,4.043,0,0,0,.7,3.194,4.127,4.127,0,0,0,4.868.822C2806.452,339.171,2806.808,337.077,2806.291,335.54Z" transform="translate(-2785.749 -277.106)" fill="#c93d2e"/>
        <path id="Tracé_5558" data-name="Tracé 5558" d="M2815.379,341.083c-.352-1.048-1.4-.983-2.233-.61a1.008,1.008,0,0,1-.466.124c-.426-.028-.805-.386-1.264-.431a1.661,1.661,0,0,0-1.662,1.224,3.263,3.263,0,0,0,.564,2.578,3.331,3.331,0,0,0,3.928.663A2.918,2.918,0,0,0,2815.379,341.083Z" transform="translate(-2788.525 -278.637)" fill="#f26555"/>
        <path id="Tracé_5559" data-name="Tracé 5559" d="M2834.213,282.6c-.352-1.048-1.4-.982-2.233-.609a1.007,1.007,0,0,1-.466.124c-.426-.028-.805-.385-1.263-.431a1.661,1.661,0,0,0-1.662,1.224,3.267,3.267,0,0,0,.564,2.577,3.33,3.33,0,0,0,3.929.663A2.918,2.918,0,0,0,2834.213,282.6Z" transform="translate(-2793.529 -263.099)" fill="#c93d2e"/>
      </g>
      <path id="Tracé_5560" data-name="Tracé 5560" d="M2818.51,369.669l.028-.021a2.215,2.215,0,0,0-2.536-.526c-.713.225-1.362.685-2.074.94-1.8.646-2.174.053-3.686-.518-3.225-1.217-9.967-1.53-10.628,3.073a1.116,1.116,0,0,0,.495,1.215c1.773.909,3.478-.209,5.3-.484,2.2-.333,3.664.572,5.695.678,2.085.109,3.5-1.021,5.127-2.066a18.788,18.788,0,0,0,2.313-1.308A.625.625,0,0,0,2818.51,369.669Z" transform="translate(-2785.845 -286.237)" fill="#662910"/>
    </g>
    <g id="Groupe_871" data-name="Groupe 871" transform="translate(2796.188 238)">
      <g id="Groupe_870" data-name="Groupe 870">
        <path id="Tracé_5561" data-name="Tracé 5561" d="M2899.261,305.419c-.437-1.3-1.738-1.218-2.768-.756a1.244,1.244,0,0,1-.576.154c-.528-.035-1-.477-1.566-.535a2.058,2.058,0,0,0-2.059,1.517,4.044,4.044,0,0,0,.7,3.194,4.126,4.126,0,0,0,4.868.822C2899.423,309.049,2899.778,306.956,2899.261,305.419Z" transform="translate(-2871.676 -266.868)" fill="#f26555"/>
        <path id="Tracé_5562" data-name="Tracé 5562" d="M2916.745,312.789a4.965,4.965,0,0,0-2.54-1.7c.739.11,1.222-.958.813-1.583a1.838,1.838,0,0,0-2.018-.568,10.548,10.548,0,0,0-2.006.987c-2.066,1.066-4.493,1.079-6.817,1.069a4.954,4.954,0,0,0,1.342-2.518c.093-.962-.643-2.061-1.6-1.959-1.306.138-1.489,1.93-2.143,3.069-1.705,2.97-7.231,1.643-8.727,4.723l1.452-14.847a4.457,4.457,0,0,1,1.108-3.047c.746-.649,2.066-1.082,1.891-2.056a1.206,1.206,0,0,0-1.472-.791,3.5,3.5,0,0,0-1.544,1.011l-.093-1.92a13.257,13.257,0,0,1,7.036-.909,8.857,8.857,0,0,0,1.132,4.621,1.7,1.7,0,0,0,.98.922c.889.2,1.512-.908,1.552-1.82a5.152,5.152,0,0,0-1.049-3.326,15.672,15.672,0,0,1,3.167,1.07,13.944,13.944,0,0,0,.586,4.646,2.161,2.161,0,0,0,.8,1.287c.8.493,1.907-.213,2.174-1.116a4.673,4.673,0,0,0-.335-2.758l3.194,2.071c.4.258.919.518,1.313.256a.987.987,0,0,0,.352-.852c-.011-1.822-1.976-2.912-3.659-3.608l3.187-1.71a1.513,1.513,0,0,0,.826-.773c.206-.678-.58-1.237-1.27-1.4a5.423,5.423,0,0,0-5.781,2.5l-3.968-1.3c.6-1.081,1.649-1.9,2.079-3.064s-.327-2.876-1.541-2.63a2.11,2.11,0,0,0-1.173.9,8.277,8.277,0,0,0-1.653,4.515,13.35,13.35,0,0,0-7.844.926c.248-.111-.3-5.317-.325-5.928-.022-.582-.027-1.166-.046-1.748.678-1.032,1.353-2.148,2.147-3.136a4.186,4.186,0,0,0,.635.51,4.839,4.839,0,0,0,1.669,1.574c.617.3,1.622.461,2.042-.242.475-.8-.5-1.432-.952-1.94a14.957,14.957,0,0,1-1.011-1.282c-.117-.166-.237-.346-.365-.521a9.659,9.659,0,0,1,2.985-1.37c.051-.014.113-.033.168-.049a5.644,5.644,0,0,0,.976,1.771c.065.091.135.187.206.285a14.7,14.7,0,0,0,.946,1.359.978.978,0,0,0,1.775-.153,3.094,3.094,0,0,0-.3-2.654,4.771,4.771,0,0,0-1.075-1.29,3.31,3.31,0,0,1,1.049-.048.845.845,0,0,0,.122.007.744.744,0,0,0,.078.073c1.5,1.035,4.086,1.6,5.6.372a.662.662,0,0,0,.642-.647c-.047-3.318-4.786-1.475-6.417-1.6-.087-.007-.178-.007-.267-.01a4.438,4.438,0,0,0,.93-1.591c.248-.784.324-2.427-.931-2.347-1.017.065-1.918,1.492-2.316,2.288a4.177,4.177,0,0,0-.493,2.013,15.343,15.343,0,0,0-3.456,1.416c.175-.713.312-1.442.47-2.128.165-.72.007-1.877-.964-1.861-1.089.018-1.331,1.6-1.454,2.4a4.721,4.721,0,0,0,.081,2.091c-.076.315-.019.632-.253.886-.543.59-2.335,2.126-2.335,2.989-.045-2.366-.065-4.733-.036-7.1.256-1.409.132-2.925.317-4.344a11.8,11.8,0,0,1,1.043-3.536,7.815,7.815,0,0,0,2.249-.871c1-.68,1.432-2.426.367-3a1.977,1.977,0,0,0-2.128.494c-.325-1.129.679-2.215,1.728-2.743s2.273-.817,3.066-1.682.7-2.63-.451-2.865a1.928,1.928,0,0,0-1.207.238,5.041,5.041,0,0,0-2.217,2.137,9.973,9.973,0,0,0-1.914-3.243,1.6,1.6,0,0,0-1.414-.71c-.693.157-.895,1.054-.82,1.761a5.675,5.675,0,0,0,2.392,4.017,79.273,79.273,0,0,0-2.39,7.619,14.919,14.919,0,0,1-1.3-2.381c-.494-.761-1.681-1.261-2.271-.571a1.381,1.381,0,0,0-.286.761c-.151,1.467.984,2.707,1.935,3.835s1.823,2.7,1.127,4a2.948,2.948,0,0,0-.779-1.784c-.505-.429-1.474-.321-1.624.325a1.476,1.476,0,0,0,.242.974l2.2,4.244a75.618,75.618,0,0,0-6.931-3.145,5.489,5.489,0,0,0-2.752-4.6c-.659-.369-1.748-.424-1.924.311a1.4,1.4,0,0,0,.185.88l1.248,2.75-3.892-.117a7.454,7.454,0,0,0-4.706-5.223,1.95,1.95,0,0,0-1.565-.031c-.8.444-.743,1.627-.4,2.475a6.765,6.765,0,0,0,2.883,3.3c-1.31-.749-4.95-.094-5.354,1.566-.6,2.472,3.535,1.436,4.613.938-.866.963-1.79,2.286-1.2,3.439.646,1.26,2.684,1.057,3.586-.035a6.522,6.522,0,0,0,1.03-4.037,21.232,21.232,0,0,1,5.255.141,6.221,6.221,0,0,0-1.907,3.762c-.1.8.09,1.8.85,2.073.708.255,1.447-.288,1.937-.859a8.219,8.219,0,0,0,1.919-4.464c2.632.392,5.68,1.083,6.785,3.5a8.079,8.079,0,0,1,.443,3.638q-.135,4.192-.271,8.385a9.358,9.358,0,0,0-3.22-2,10.146,10.146,0,0,0-2.453-4.714c-.646-.7-2.019-1.173-2.345-.281a1.523,1.523,0,0,0,.265,1.2l1.768,3.254-4.165-.1a6.515,6.515,0,0,0-5.787-4.5,1.942,1.942,0,0,0-1.017.167c-1.107.6-.451,2.4.635,3.045s2.484.845,3.265,1.835a18.685,18.685,0,0,0-5.264.132,6.3,6.3,0,0,0-4.255,2.86,1.235,1.235,0,0,0-.195.909c.174.612,1,.692,1.632.621a20.925,20.925,0,0,0,8.365-2.831c.263,1.213-.806,2.251-1.626,3.185s-1.394,2.538-.4,3.278c.936.7,2.248-.153,2.941-1.09a9.292,9.292,0,0,0,1.811-5.549,11.415,11.415,0,0,1,4.362.149,25.576,25.576,0,0,0-2.1,4.769c-.244.756-.405,1.71.187,2.24.717.642,1.865.084,2.531-.612a7.442,7.442,0,0,0,2.025-5.545,2.439,2.439,0,0,1,2.9,1.461,7.1,7.1,0,0,1,.311,3.534q-.706,8.632-1.413,17.266a17.082,17.082,0,0,0-5.607-4.2,7.137,7.137,0,0,0-1.856-6.119,2.247,2.247,0,0,0-1.966-.859c-1.107.245-1.4,1.758-1.01,2.823a29.6,29.6,0,0,1,1.448,3.064,6.178,6.178,0,0,1-6.34-2.737,9.642,9.642,0,0,0-1.8-2.765c-.868-.688-2.533-.457-2.636.645a2.217,2.217,0,0,0,.61,1.448l2.463,3.278a15.419,15.419,0,0,0-5.441-.067,5.234,5.234,0,0,0-3.991,3.354,1.953,1.953,0,0,0,.094,1.52c.662,1.11,2.35.65,3.5.057l6.567-3.394-3.555,4.643a1.735,1.735,0,0,0-.448.924c-.045.985,1.389,1.24,2.321.919a6.643,6.643,0,0,0,4.361-6.195,24,24,0,0,1,5.077.746,24.259,24.259,0,0,0-3.873,4.441,1.806,1.806,0,0,0-.4.978c0,.92,1.227,1.279,2.137,1.146a6.132,6.132,0,0,0,5.071-5.487,6.546,6.546,0,0,1,4.278,7.72l-3.27-.253a1.349,1.349,0,0,0-.924.151c-.5.374-.219,1.22.3,1.563a15.921,15.921,0,0,0,1.733.681c1.614.809,1.79,3,1.747,4.808l-.22,9.184c-.052,2.185.064,4.733,1.833,6.016,2.478-2.131,2.137-6,1.565-9.212s-.966-7.06,1.461-9.249c1.083-.976,2.591-1.449,3.5-2.585a1.219,1.219,0,0,0,.266-1.359,1.247,1.247,0,0,0-.921-.45,4.694,4.694,0,0,0-4.25,1.767c-.718-2.029,1.159-3.979,2.87-5.285s4.177-2.547,5.772-1.127c.8.712,1.02,1.86,1.58,2.774s1.93,1.57,2.655.782a1.8,1.8,0,0,0,.325-1.46,4.634,4.634,0,0,0-1.449-2.8,10.575,10.575,0,0,0,3.723-.444,8.775,8.775,0,0,0,2.458,4.849,2.157,2.157,0,0,0,.921.615c1.046.28,1.969-1,1.79-2.066a4.943,4.943,0,0,0-1.826-2.612,14.18,14.18,0,0,0,3.806,1.6,2.273,2.273,0,0,0,1.077.085C2917.021,315.113,2917.294,313.67,2916.745,312.789Z" transform="translate(-2864.248 -253.335)" fill="#608d5c"/>
        <path id="Tracé_5563" data-name="Tracé 5563" d="M2915.457,335.54c-.437-1.3-1.738-1.218-2.768-.755a1.254,1.254,0,0,1-.577.153c-.528-.035-1-.478-1.566-.535a2.058,2.058,0,0,0-2.059,1.517,4.043,4.043,0,0,0,.7,3.194,4.128,4.128,0,0,0,4.869.822C2915.619,339.171,2915.975,337.077,2915.457,335.54Z" transform="translate(-2875.979 -274.871)" fill="#c93d2e"/>
        <path id="Tracé_5564" data-name="Tracé 5564" d="M2889.9,330.8c-.352-1.048-1.4-.983-2.233-.609a1.008,1.008,0,0,1-.466.124c-.426-.028-.806-.386-1.264-.431a1.661,1.661,0,0,0-1.662,1.224,3.267,3.267,0,0,0,.564,2.577,3.331,3.331,0,0,0,3.929.663A2.918,2.918,0,0,0,2889.9,330.8Z" transform="translate(-2869.551 -273.67)" fill="#f26555"/>
        <path id="Tracé_5565" data-name="Tracé 5565" d="M2889.9,302.365c-.352-1.048-1.4-.983-2.233-.609a1.008,1.008,0,0,1-.466.124c-.426-.028-.806-.386-1.264-.432a1.661,1.661,0,0,0-1.662,1.225,3.267,3.267,0,0,0,.564,2.578,3.331,3.331,0,0,0,3.929.663A2.918,2.918,0,0,0,2889.9,302.365Z" transform="translate(-2869.551 -266.116)" fill="#c93d2e"/>
        <path id="Tracé_5566" data-name="Tracé 5566" d="M2916.713,285.1c-.352-1.048-1.4-.983-2.233-.609a1.007,1.007,0,0,1-.466.123c-.426-.027-.806-.385-1.263-.431a1.661,1.661,0,0,0-1.662,1.225,3.266,3.266,0,0,0,.564,2.577,3.33,3.33,0,0,0,3.929.664A2.918,2.918,0,0,0,2916.713,285.1Z" transform="translate(-2876.674 -261.53)" fill="#c93d2e"/>
        <path id="Tracé_5567" data-name="Tracé 5567" d="M2884.776,280.827c-.352-1.048-1.4-.983-2.233-.609a1.008,1.008,0,0,1-.466.124c-.426-.028-.806-.385-1.264-.431a1.661,1.661,0,0,0-1.662,1.224,3.267,3.267,0,0,0,.564,2.578,3.33,3.33,0,0,0,3.929.663A2.918,2.918,0,0,0,2884.776,280.827Z" transform="translate(-2868.189 -260.394)" fill="#f26555"/>
      </g>
      <path id="Tracé_5568" data-name="Tracé 5568" d="M2911.63,369.781c-2.281-1.56-4.764-1.088-7.371-.952a17.149,17.149,0,0,0-4.553.416,8.968,8.968,0,0,0-1.305.606c-.8.414-.6.524-.75.512-.655-.057-1.351-.9-2.231-.916a4.52,4.52,0,0,0-2.828,1.1c-1.065.858-1.98,2.229-1.429,3.627a.843.843,0,0,0,1.221.5l.456-.285a.671.671,0,0,0,.292-.408,2.967,2.967,0,0,1,1.1-.632c2.053-.5.532.172,1.851.463a5.35,5.35,0,0,0,3.4-.3c3.89-1.245,8.518.015,12.147-2.312A.829.829,0,0,0,2911.63,369.781Z" transform="translate(-2871.355 -283.972)" fill="#662910"/>
    </g>
    <g id="Groupe_872" data-name="Groupe 872" transform="translate(2689.848 228.228)">
      <path id="Tracé_5569" data-name="Tracé 5569" d="M2738.946,271.84s3.633,11.7,4.55,12.8,10.875,4.406,10.875,4.406l-2.278,10.464s-15.757-3.4-18.327-4.957-6.609-15.229-6.609-15.229Z" transform="translate(-2721.488 -248.48)" fill="#ff8426"/>
      <path id="Tracé_5570" data-name="Tracé 5570" d="M2738.413,265.445c-.292.783-12.515,7.445-13.359,7.524-.3.023-1.236-1.644-2.326-3.813-1.291-2.55-1.477-7.512-2.408-9.557-.54-1.185-.883-1.966-.883-1.966l3.077-6.948,7-10.657s2.569,5.232,3.127,6.278c1.567,2.936,4.094,14.087,4.7,15.846S2738.7,264.662,2738.413,265.445Z" transform="translate(-2719.436 -240.029)" fill="#f2e2c2"/>
      <path id="Tracé_5571" data-name="Tracé 5571" d="M2760.047,306c-.895-1.124,1.9-12.484,2.513-12.606s10.77,2.937,11.994,2.815,8.935-1.652,11.5-.857,5.018,3.978,3.549,7.038-6.119,3.182-9.485,3.365c-1.528.083-3.755-.428-4.325-.306S2760.941,307.129,2760.047,306Z" transform="translate(-2730.179 -254.207)" fill="#36312f"/>
    </g>
    <g id="Groupe_873" data-name="Groupe 873" transform="translate(2608.897 292.414)">
      <path id="Tracé_5572" data-name="Tracé 5572" d="M2634.166,333.2a93.321,93.321,0,0,1-16.1-1.121c-7.242-1.425-8.756-3.989-8.816-4.1a.367.367,0,0,1,.639-.362c.025.042,1.5,2.4,8.32,3.738,6.965,1.37,19.558,1.27,26.276.764,13.527-1.022,18.517-3.9,18.566-3.928a.367.367,0,0,1,.374.632c-.2.121-5.188,2.992-18.885,4.028C2641.8,333.062,2638.082,333.2,2634.166,333.2Z" transform="translate(-2609.199 -327.435)" fill="#f2c588"/>
    </g>
    <g id="Groupe_875" data-name="Groupe 875" transform="translate(2611.093 287.611)">
      <g id="Groupe_874" data-name="Groupe 874" transform="translate(0 0)" clip-path="url(#clip-path)">
        <path id="Tracé_5573" data-name="Tracé 5573" d="M2612.2,324.754c.306-.734,10.1-3.978,25.824-3.855s24.293,3.121,24.783,3.855-9.424,3.3-25.885,3.61S2611.891,325.488,2612.2,324.754Z" transform="translate(-2612.188 -320.895)" fill="#f2c588"/>
        <path id="Tracé_5574" data-name="Tracé 5574" d="M2629.469,326.657a1.227,1.227,0,0,0-.779-.8,1.848,1.848,0,0,0-1.085.117,2.1,2.1,0,0,1-1.173.016,2.3,2.3,0,0,0-1.6-.145,1.69,1.69,0,0,0-.989,1.115,3.265,3.265,0,0,0,.564,2.577,3.33,3.33,0,0,0,3.929.664A2.919,2.919,0,0,0,2629.469,326.657Z" transform="translate(-2615.267 -322.185)" fill="#f26555"/>
        <path id="Tracé_5575" data-name="Tracé 5575" d="M2650.131,328.714a1.3,1.3,0,0,0-.919-.7,4.209,4.209,0,0,0-1.3.011,8.763,8.763,0,0,1-1.781-.209,1.661,1.661,0,0,0-1.662,1.224,3.267,3.267,0,0,0,.564,2.578,3.331,3.331,0,0,0,3.929.663A3.124,3.124,0,0,0,2650.131,328.714Z" transform="translate(-2620.746 -322.732)" fill="#c93d2e"/>
        <path id="Tracé_5576" data-name="Tracé 5576" d="M2637.789,326.581c.1-1.244-1.1-1.513-2.054-1.781a3.46,3.46,0,0,1-1.079-.463,10.33,10.33,0,0,0-.925-.744,2.057,2.057,0,0,0-2.492.577,4.042,4.042,0,0,0-.624,3.209,4.127,4.127,0,0,0,4.144,2.683C2636.5,329.978,2637.655,328.2,2637.789,326.581Z" transform="translate(-2617.055 -321.557)" fill="#c93d2e"/>
        <path id="Tracé_5577" data-name="Tracé 5577" d="M2657.333,325.213a1.484,1.484,0,0,0-1.354-1.029c-.85-.047-1.5.623-2.373.4-.638-.162-1.289-.546-1.972-.275a2.1,2.1,0,0,0-1.26,1.436,4.044,4.044,0,0,0,.769,3.177,4.127,4.127,0,0,0,4.885.715C2657.574,328.838,2657.884,326.738,2657.333,325.213Z" transform="translate(-2622.314 -321.768)" fill="#f26555"/>
        <path id="Tracé_5578" data-name="Tracé 5578" d="M2662.778,323.381a1.5,1.5,0,0,0-1.521.354c-.512.488-.541,1.243-.947,1.8-.358.488-.971.673-1.372,1.113a2.058,2.058,0,0,0-.01,2.558,4.043,4.043,0,0,0,2.981,1.344,4.127,4.127,0,0,0,3.562-3.418C2665.789,325.416,2664.32,323.883,2662.778,323.381Z" transform="translate(-2624.489 -321.536)" fill="#c93d2e"/>
      </g>
    </g>
    <path id="Tracé_5580" data-name="Tracé 5580" d="M2722.909,273.676a12.034,12.034,0,0,1-1.825-3.17c-.347-.655-.646-1.292-1.007-1.935a16.907,16.907,0,0,1-1.818-6.384c-.139-1.006-.062-2.052-.3-3.045a17.381,17.381,0,0,0-1-2.658,10.294,10.294,0,0,1,.093-8.285.362.362,0,0,0,.091-.211l.006-.081a.369.369,0,0,0-.684-.185,11.063,11.063,0,0,0-.994,6.349,17.1,17.1,0,0,0,1.366,4.043,15.2,15.2,0,0,1,.633,3.811,17.894,17.894,0,0,0,1.8,6.684c.416.76.748,1.513,1.182,2.266.591,1.021,1.055,2.532,1.941,3.319C2722.743,274.508,2723.264,273.991,2722.909,273.676Z" transform="translate(-28.509 -13.798)" fill="#d9c08d"/>
    <path id="Tracé_5581" data-name="Tracé 5581" d="M2739.087,352.174c-.442-.949-2.574-1.3-3.5-1.46-1.425-.245-2.939.181-4.373.184-1.358,0-2.66.154-4.012.276a16.055,16.055,0,0,1-4.107.089c-1.012-.158-2.024-.393-3.044-.472a36.332,36.332,0,0,0-7.227.345c-.463.057-.469.792,0,.734A49.147,49.147,0,0,1,2719,351.5c2.18,0,4.249.72,6.44.609,2.163-.11,4.287-.406,6.453-.477,1.629-.054,2.9-.355,4.523.1.468.132,1.824.347,2.039.808C2738.651,352.973,2739.285,352.6,2739.087,352.174Z" transform="translate(-27.738 -41.186)" fill="#f57f25"/>
    <path id="Tracé_5582" data-name="Tracé 5582" d="M2803.292,369.3c-1.7-.569-7.384,1.074-7.957,1.121-1.588.131-2.9-1.207-4.593-1.146-.289.01-3.292.961-2.992,1.333-.3-.368-.813.154-.519.52l.1.121a.362.362,0,0,0,.357.095,19.414,19.414,0,0,0,1.955-1.046c2.17-.891,3.275.758,5.193,1.02a8.346,8.346,0,0,0,3.162-.742,10.844,10.844,0,0,1,3.2-.631c.8.013,2.476,1.021,2.578-.055C2803.795,369.6,2803.616,369.413,2803.292,369.3Z" transform="translate(-47.576 -46.113)" fill="#8f482b"/>
    <path id="Tracé_5583" data-name="Tracé 5583" d="M2839.456,369.922c-2.273-.069-4.273.416-6.524-.209-2.129-.592-3.922.226-6.081.212-1.709-.011-3.34-1.318-5.115-1.057a20.645,20.645,0,0,0-2.536.767c-.381.11-.8.134-.9.556-.111.46.6.656.708.2.008-.032,1.576-.341,1.791-.413a4.913,4.913,0,0,1,3.239-.043,9.638,9.638,0,0,0,1.831.692,11.862,11.862,0,0,0,2.882.037,17.03,17.03,0,0,1,2.587-.518,15.306,15.306,0,0,1,2.411.595c1.949.331,3.788-.14,5.711-.081C2839.929,370.671,2839.929,369.937,2839.456,369.922Z" transform="translate(-55.849 -46.02)" fill="#8f482b"/>
    <path id="Tracé_5584" data-name="Tracé 5584" d="M2822.09,382.021a29.994,29.994,0,0,0-4.5-.859c-1.63-.08-3.115.579-4.752.493s-3.243-.482-4.892-.108a24.664,24.664,0,0,1-5.293.828.367.367,0,0,0,0,.734,9.188,9.188,0,0,0,2.077-.265c.638-.13,1.238-.054,1.888-.156a22.684,22.684,0,0,1,2.708-.557,16.6,16.6,0,0,1,2.63.168,13.741,13.741,0,0,0,4.311-.273c1.948-.388,3.748.33,5.625.7C2822.356,382.82,2822.554,382.113,2822.09,382.021Z" transform="translate(-51.603 -49.293)" fill="#8f482b"/>
    <path id="Tracé_5585" data-name="Tracé 5585" d="M2879.7,362.52a8.27,8.27,0,0,1-3.883-.55,5.142,5.142,0,0,0-1.574-.676c-1.777-.275-3.295.583-5.01.8a10.633,10.633,0,0,1-3.145-.41,14.184,14.184,0,0,0-2.3-.023c-.183,0-2.852.353-2.559.72-.295-.369-.812.154-.519.519l.132.164a.371.371,0,0,0,.445.057,6.9,6.9,0,0,1,3.88-.754c1.59.046,2.893.747,4.5.413,2.056-.427,3.729-1.274,5.771-.178,1.427.767,2.609.651,4.253.651A.367.367,0,0,0,2879.7,362.52Z" transform="translate(-67.098 -44.003)" fill="#8f482b"/>
    <path id="Tracé_5586" data-name="Tracé 5586" d="M2894.158,378.731a35.23,35.23,0,0,0-4.1-.818,17.545,17.545,0,0,0-4.752.128,34.431,34.431,0,0,0-4.853,1.614,10.009,10.009,0,0,1-6.138-.147,7.331,7.331,0,0,0-3.167-.134c-1.541.27-3.036,1.016-4.618.876-1.744-.155-3.294-1.013-5.088-1.1a11.364,11.364,0,0,0-3.984.7c-.448.141-.288.858.165.716a10.884,10.884,0,0,1,4.6-.62c1.653.19,3.134,1.037,4.806,1.063a23.192,23.192,0,0,0,4.255-.855c1.645-.294,2.813.211,4.407.527,3.146.622,5.666-.72,8.586-1.616a14.835,14.835,0,0,1,5.464-.443c1.579.117,3.1.9,4.686.818a.376.376,0,0,0,.365-.254l.025-.1C2894.842,378.984,2894.576,378.86,2894.158,378.731Z" transform="translate(-66.186 -48.405)" fill="#8f482b"/>
    <path id="Tracé_5587" data-name="Tracé 5587" d="M2923.653,367.427a37.166,37.166,0,0,1-4.958-.61c-1.672-.191-3.466.77-5.055.179a8.358,8.358,0,0,0-3.633-.678,5.668,5.668,0,0,0-1.906.259c-.575.216-1.091.708-1.679.863a.367.367,0,0,0,.2.708,6.92,6.92,0,0,0,1.126-.581,7.016,7.016,0,0,1,3.111-.539c1.539.022,2.567.93,4.071.9a26.134,26.134,0,0,1,4.529-.211,26.4,26.4,0,0,0,4.2.449A.367.367,0,0,0,2923.653,367.427Z" transform="translate(-79.195 -45.35)" fill="#8f482b"/>
  </g>
</svg>
