<svg xmlns="http://www.w3.org/2000/svg" width="168" height="162.016" viewBox="0 0 168 162.016">
  <g id="ferme-valeur-illu-2" transform="translate(-2032.872 -503.401)">
    <g id="Groupe_887" data-name="Groupe 887" transform="translate(2032.872 640.151)">
      <path id="Tracé_5696" data-name="Tracé 5696" d="M2196.588,805.277c-3.777-2.365-8.464-2.781-12.769-2.491a62.518,62.518,0,0,1-15.723-1.192,239.921,239.921,0,0,0-27.79-3.073c-10.126-.687-20.234-1.932-30.4-1.766-11.235.184-22.38,2.053-33.623,2.008-5.716-.023-11.019-1.5-16.611-1.955-4.883-.4-10.224,1.12-14.749,2.837-2.476.937-4.852,1.615-6.982,3.269a14.238,14.238,0,0,0-4.87,6.856c-2.173,8.66,14.084,8.459,18.953,8.613,7.562.238,15.121-.437,22.682-.191,7.283.237,14.383,1.629,21.573,2.693,13.936,2.064,28.751.666,42.811.577,14.145-.089,28.354-.4,42.4-2.233,2.016-.263,3.99-.331,6.014-.485a46.791,46.791,0,0,0,8.041-1.383,7.054,7.054,0,0,0,5.161-4.844C2201.545,809.242,2199.1,806.85,2196.588,805.277Z" transform="translate(-2032.873 -796.74)" fill="#3a593d"/>
      <path id="Tracé_5697" data-name="Tracé 5697" d="M2277.349,824.811l-.027-.076a.236.236,0,0,0-.426-.056c-.315.456-.662.9-.947,1.371-.115.192-.22.377-.345.557a.466.466,0,0,0-.112.364c.024.3.49.3.466,0-.008-.093.131-.209.181-.293.117-.2.214-.4.341-.593.223-.338.462-.666.7-1A.205.205,0,0,0,2277.349,824.811Z" transform="translate(-2162.386 -811.595)" fill="#293b2b"/>
      <path id="Tracé_5698" data-name="Tracé 5698" d="M2279.019,828.08c-.556.332-.768.952-1.2,1.4-.209.215.12.545.33.33.314-.322.511-.77.824-1.094a.184.184,0,0,0,.177-.035.474.474,0,0,0,.223-.4A.235.235,0,0,0,2279.019,828.08Z" transform="translate(-2163.591 -813.453)" fill="#293b2b"/>
      <path id="Tracé_5699" data-name="Tracé 5699" d="M2283.094,828.48c-.281.075-.408.346-.585.55-.1.116-.2.1-.33.169a.465.465,0,0,0-.167.145.342.342,0,0,0-.04.065c-.278.036-.275.477.019.461a.427.427,0,0,0,.361-.185c.057-.074.033-.053.122-.092a1.454,1.454,0,0,0,.186-.075,1.141,1.141,0,0,0,.287-.3c.067-.089.155-.261.27-.292A.233.233,0,0,0,2283.094,828.48Z" transform="translate(-2165.736 -813.678)" fill="#293b2b"/>
      <path id="Tracé_5700" data-name="Tracé 5700" d="M2343.213,827.209a4.245,4.245,0,0,1-.358-.436,2.212,2.212,0,0,1-.126-.3c-.084-.2-.2-.44-.435-.489-.293-.06-.418.389-.124.449.11.023.185.365.227.461a3.166,3.166,0,0,0,.486.645C2343.071,827.772,2343.4,827.441,2343.213,827.209Z" transform="translate(-2197.891 -812.348)" fill="#293b2b"/>
      <path id="Tracé_5701" data-name="Tracé 5701" d="M2339.617,828.795c-.148-.044-.219-.367-.294-.487a.63.63,0,0,0-.584-.337c-.3.017-.3.483,0,.466.192-.011.249.239.319.381a.727.727,0,0,0,.435.426A.233.233,0,0,0,2339.617,828.795Z" transform="translate(-2196.029 -813.411)" fill="#293b2b"/>
      <path id="Tracé_5702" data-name="Tracé 5702" d="M2356.986,824.139l-.028.026a.182.182,0,0,0-.136.129,8.738,8.738,0,0,0-1.129,1.386c-.247.348-.542.684-.216,1.082.191.232.519-.1.33-.33-.089-.109.492-.826.552-.911a5.409,5.409,0,0,1,.842-.941c.089-.036.129-.1.175-.214C2357.471,824.127,2357.143,824.007,2356.986,824.139Z" transform="translate(-2205.007 -811.337)" fill="#293b2b"/>
      <path id="Tracé_5703" data-name="Tracé 5703" d="M2362.714,827.481a4.965,4.965,0,0,0-1.461.786c-.259.185-.493.407-.765.575a3.292,3.292,0,0,0-.675.447.233.233,0,0,0,.33.33,3.792,3.792,0,0,1,.659-.427c.24-.159.452-.354.686-.522a4.9,4.9,0,0,1,.644-.384,3.8,3.8,0,0,1,.705-.356C2363.129,827.859,2363.006,827.409,2362.714,827.481Z" transform="translate(-2207.363 -813.146)" fill="#293b2b"/>
      <path id="Tracé_5704" data-name="Tracé 5704" d="M2145.451,812.173c.026-.412.225-.816.229-1.209a.233.233,0,0,0-.466,0c0,.334-.2.743-.221,1.1-.048.657-.012,1.329-.012,1.988a.233.233,0,0,0,.466,0v-.138C2145.442,813.333,2145.416,812.748,2145.451,812.173Z" transform="translate(-2092.711 -804.213)" fill="#293b2b"/>
      <path id="Tracé_5705" data-name="Tracé 5705" d="M2147.8,814.9a3.052,3.052,0,0,1-.182.385,3.461,3.461,0,0,0-.116.412,4.186,4.186,0,0,0-.168.632c0,.011-.007.02-.007.032l0,.051a.233.233,0,0,0,.466,0,3.353,3.353,0,0,1,.183-.679c.061-.255.214-.46.277-.709A.233.233,0,0,0,2147.8,814.9Z" transform="translate(-2093.969 -806.345)" fill="#293b2b"/>
      <path id="Tracé_5706" data-name="Tracé 5706" d="M2158.844,813.687c-.355.488-.545,1.08-.944,1.531a1.849,1.849,0,0,0-.278.457c-.054.109-.123.215-.17.333-.217.09-.093.468.179.43a.433.433,0,0,0,.259-.137.209.209,0,0,0,.063-.19.246.246,0,0,0-.006-.04.87.87,0,0,0,.108-.163,2.955,2.955,0,0,1,.409-.627c.307-.421.474-.932.784-1.357C2159.423,813.68,2159.019,813.447,2158.844,813.687Z" transform="translate(-2099.316 -805.733)" fill="#293b2b"/>
      <path id="Tracé_5707" data-name="Tracé 5707" d="M2154.947,816.769a2.543,2.543,0,0,0-.035-.481c-.048-.181-.022-.361-.056-.545a.226.226,0,0,0-.162-.163l-.065-.014a.241.241,0,0,0-.212.412,2.7,2.7,0,0,0,.046.434c.048.194.008.4.049.594a.228.228,0,0,0,.163.163l.064.013A.24.24,0,0,0,2154.947,816.769Z" transform="translate(-2097.712 -806.787)" fill="#293b2b"/>
      <path id="Tracé_5708" data-name="Tracé 5708" d="M2066.042,814.7a10.246,10.246,0,0,1-.747-1.9c-.024-.3-.491-.3-.466,0,.064.777.63,1.4.8,2.147a.228.228,0,0,0,.163.163l.063.014A.236.236,0,0,0,2066.042,814.7Z" transform="translate(-2049.93 -805.193)" fill="#293b2b"/>
      <path id="Tracé_5709" data-name="Tracé 5709" d="M2069.189,812.631a.233.233,0,0,0-.466,0,3.586,3.586,0,0,1-.072.677,4.025,4.025,0,0,0-.006.722.233.233,0,0,0,.466,0,3.07,3.07,0,0,1,.024-.75A2.613,2.613,0,0,0,2069.189,812.631Z" transform="translate(-2051.961 -805.103)" fill="#293b2b"/>
      <path id="Tracé_5710" data-name="Tracé 5710" d="M2058.194,815.362s-.051-.2-.059-.221c-.029-.1-.033-.2-.069-.308-.1-.3,0-.619-.123-.923-.11-.275-.562-.155-.449.124a2.175,2.175,0,0,1,.047.686,1.748,1.748,0,0,0,.109.341,1.269,1.269,0,0,0,.214.629C2058.068,815.913,2058.4,815.583,2058.194,815.362Z" transform="translate(-2046.006 -805.823)" fill="#293b2b"/>
    </g>
    <g id="Groupe_900" data-name="Groupe 900" transform="translate(2055.198 503.401)">
      <g id="Groupe_889" data-name="Groupe 889" transform="translate(0 11.077)">
        <path id="Tracé_5711" data-name="Tracé 5711" d="M2121.539,575.761s-7.151.508-10.68,12.007c-2.15,7-2.92,13.422-1.171,16.278,1.163,1.9,5.186,3.28,5.361,2.972s7.32-14.568,7.273-16.666S2121.539,575.761,2121.539,575.761Z" transform="translate(-2095.688 -553.105)" fill="#662910"/>
        <path id="Tracé_5712" data-name="Tracé 5712" d="M2163.343,556.608c-.285-.493-.587-.979-.843-1.485-.548-1.087-.879-2.277-1.466-3.343-.545-.989-1.3-1.844-1.842-2.834-.52-.956-.466-2.282-1.222-3.115-.869-.955-2.156-1.149-2.767-2.447-.42-.893-.385-1.952-.828-2.834a7.269,7.269,0,0,0-2.708-2.392c-1.845-1.257-1.9-3.08-2.369-5.077a7.759,7.759,0,0,0-11.285-4.985c-1.631.851-3.4,1.613-4.005,3.5a19.762,19.762,0,0,0-.66,4.88c-.052,1.31-.418,3.215-.084,4.457.153.566.437,1.095.548,1.671a7.052,7.052,0,0,1-.333,2.842c-.483,2.146.941,3.032,1.082,4.956a16.13,16.13,0,0,0,2.424,9.659,11.355,11.355,0,0,0,3.124,3.818,9.6,9.6,0,0,0,2.2.881,6.621,6.621,0,0,1,2.755,2.047c.625.755.909,1.683,1.487,2.447a3.352,3.352,0,0,0,1.646,1.086c.774.3,1.594.788,2.4,1.012a5.6,5.6,0,0,1,1.259.317.179.179,0,0,0,.06.317,8.344,8.344,0,0,0,4.056.34,1.3,1.3,0,0,0,.653-.424c.546-.476,1.156-.816,1.734-1.254a3.123,3.123,0,0,0,.83-1,17.626,17.626,0,0,0,1-1.515c.177-.364.317-.741.489-1.109.413-.883,1.094-1.052,1.75-1.637,1.553-1.388,2.261-5.086,1.715-7.023A7.807,7.807,0,0,0,2163.343,556.608Z" transform="translate(-2108.714 -527.163)" fill="#a76043"/>
        <path id="Tracé_5713" data-name="Tracé 5713" d="M2110.531,664.964s-3.03,23-3.5,27.582-2.564,23.154-2.564,24.319-.466,4.507,0,4.74,7.3.544,7.3.544,4.04-21.522,5.594-26.806,4.89-18.612,5.594-18.181c.6.369,1.724,20.44,2.409,22.843,1.295,4.544,14.452,17.327,15,17.4s6.061-4.662,6.138-5.051-11.11-15.384-11.344-16.783,1.709-17.482,2.02-21.678.233-8.236.233-8.236-13.752-7.071-14.219-7.148S2110.531,664.964,2110.531,664.964Z" transform="translate(-2093.308 -597.28)" fill="#ffddae"/>
        <path id="Tracé_5714" data-name="Tracé 5714" d="M2136.431,535.708s-.1,1.552-.154,3.533c0,.112,0,.225-.01.342s-.01.267-.013.4c0,.1-.006.192-.008.29a51.758,51.758,0,0,0,.1,5.858,3.465,3.465,0,0,0,3.259,3.446,7.751,7.751,0,0,0,4.423-1.468,20.859,20.859,0,0,0,2.114-3.718s.852-5.08.829-5.2a9.967,9.967,0,0,0-2.032-2.85c-.8-.519-3.53-1.93-3.53-1.93Z" transform="translate(-2110.363 -531.036)" fill="#ff8426"/>
        <path id="Tracé_5715" data-name="Tracé 5715" d="M2155.348,549.285s1.683-.752,2.375.507-.769,3-1.735,3.18a13.986,13.986,0,0,1-2.464.113Z" transform="translate(-2119.603 -538.853)" fill="#ff8426"/>
        <path id="Tracé_5716" data-name="Tracé 5716" d="M2144.907,561.121l.287.887.562,1.762.958,2.98,1.874,2.4,2.7-.115,2.284-3.87-2.62-8.729Z" transform="translate(-2115.003 -542.787)" fill="#ff8426"/>
        <path id="Tracé_5717" data-name="Tracé 5717" d="M2145.041,565.784l.559,1.76a7.83,7.83,0,0,0,1.81-.423c1.894-.7,1.969-2.036,1.76-2.208s-.844-.2-1.805.313A6.128,6.128,0,0,1,2145.041,565.784Z" transform="translate(-2115.075 -547.256)" fill="#e66617"/>
        <path id="Tracé_5718" data-name="Tracé 5718" d="M2140.149,550.961a1.84,1.84,0,0,0,.449-.709c.109-.3.055-.645.171-.927s.232.127.262.266a3.019,3.019,0,0,1-.035,1.323,1.57,1.57,0,0,1-.733,1.036c-.261.136-.753.314-.9-.069-.164-.429.426-.629.681-.829C2140.081,551.023,2140.116,550.992,2140.149,550.961Z" transform="translate(-2112.029 -538.941)" fill="#e66617"/>
        <path id="Tracé_5719" data-name="Tracé 5719" d="M2139.922,556.9a.306.306,0,0,1,.094-.079.255.255,0,0,1,.2-.013,1.049,1.049,0,0,1,.356.231.865.865,0,0,0,.424.214,1.23,1.23,0,0,0,.616-.043,1.1,1.1,0,0,0,.489-.4.384.384,0,0,1,.229-.139c.432-.058.314.7.208.909a1.529,1.529,0,0,1-2.264.289C2140.079,557.715,2139.717,557.17,2139.922,556.9Z" transform="translate(-2112.31 -542.916)" fill="#fff"/>
        <path id="Tracé_5720" data-name="Tracé 5720" d="M2137.9,548.782c-.042.089.059.28.207.236a1.377,1.377,0,0,1,.522-.072,2.305,2.305,0,0,0,.488.059c.139-.032.162-.216.03-.324a1.008,1.008,0,0,0-.6-.157A.759.759,0,0,0,2137.9,548.782Z" transform="translate(-2111.259 -538.566)" fill="#36312f"/>
        <path id="Tracé_5721" data-name="Tracé 5721" d="M2148.534,548.782c-.041.089.06.28.208.236a1.379,1.379,0,0,1,.522-.072,2.305,2.305,0,0,0,.488.059c.139-.032.162-.216.03-.324a1.007,1.007,0,0,0-.6-.157A.763.763,0,0,0,2148.534,548.782Z" transform="translate(-2116.935 -538.566)" fill="#36312f"/>
        <path id="Tracé_5722" data-name="Tracé 5722" d="M2121.516,575.53c1.748-1.457,4.221-2.414,9.28-3.088a22.485,22.485,0,0,1,13.673,2.409,13.149,13.149,0,0,1,4.2,3.768c.175.524-3.186,24.746-3.5,29.641s.467,12.2-.466,12.976-11.826,0-12.984,0-3.022-7.148-3.255-7.148-2.714,6.526-3.727,6.915-9.4-.078-9.948-.389,2.253-11.655,2.564-16.7.155-14.918.544-19.425S2119.768,576.987,2121.516,575.53Z" transform="translate(-2098.892 -551.221)" fill="#662910"/>
        <path id="Tracé_5723" data-name="Tracé 5723" d="M2090.653,792.844c1.262-.757,5.851.131,8.054.513s1.1,1.759,1.1,2.86-.345,8.881-.826,9.431-9.087.688-11.29.688-6.815.413-6.884-.551-.276-3.993,1.376-4.819,5.783-1.652,6.747-2.341S2089.39,793.6,2090.653,792.844Z" transform="translate(-2080.762 -668.829)" fill="#36312f"/>
        <path id="Tracé_5724" data-name="Tracé 5724" d="M2180.335,777.667c.144-1.465,3.592-4.62,5.213-6.161s2.069.164,2.953.82,6.925,5.57,7.079,6.285-4.864,7.706-6.177,9.475-3.731,5.718-4.546,5.2-3.37-2.159-3.048-3.978,2.121-5.628,2.143-6.812S2180.191,779.132,2180.335,777.667Z" transform="translate(-2133.914 -657.263)" fill="#36312f"/>
        <path id="Tracé_5725" data-name="Tracé 5725" d="M2176.432,585.933s1.787,1.981,1.165,7.731-2.132,14.033-3.186,15.85-7.3,1.865-7.614,1.865.544-18.647.7-19.113S2176.432,585.933,2176.432,585.933Z" transform="translate(-2126.653 -558.535)" fill="#662910"/>
        <path id="Tracé_5726" data-name="Tracé 5726" d="M2147.981,538.862a.475.475,0,0,1-.182.058c-.1,0-.175-.106-.228-.2a8.471,8.471,0,0,0-1.112-1.744,21.127,21.127,0,0,0-2.6-2.354,24.318,24.318,0,0,0-2.205-1.3,2.527,2.527,0,0,0-1.949-.093,18.411,18.411,0,0,0-3.394,1.035c-.456.2-1.259.625-1.412,1.161a.783.783,0,0,0,.289.8c.518.366,1.265-.22,1.805.243s.832,1.085,1.6,1.18c.573.071,1.18-.164,1.72.041.428.164.726.578,1.159.729.5.174,1.061-.036,1.571.1,1.086.288,1.433,1.952,2.551,2.069a2.166,2.166,0,0,0,1.2-.358,3.5,3.5,0,0,0,1.341-1.02c.08-.118.118-.322-.018-.365A.189.189,0,0,0,2147.981,538.862Z" transform="translate(-2109.649 -530.325)" fill="#a76043"/>
        <path id="Tracé_5727" data-name="Tracé 5727" d="M2137.88,545.087a3.194,3.194,0,0,0-.777.124c-.2.079-.615.433-.214.589a.271.271,0,0,0,.114.009c.4-.027.793-.043,1.189-.062.188-.009.734.029.811-.21C2139.136,545.124,2138.469,545.052,2137.88,545.087Z" transform="translate(-2110.634 -536.727)" fill="#a76043"/>
        <path id="Tracé_5728" data-name="Tracé 5728" d="M2148.642,544.9a3.2,3.2,0,0,1,.778.124c.2.079.615.433.213.588a.264.264,0,0,1-.113.009c-.4-.027-.793-.044-1.19-.063-.187-.009-.734.028-.811-.21C2147.386,544.936,2148.053,544.865,2148.642,544.9Z" transform="translate(-2116.389 -536.627)" fill="#a76043"/>
        <g id="Groupe_888" data-name="Groupe 888" transform="translate(14.381 24.61)">
          <path id="Tracé_5729" data-name="Tracé 5729" d="M2114.919,581.7c-1.476,1.04-3.652,2.866-3.263,8.3s5.128,15,9.168,20.124,9.635,7.071,13.907,3.885,3.357-7.774,2.65-10.647S2131,585.051,2125.874,581.7A9.466,9.466,0,0,0,2114.919,581.7Z" transform="translate(-2111.61 -579.953)" fill="#608d5c"/>
          <path id="Tracé_5730" data-name="Tracé 5730" d="M2133.285,616.253c-.688-.262-1.213-.815-1.923-1.069a19.007,19.007,0,0,0-2.635-.685,4.24,4.24,0,0,1-2.844-1.7,5.817,5.817,0,0,1-1.008-2.363,5.49,5.49,0,0,0-2.07-3.68,8.656,8.656,0,0,1-2.313-1.819,4.429,4.429,0,0,1-.547-2.781,9.3,9.3,0,0,0-.059-3.962,7.542,7.542,0,0,0-2.131-3.047,6.237,6.237,0,0,1-1.823-3.209,6.64,6.64,0,0,1,1.682-5.6c.19-.23-.138-.561-.33-.33a6.654,6.654,0,0,0-1.854,4.254,7.051,7.051,0,0,0,.656,3.489c.774,1.537,2.35,2.412,3.086,3.983.827,1.762.262,3.384.3,5.209a3.972,3.972,0,0,0,1.885,3.374c1.108.786,2.1,1.348,2.613,2.69.375.982.42,2.1.867,3.044a4.946,4.946,0,0,0,3.081,2.754c.979.258,1.975.394,2.944.71.868.284,1.479.873,2.3,1.186C2133.442,616.81,2133.564,616.359,2133.285,616.253Z" transform="translate(-2113.649 -583.145)" fill="#3a593d"/>
          <path id="Tracé_5731" data-name="Tracé 5731" d="M2139.329,608.656a10.47,10.47,0,0,0-2.208-3.468c-1.01-1.2-2.69-1.49-4.028-2.179a2.635,2.635,0,0,1-1.636-2.665c-.017-.827.086-1.659.052-2.486-.136-3.288-4.128-4.491-4.78-7.545-.322-1.508-.2-3.148-.894-4.566-.253-.517-.809-1.916-1.433-2.04-.293-.058-.418.391-.123.449s.854,1.244.989,1.5a6.539,6.539,0,0,1,.678,2.288,10.494,10.494,0,0,0,.812,3.888c.691,1.27,1.985,2.1,2.9,3.2a7.486,7.486,0,0,1,1.141,1.692,6.385,6.385,0,0,1,.217,2.759c-.028,1.072-.119,2.385.705,3.218,1.034,1.044,2.7,1.252,3.95,1.91a5.146,5.146,0,0,1,1.456,1.378,7.5,7.5,0,0,1,1.621,2.482,14.237,14.237,0,0,1,.593,5.06.233.233,0,0,0,.466,0A15.116,15.116,0,0,0,2139.329,608.656Z" transform="translate(-2118.283 -581.955)" fill="#3a593d"/>
          <path id="Tracé_5732" data-name="Tracé 5732" d="M2144.921,603.156c-.613-1.558-1.99-2.172-2.961-3.428a5.343,5.343,0,0,1-1.118-2.678,5.676,5.676,0,0,0-.941-2.276,16.45,16.45,0,0,0-2.881-2.836c-1.37-1.23-1.4-3.432-1.924-5.075a6.078,6.078,0,0,0-2.22-3.5,5.235,5.235,0,0,0-3.258-1.178.233.233,0,0,0,0,.466,5.555,5.555,0,0,1,3.707,1.688c1.14,1.11,1.53,3.091,1.82,4.608a5.974,5.974,0,0,0,1.455,3.231c.876.881,1.857,1.615,2.68,2.565a5.079,5.079,0,0,1,1.113,2.432,5.735,5.735,0,0,0,.48,1.843c.681,1.271,1.8,1.875,2.734,2.891,1.17,1.267,1.35,3.093,1.513,4.735a11.668,11.668,0,0,1,.006,2.566c-.058.449-.148,1.682-.522,2.023-.222.2.109.532.33.33a2.11,2.11,0,0,0,.429-1.2,9.192,9.192,0,0,0,.261-2.084A14.341,14.341,0,0,0,2144.921,603.156Z" transform="translate(-2121.103 -581.144)" fill="#3a593d"/>
        </g>
        <path id="Tracé_5733" data-name="Tracé 5733" d="M2125.41,634.018a24.209,24.209,0,0,1-2.477.583c-.262-.029-1.052-1.546-1.748-1.894s-1.166-.466-1.748,0a1.414,1.414,0,0,0-.344.782,10.669,10.669,0,0,0-1,1.811,11.912,11.912,0,0,0,.321,1.6,3.7,3.7,0,0,0,.676,2.127c.962,1.118,2.968.768,4.226.534.224-.042,3.318-.693,3.314-.709Z" transform="translate(-2100.688 -583.34)" fill="#ff8426"/>
        <path id="Tracé_5734" data-name="Tracé 5734" d="M2147.934,615.558a8.7,8.7,0,0,1-2.82,4.1c-1.923,1.258-12.936,4.463-13.4,4.754s1.5,6.41,2.844,6.76,5.431-.816,10.85-1.981,6.585-2,6.585-2Z" transform="translate(-2107.922 -574.35)" fill="#662910"/>
        <path id="Tracé_5735" data-name="Tracé 5735" d="M2113.4,619.006a6.03,6.03,0,0,0,.4,3.437,2.843,2.843,0,0,0,2.765,2.221c.784-.028,1.607-.828,1.134-2.439s-2.383-4.237-3.032-4.36S2113.508,618.448,2113.4,619.006Z" transform="translate(-2098.134 -575.574)" fill="#ff8426"/>
        <path id="Tracé_5736" data-name="Tracé 5736" d="M2138.8,687.572a28.575,28.575,0,0,0-1.6-3.06c-.745-1.387-2.063-2.734-2.363-4.321-.055-.294-.5-.17-.449.124a11.837,11.837,0,0,0,2.044,3.841,20.507,20.507,0,0,1,1.01,1.843,17.656,17.656,0,0,1,.908,1.7C2138.457,687.973,2138.908,687.853,2138.8,687.572Z" transform="translate(-2109.385 -608.762)" fill="#f2c588"/>
      </g>
      <g id="Groupe_899" data-name="Groupe 899" transform="translate(70.272)">
        <path id="Tracé_5737" data-name="Tracé 5737" d="M2270.889,507.34c.063-.112,0-.479.015-.623a2.674,2.674,0,0,1,.19-.738,1.437,1.437,0,0,1,.93-.8,3.98,3.98,0,0,1,1.116-.117c.217,0,.675.1.835-.088.254-.292.229-.721.495-1.019a1.579,1.579,0,0,1,1.069-.478,2.02,2.02,0,0,1,.641.052c.191.047.391.251.581.265a11.842,11.842,0,0,0,1.7-.35,4.854,4.854,0,0,1,1.868.092c.455.143.815.51,1.292.6.741.135,1.351-.1,1.814.668a3.124,3.124,0,0,1,.6.056,1.608,1.608,0,0,1,1.519,1.309c.063.465-.105.887.065,1.313.287.717.744,1.4.338,2.184a1.069,1.069,0,0,0-.176.434,1.476,1.476,0,0,0,.035.26c.083.556-.309,1.1-.361,1.653-.065.684-.013,1.377-.087,2.061-.08.733-.426,1.41-.545,2.136-.082.5.33,1.431-.207,1.782a.1.1,0,0,1-.138-.041,3.331,3.331,0,0,1-.192-1.436,3.926,3.926,0,0,0-.624-.157.911.911,0,0,1-.5-.138,5.048,5.048,0,0,1-1.6-1.742c-.445-.819-.506-1.383-1.471-1.717-.374-.13-.758-.233-1.136-.358a4.539,4.539,0,0,1-2.228-1.227c-.5-.584-.5-1.007-1.428-1.043-.365-.014-.739.007-1.108,0a10.92,10.92,0,0,1-2.2-.105A2.251,2.251,0,0,1,2270.889,507.34Z" transform="translate(-2252.452 -503.401)" fill="#36312f"/>
        <g id="Groupe_890" data-name="Groupe 890" transform="translate(30.822 128.522)">
          <path id="Tracé_5738" data-name="Tracé 5738" d="M2312.9,779.985l.959,7.642,4.514-.8-.423-7.737Z" transform="translate(-2305.775 -779.091)" fill="#ff8426"/>
          <path id="Tracé_5739" data-name="Tracé 5739" d="M2313.337,796.088s-.839-6.519-.58-6.841,5.446-.885,5.875-.685.657,7.5.657,7.5-2.74,2.576-2.98,2.777S2313.337,796.088,2313.337,796.088Z" transform="translate(-2305.673 -784.124)" fill="#c93d2e"/>
          <path id="Tracé_5740" data-name="Tracé 5740" d="M2312.363,802.629c-.643-.926-1.578-.235-2.38-.014-1.692.467-3.284.041-4.985.15-.79.051-1.525,2.419-1.884,3.022s-3.809,2.045-4.455,2.453a2.1,2.1,0,0,0-1.043,1.838c-.009.825.392,1.35.823,1.413s13.61-.656,14.126-1.178S2312.955,803.481,2312.363,802.629Z" transform="translate(-2297.616 -791.405)" fill="#fff"/>
        </g>
        <path id="Tracé_5741" data-name="Tracé 5741" d="M2258.93,781.85l-.389,7.692h4.584l.932-7.692Z" transform="translate(-2245.936 -652.042)" fill="#ff8426"/>
        <path id="Tracé_5742" data-name="Tracé 5742" d="M2251.848,667.35s-2.409,22.57-2.759,27.7-.351,26.211.115,26.793,11.617.79,12.083.324.94-23.892,1.523-28.2,3.051-21.256,5.076-19.618,4.823,46.657,6.92,46.774,12.587,0,12.937-.816-5.128-52.213-5.128-52.213Z" transform="translate(-2240.757 -590.92)" fill="#36312f"/>
        <path id="Tracé_5743" data-name="Tracé 5743" d="M2248.074,558.147s-3.908,1.415-7.288,6.369-8.916,18.531-9.207,20.279.249,7.616,1.494,11.325l1.245,3.709,8.517-3.283s-1.945-9.851-1.35-11.052c1.107-2.234,3.751-6.655,3.751-6.655l4.465-14.965Z" transform="translate(-2231.501 -532.626)" fill="#c93d2e"/>
        <path id="Tracé_5744" data-name="Tracé 5744" d="M2285.024,523.948a22.119,22.119,0,0,1-1.966,4.153,8.317,8.317,0,0,1-4.613,1.926,3.712,3.712,0,0,1-3.762-3.427,55.655,55.655,0,0,1-.585-6.259c0-.075,0-.15-.01-.225-.01-.175-.02-.345-.024-.515,0-.05-.005-.1-.005-.15-.1-2.227-.13-4.012-.13-4.012l5.228-1.781s3.032,1.291,3.933,1.781a10.886,10.886,0,0,1,2.407,2.887C2285.525,518.449,2285.024,523.948,2285.024,523.948Z" transform="translate(-2254.149 -508.875)" fill="#ff8426"/>
        <path id="Tracé_5745" data-name="Tracé 5745" d="M2295.255,528.65s1.74-.941,2.583.352-.581,3.275-1.6,3.543a15.008,15.008,0,0,1-2.628.319Z" transform="translate(-2264.656 -516.703)" fill="#ff8426"/>
        <path id="Tracé_5746" data-name="Tracé 5746" d="M2290.024,547.334l-3.062,3.722-2.882-.325-1.591-2.852-.5-3.147-.025-.17-.281-1.821-.02-.14-.16-.985,7.189-3.973Z" transform="translate(-2258.194 -521.68)" fill="#ff8426"/>
        <path id="Tracé_5747" data-name="Tracé 5747" d="M2284.312,549.362a11.616,11.616,0,0,1-2.116.36l-.025-.17-.28-1.821a6.484,6.484,0,0,0,2.532-.4c1.071-.465,1.746-.38,1.956-.18S2286.393,548.771,2284.312,549.362Z" transform="translate(-2258.399 -526.669)" fill="#e66617"/>
        <path id="Tracé_5748" data-name="Tracé 5748" d="M2278.984,531.8a1.988,1.988,0,0,0,.424-.8c.092-.327.007-.7.108-1.006s.259.118.3.264a3.23,3.23,0,0,1,.069,1.419,1.683,1.683,0,0,1-.7,1.167c-.269.167-.781.4-.969,0-.21-.445.406-.707.662-.942Q2278.934,531.857,2278.984,531.8Z" transform="translate(-2256.416 -517.542)" fill="#e66617"/>
        <g id="Groupe_891" data-name="Groupe 891" transform="translate(22.434 16.456)">
          <path id="Tracé_5749" data-name="Tracé 5749" d="M2280.784,539.988c-.853,0-1.1-.429-1.133-.486a.233.233,0,1,1,.413-.215h0s.242.361,1.208.188c.812-.146,1-.6,1.006-.624a.234.234,0,0,1,.3-.136.231.231,0,0,1,.14.294,1.661,1.661,0,0,1-1.362.924A3.233,3.233,0,0,1,2280.784,539.988Z" transform="translate(-2279.624 -538.7)" fill="#e66617"/>
        </g>
        <path id="Tracé_5750" data-name="Tracé 5750" d="M2286.611,529.381c-.043.095.065.3.224.253a1.468,1.468,0,0,1,.56-.077,2.5,2.5,0,0,0,.524.063c.149-.034.174-.232.032-.347a1.076,1.076,0,0,0-.643-.169A.817.817,0,0,0,2286.611,529.381Z" transform="translate(-2260.914 -517.122)" fill="#36312f"/>
        <path id="Tracé_5751" data-name="Tracé 5751" d="M2274.906,530.34c-.044.1.064.3.223.253a1.469,1.469,0,0,1,.56-.077,2.535,2.535,0,0,0,.524.064c.149-.035.174-.232.032-.348a1.078,1.078,0,0,0-.643-.169A.817.817,0,0,0,2274.906,530.34Z" transform="translate(-2254.666 -517.634)" fill="#36312f"/>
        <path id="Tracé_5752" data-name="Tracé 5752" d="M2276.358,526a.169.169,0,0,1-.075.185,1.225,1.225,0,0,1-.656.115,3.829,3.829,0,0,0-1.241.1c-.05.015-.095.035-.15.055-.01-.175-.02-.345-.025-.515,0-.05-.005-.1-.005-.15a3.186,3.186,0,0,1,.831-.225C2275.437,525.522,2276.2,525.491,2276.358,526Z" transform="translate(-2254.298 -515.222)" fill="#36312f"/>
        <path id="Tracé_5753" data-name="Tracé 5753" d="M2285.515,525.151c.117-.524.882-.549,1.286-.53a2.391,2.391,0,0,1,1.71.728.143.143,0,0,1-.066.213c-.294.149-.646-.092-.931-.155a3.922,3.922,0,0,0-1.249-.015,1.2,1.2,0,0,1-.66-.062A.167.167,0,0,1,2285.515,525.151Z" transform="translate(-2260.333 -514.727)" fill="#36312f"/>
        <path id="Tracé_5754" data-name="Tracé 5754" d="M2286.207,518.881a7.785,7.785,0,0,0-3.687-4.518,7.043,7.043,0,0,0-6.6-.73c-.785.3-1.981.37-2.5,1.126-.28.41-.45,1.141.01,1.471a1.175,1.175,0,0,0,.846.085c.275-.045.54-.17.811-.225.645-.125.665,0,1.191.205a2.365,2.365,0,0,0,2.482-.175c.7-.445,1.025-.265,1.826-.18.535.06,1.756-.235,2.217.08.295.2.5,1.041.625,1.371a9.144,9.144,0,0,1,.505,1.988c.041.316-.07,1.208.375,1.289.22.04.31-.135.486-.235a1.555,1.555,0,0,0,.425-.3,4.7,4.7,0,0,0,1.045-1.116A.1.1,0,0,0,2286.207,518.881Z" transform="translate(-2253.73 -508.592)" fill="#36312f"/>
        <path id="Tracé_5755" data-name="Tracé 5755" d="M2273.146,553.48s1.3.937,4.139.617a4.854,4.854,0,0,0,3.39-1.577l5.623,1.364s-.155,28.272,0,28.816.311,13.359.311,13.359H2264.7l3.5-41.448Z" transform="translate(-2249.222 -529.622)" fill="#fff"/>
        <path id="Tracé_5756" data-name="Tracé 5756" d="M2266.255,555.495s-1.927,9.936-2.425,16.113-1.371,27.854-1.371,27.854l-7.167-.758s1.359-33.779,1.592-34.653.967-4.945,1.963-6.105C2260.479,556.049,2266.255,555.495,2266.255,555.495Z" transform="translate(-2244.201 -531.21)" fill="#f26555"/>
        <path id="Tracé_5757" data-name="Tracé 5757" d="M2304.588,553.882s.794,7.366.794,12.261v33.1l8.275-.641-.292-32.691s.045-8.324-.524-9.149C2311.676,555.071,2304.588,553.882,2304.588,553.882Z" transform="translate(-2270.516 -530.349)" fill="#f26555"/>
        <g id="Groupe_895" data-name="Groupe 895" transform="translate(3.231 47.786)">
          <g id="Groupe_892" data-name="Groupe 892" transform="translate(13.335)">
            <path id="Tracé_5758" data-name="Tracé 5758" d="M2279.043,606.364a1.735,1.735,0,0,0-1.327-.311,2.98,2.98,0,0,1-1.365.087c-.338-.086-.463-.232-.817-.234a6.64,6.64,0,0,0-1.663.26,9.949,9.949,0,0,1-1.016.283c-.193.031-.368.043-.564.092a7.35,7.35,0,0,0-3.481,2.223,6.192,6.192,0,0,0-1.219,2.1c-.266,1.03.061,2.03-.357,3.057a1.373,1.373,0,0,0,.051,1.5l.046.086a1.256,1.256,0,0,0,.16.672c.231.582.419,1.187.675,1.758a8.805,8.805,0,0,0,3.218,3.236,8.162,8.162,0,0,0,3.993,1.344,5.9,5.9,0,0,0,3.162-1.166l.04-.042c.2-.162.374-.357.552-.515.632-.554,1.359-.99,1.987-1.54a7.448,7.448,0,0,0,2.618-6,5.362,5.362,0,0,0-.95-3.278c-.246-.3-.563-.54-.826-.819a11.783,11.783,0,0,1-1.006-1.416A6.274,6.274,0,0,0,2279.043,606.364Z" transform="translate(-2267.036 -605.906)" fill="#3a593d"/>
            <path id="Tracé_5759" data-name="Tracé 5759" d="M2278.094,607.634a3.1,3.1,0,0,0-2.451,1.283c-.269.361-.682.606-.914.964-.274.422-.053.4-.158.847a4.983,4.983,0,0,1-.43.9c-.237.549-.1.671-.086,1.2a16.142,16.142,0,0,0-.136,2.5,4.986,4.986,0,0,1,.3,1.929,5.5,5.5,0,0,0-.022.614,7.727,7.727,0,0,0-1.669-1.88c-.609-.46-1.234-.854-1.84-1.324-.367-.284-1.454-.712-1.536-1.159-.06-.327-.555-.18-.5.144.079.434.259.534.621.756.631.387,1.124.836,1.718,1.267a12.088,12.088,0,0,1,1.861,1.336,12.4,12.4,0,0,1,1.449,1.974.246.246,0,0,0,.137.109c.067.1.143.187.206.29.16.266.227.56.394.828.355.577.863,1.04,1.225,1.623a2.1,2.1,0,0,0,.637.741c.272.189.514-.268.243-.456a3.077,3.077,0,0,1-.676-.921c-.288-.439-.736-.8-.987-1.254-.062-.111-.146-.361-.248-.594.17.114.334.212.463.28a6.385,6.385,0,0,0,2.788.307,4.991,4.991,0,0,0,2.424-1.084c.592-.415,1.59-.842,1.5-1.674-.034-.329-.55-.317-.516.014.043.415-1.271,1.207-1.539,1.384a3.946,3.946,0,0,1-2.309.784,8.684,8.684,0,0,1-1.522-.037c-.457-.076-1.614-.612-1.778-1.183a9.225,9.225,0,0,0-.008-2.362c-.049-.172-.144-.278-.2-.484a2.179,2.179,0,0,1,.146-1.368,2.55,2.55,0,0,0,.052-.984,7.033,7.033,0,0,1,.628-2.887c.489-.724,1.634-2.03,2.618-1.917C2278.3,608.174,2278.424,607.672,2278.094,607.634Z" transform="translate(-2267.896 -606.823)" fill="#608d5c"/>
          </g>
          <g id="Groupe_893" data-name="Groupe 893" transform="translate(0 1.186)">
            <path id="Tracé_5760" data-name="Tracé 5760" d="M2254.9,613.39a4.219,4.219,0,0,0-1.688-2.489c-.753-.458-1.839-.473-2.67-.873-.869-.418-1.744-.95-2.648-1.281a4.792,4.792,0,0,0-2.483-.207,2.038,2.038,0,0,0-.408.2c-.886.51-1.624,1.292-2.542,1.73-.406.194-.858.278-1.261.477a3.875,3.875,0,0,0-1.794,2.549c-.622,2.227-1.419,4.27-.682,6.534a.608.608,0,0,0,.769.345,2.173,2.173,0,0,0,2.032.969,36.6,36.6,0,0,0,7.268-.84.646.646,0,0,0,.253.042,14.787,14.787,0,0,0,4.11-.788.886.886,0,0,0,1.471-.167,11.942,11.942,0,0,0,.378-2.959A6.674,6.674,0,0,0,2254.9,613.39Z" transform="translate(-2238.432 -608.45)" fill="#608d5c"/>
            <path id="Tracé_5761" data-name="Tracé 5761" d="M2252.882,620.061a3.359,3.359,0,0,1,.052-2.746,2.294,2.294,0,0,0-.222-2.217c-.379-.842.022-1.433.075-2.255.02-.3-.447-.3-.466,0a9.386,9.386,0,0,0-.312,1.864c.072.535.218.364.5.882a2.07,2.07,0,0,1-.113,1.826.394.394,0,0,0-.031.026.1.1,0,0,0,.012.024v0a.206.206,0,0,0-.1.065.969.969,0,0,1,.089-.093l0,0a5.2,5.2,0,0,0-.711-.292,1.7,1.7,0,0,0-.92.053,1.844,1.844,0,0,0-.348.175,1.886,1.886,0,0,0-.6-.98c-.278-.265-.671-.414-.929-.7s-.359-.663-.6-.953a2.765,2.765,0,0,0-1.64-.735c-.51-.137-.974-.224-1.371.184-.209.215.12.545.33.33.335-.344,1.071-.011,1.495.1.824.207.872.73,1.323,1.3.468.588,1.564.857,1.563,1.745v0a1.566,1.566,0,0,1-.573.239,10.421,10.421,0,0,0-1.446.06c-.573.2-.867.859-1.428,1.117-.473.218-.939.117-1.433.306a3.341,3.341,0,0,0-1.577,1.692c-.137.266.265.5.4.235a2.579,2.579,0,0,1,2.139-1.589c.818-.067,1.064-.577,1.71-1.046.681-.494,1.536-.143,2.28-.488a2.72,2.72,0,0,1,2.193-.272,3.023,3.023,0,0,0-.053,1.681c.252.846.584,1.261.415,2.146a.227.227,0,0,0-.028.109v.066a.234.234,0,0,0,.458.062A2.665,2.665,0,0,0,2252.882,620.061Z" transform="translate(-2241.119 -610.675)" fill="#3a593d"/>
          </g>
          <g id="Groupe_894" data-name="Groupe 894" transform="translate(23.177 3.46)">
            <path id="Tracé_5762" data-name="Tracé 5762" d="M2288.3,621.174a11.966,11.966,0,0,0,.377,2.959.887.887,0,0,0,1.472.167,14.8,14.8,0,0,0,4.11.789.657.657,0,0,0,.254-.042,36.562,36.562,0,0,0,7.268.84,2.171,2.171,0,0,0,2.032-.969.608.608,0,0,0,.769-.346,8.628,8.628,0,0,0-.263-5.08,6.311,6.311,0,0,0-2.387-3.9c-.823-.594-1.73-1.059-2.587-1.6a5.1,5.1,0,0,0-3.654-.548,16.688,16.688,0,0,0-2.533.879,18.232,18.232,0,0,0-3.064,1.13,4.216,4.216,0,0,0-1.687,2.488A6.67,6.67,0,0,0,2288.3,621.174Z" transform="translate(-2288.149 -613.327)" fill="#608d5c"/>
            <path id="Tracé_5763" data-name="Tracé 5763" d="M2308.6,620.762a6.593,6.593,0,0,0-.677.874,4.389,4.389,0,0,1-.963.93c-.549.425-.458.613-.719,1.2-.307.7-1,.754-1.714.943a3.246,3.246,0,0,1-2.373-.027,4.45,4.45,0,0,0-.888-.3c-.535-.075-1.482.232-1.877-.252a15.43,15.43,0,0,0,2.947-2.426,15.3,15.3,0,0,1,1.656-1.726c.816-.725.975-2,2.112-2.367a.237.237,0,0,0,.139-.342l-.036-.072a.224.224,0,0,0-.408.036,2.875,2.875,0,0,0-1.36,1.371c-.514.918-1.4,1.354-2,2.181-.06.083-.127.157-.19.236-.58-.438-.612-.824-.944-1.61-.2-.465-.508-.491-.887-.908-.479-.526-.388-.978-.482-1.632-.037-.258-.063-.432-.317-.52-.284-.1-.406.352-.124.45a6.536,6.536,0,0,0,.106,1.358c.185.463.579.647.9,1.01s.228.139.358.652a3.075,3.075,0,0,0,.406.809,1.561,1.561,0,0,0,.68.761,35.044,35.044,0,0,1-3.676,3.023c-.23.193.1.522.33.33.132-.111.268-.218.405-.323.58.808,1.965.32,2.791.632a3.267,3.267,0,0,0,1.557.381,9.135,9.135,0,0,0,2.233-.536,2,2,0,0,0,1.177-.711c.194-.3.073-.546.16-.847.139-.477.792-.594,1.118-.956.346-.384.5-.932.893-1.292C2309.149,620.887,2308.819,620.558,2308.6,620.762Z" transform="translate(-2293.508 -614.934)" fill="#3a593d"/>
          </g>
        </g>
        <path id="Tracé_5764" data-name="Tracé 5764" d="M2235.159,630.971c.679-.182,40.532-.546,41.248,0s1.635,18.65.716,18.832-41.007,1-41.963.637S2234.479,631.153,2235.159,630.971Z" transform="translate(-2233.124 -571.346)" fill="#ffeacc"/>
        <path id="Tracé_5765" data-name="Tracé 5765" d="M2324.282,639.6l-1.771,3.146A8.068,8.068,0,0,1,2320.18,645a4.911,4.911,0,0,0-2.2,3.653c.058.932,1.09,3.347,3.371,2.252,1.859-.893,4.468-5.905,4.468-5.905l1.979-2.611Z" transform="translate(-2277.661 -576.107)" fill="#ff8426"/>
        <path id="Tracé_5766" data-name="Tracé 5766" d="M2318.875,558.861a40.431,40.431,0,0,1,12.561,11.63c3.848,5.435,5.031,9.5,5.5,11.829s-.078,5.749-2.8,10.877-5.549,7.781-6.215,8.061c-1.525.641-5.4-2.885-5.05-5.031.074-.46,3.962-12.276,3.806-13.053s-5.982-6.293-7.186-8a13.472,13.472,0,0,1-2.137-3.963c-.156-.777-.311-8.314-.311-8.547S2318.875,558.861,2318.875,558.861Z" transform="translate(-2277.164 -533.007)" fill="#f26555"/>
        <path id="Tracé_5767" data-name="Tracé 5767" d="M2256.375,797.491s.311-6.565.622-6.838,5.517.078,5.905.35-.661,7.5-.661,7.5-3.147,2.059-3.418,2.214S2256.375,797.491,2256.375,797.491Z" transform="translate(-2244.779 -656.689)" fill="#c93d2e"/>
        <path id="Tracé_5768" data-name="Tracé 5768" d="M2252.908,803.194a.867.867,0,0,0-.3-.349,1.764,1.764,0,0,0-1.338-.1,11.5,11.5,0,0,1-3.228.722c-1.039-.04-2.355-.969-3.328-.329-.811.532-1.082,1.942-1.611,2.715-.413.6-4.1,1.874-4.8,2.255a2.188,2.188,0,0,0-1.207,1.842c-.063.857.317,1.429.762,1.524s14.195.222,14.767-.286C2253.56,810.356,2253.743,804.758,2252.908,803.194Z" transform="translate(-2234.488 -663.15)" fill="#fff"/>
        <path id="Tracé_5769" data-name="Tracé 5769" d="M2318.813,575.662a1.747,1.747,0,0,0-.456-.646,7.516,7.516,0,0,1-.952-1.8,28.033,28.033,0,0,1-1.428-3.96,15.031,15.031,0,0,1-.271-4.515,9.276,9.276,0,0,1,1.141-4.2.233.233,0,0,0-.4-.235,13.262,13.262,0,0,0-1.075,8.446,22.48,22.48,0,0,0,1.313,3.957c.2.544.472,1.065.715,1.591a3.884,3.884,0,0,0,.46.87c.178.219.41.334.506.62S2318.908,575.948,2318.813,575.662Z" transform="translate(-2276.146 -533.714)" fill="#c93d2e"/>
        <g id="Groupe_896" data-name="Groupe 896" transform="translate(4.182 62.866)">
          <path id="Tracé_5770" data-name="Tracé 5770" d="M2273.6,639.814h-.023c-.068,0-6.922-.221-12.648-.144-3.4.046-10.275.047-19.362,0l-.4,0a.7.7,0,0,1,0-1.4l.407,0c9.076.044,15.945.044,19.335,0,5.76-.076,12.643.143,12.712.146a.7.7,0,0,1-.022,1.4Z" transform="translate(-2240.473 -638.254)" fill="#f2c588"/>
        </g>
        <g id="Groupe_897" data-name="Groupe 897" transform="translate(4.02 67.596)">
          <path id="Tracé_5771" data-name="Tracé 5771" d="M2240.824,650.241a.7.7,0,0,1-.013-1.4c.145,0,14.5-.276,17.863-.408,3.4-.133,14.823.161,15.307.174a.7.7,0,0,1-.018,1.4h-.019c-.118,0-11.866-.307-15.215-.174-3.38.133-17.746.406-17.891.409Z" transform="translate(-2240.125 -648.4)" fill="#f2c588"/>
        </g>
        <g id="Groupe_898" data-name="Groupe 898" transform="translate(4.02 73.05)">
          <path id="Tracé_5772" data-name="Tracé 5772" d="M2273.962,661.5h-33.138a.7.7,0,1,1,0-1.4h33.138a.7.7,0,0,1,0,1.4Z" transform="translate(-2240.125 -660.1)" fill="#f2c588"/>
        </g>
        <path id="Tracé_5773" data-name="Tracé 5773" d="M2290.074,554.627c-.2.418-.581.531-.946.754-.339.207-.562.5-.892.725a7.583,7.583,0,0,1-2.415.954,6.09,6.09,0,0,1-2.942-.176,5.611,5.611,0,0,1-2.582-1.4c-.171-.244-.575-.011-.4.236a4.676,4.676,0,0,0,2.051,1.341,7.165,7.165,0,0,0,3.622.529,7.867,7.867,0,0,0,2.9-1.078c.468-.308.892-.666,1.364-.974a1.679,1.679,0,0,0,.641-.673C2290.606,554.594,2290.2,554.357,2290.074,554.627Z" transform="translate(-2257.313 -530.683)" fill="#ffddae"/>
        <path id="Tracé_5774" data-name="Tracé 5774" d="M2271.679,513.145c.013-.109.113-.777.134-.782a.312.312,0,0,1,.334-.366c.7-.905,2.117-1.142,3.133-1.479,1.606-.541,3.249-1.047,4.837-.3,1.3.607,3.041,1.234,4.019,2.32a2.961,2.961,0,0,1,.434,2.049,1.7,1.7,0,0,1-.253,1.423.13.13,0,0,1-.128,0,2.527,2.527,0,0,1-.834-1.109,2.339,2.339,0,0,0-.6-1.078c-.361-.278-.786-.274-1.132-.614-.077-.078-.263-.382-.337-.448-.541-.482-.43-.252-.926-.213a2.819,2.819,0,0,1-1.041.033c-.386-.09-1.109-.646-1.477-.612-.5.041-.359.55-.615.857-.364.445-.912.289-1.386.5a2.083,2.083,0,0,0-.675.545,3.01,3.01,0,0,1-1.613,1.105,1.407,1.407,0,0,1-1.8-.8A1.822,1.822,0,0,1,2271.679,513.145Z" transform="translate(-2252.929 -506.839)" fill="#36312f"/>
      </g>
    </g>
  </g>
</svg>
