<svg xmlns="http://www.w3.org/2000/svg" width="19.461" height="16" viewBox="0 0 19.461 16">
  <g id="icon-basket" transform="translate(-6.7 -14.4)">
    <path id="Tracé_6618" data-name="Tracé 6618" d="M8.543,28a2.7,2.7,0,0,0,2.7,2.4H21.621a2.7,2.7,0,0,0,2.7-2.4l.831-7.506h1.011v-1.8H22.947V18a3.6,3.6,0,0,0-3.6-3.6H13.509a3.6,3.6,0,0,0-3.6,3.6v.7H6.7v1.8H7.711Zm13.079.607H11.239a.876.876,0,0,1-.9-.809l-.135-1.213H22.655l-.135,1.213A.876.876,0,0,1,21.621,28.6Zm1.236-3.82H10L9.509,20.49H23.352ZM11.711,18a1.8,1.8,0,0,1,1.8-1.8h5.843a1.8,1.8,0,0,1,1.8,1.8v.7H11.711Z" fill="#3c3c3b"/>
  </g>
</svg>
