<svg xmlns="http://www.w3.org/2000/svg" width="160.425" height="190" viewBox="0 0 160.425 190">
  <g id="vente-sms-illu" transform="translate(-486.617 -287.117)">
    <g id="Groupe_1091" data-name="Groupe 1091" transform="translate(486.617 287.117)">
      <path id="Tracé_6492" data-name="Tracé 6492" d="M658.694,797.329a91.02,91.02,0,0,1-1.349,9.215c-2.494-1.426-5.192-2.536-7.724-3.907s-4.993-2.829-7.392-4.4a100.242,100.242,0,0,1-13.776-10.828c-1.387-1.3-4.005-3.983-6.393-6.5-.514-.542-1.017-1.075-1.494-1.585-1.052-1.124-2.029-2.19-2.679-2.924,2.37-1.288,6.29-3.334,9.451-5.033,3.619-1.943,14.638-4.217,27.614-1.826.045.117.087.234.131.351a63.4,63.4,0,0,1,2.525,8.937A65.027,65.027,0,0,1,658.694,797.329Z" transform="translate(-599.446 -700.894)" fill="#d4b6a1"/>
      <path id="Tracé_6493" data-name="Tracé 6493" d="M839.314,490.251c-.373-5.289-27.856-3.791-25.749,6.908s3.968,24.975,6.542,26.551c.217.133.5.283.823.447a4.364,4.364,0,0,0,1.951,2.157,5.474,5.474,0,0,0,2.529.592,5.139,5.139,0,0,1,1.793.064c.61.222,1.157.677,1.756.942a7.516,7.516,0,0,0,2.491.595l.162.013a28.219,28.219,0,0,0,4.075,1.614c1.389.3,2.953-.148,3.074-1.362A238.192,238.192,0,0,0,839.314,490.251Z" transform="translate(-767.538 -459.17)" fill="#895036"/>
      <path id="Tracé_6494" data-name="Tracé 6494" d="M666.8,823.646a123.643,123.643,0,0,1-38.363,11.029,121.177,121.177,0,0,1-22.535-.021l-.385-50.694-.437-2.567-2.408-3.743s6.658-3.629,11.588-6.276c3.619-1.943,14.638-4.217,27.614-1.826q.5.092,1,.194a59.733,59.733,0,0,1,13.589,4.467l9.542,36.35S666.36,815.972,666.8,823.646Z" transform="translate(-586.372 -700.894)" fill="#3f6c85"/>
      <path id="Tracé_6495" data-name="Tracé 6495" d="M969.218,825.342l5.522,31.631a126.311,126.311,0,0,1,12.75-1.222,14.159,14.159,0,0,0,6.84-1.8s-11.461-32.182-14.781-36.844-7.3-10.534-11.425-12S969.218,825.342,969.218,825.342Z" transform="translate(-899.118 -732.28)" fill="#3f6c85"/>
      <path id="Tracé_6496" data-name="Tracé 6496" d="M588.928,1358.33l-.623,28.353c35.3,23.068,67.59-1.308,67.59-1.308l.054-20.827c-.071-2.349-.2-5.074-.309-7.665a79.065,79.065,0,0,1-27.843,11.99C615.784,1371.543,600.391,1360.177,588.928,1358.33Z" transform="translate(-574.02 -1206.607)" fill="#3f6c85"/>
      <path id="Tracé_6497" data-name="Tracé 6497" d="M683.022,1191.019a.626.626,0,0,1-.136.418q-.518.646-1.077,1.236c-5.175,5.484-12.868,7.508-22.521,9.545-12.013,2.668-28.01.206-39.473-1.641l.821-28.627a121.146,121.146,0,0,0,22.535.021,123.63,123.63,0,0,0,38.363-11.029c.169,2.952.369,6.627.571,10.554v0c.065,1.258.129,2.542.194,3.839.063,1.265.126,2.539.185,3.808.112,2.267.217,4.519.315,6.677.024.575.051,1.143.075,1.7C682.927,1188.733,682.976,1189.9,683.022,1191.019Z" transform="translate(-601.103 -1038.19)" fill="#3f6c85"/>
      <path id="Tracé_6498" data-name="Tracé 6498" d="M1071.63,1124.789s2.611,5.242,7.977,23.83c2.2,7.619-1.864,16.04-4.311,16.411-2.529.384-12.528-3.271-12.916-6.834-.5-4.588-.948-22.309-.948-22.309s4.719-7.87,6.7-6.355Z" transform="translate(-980.683 -1007.116)" fill="#ff8426"/>
      <path id="Tracé_6499" data-name="Tracé 6499" d="M658.983,797.329a91.02,91.02,0,0,1-1.349,9.215c-2.494-1.426-5.192-2.536-7.724-3.907s-4.993-2.829-7.392-4.4a100.237,100.237,0,0,1-13.776-10.828c-1.387-1.3-4.005-3.983-6.393-6.5-.514-.542-1.017-1.075-1.494-1.585-1.052-1.124-1.982-2.135-2.632-2.87,2.37-1.288,6.242-3.389,9.4-5.087,3.619-1.943,14.638-4.217,27.614-1.826.045.117.087.234.131.351a63.4,63.4,0,0,1,2.525,8.937A65.027,65.027,0,0,1,658.983,797.329Z" transform="translate(-599.735 -700.894)" fill="#29536b"/>
      <path id="Tracé_6500" data-name="Tracé 6500" d="M714.627,354.388c.517,9.3-.54,10.563-.344,14.81.284,6.17-3.666,14.345-7.378,20.991-2.722,4.874-15.3-.95-24.125-6.787-2.742-1.813-4.612-6.688-5.264-7.988-2.674-5.332-7.785-18.162-4.2-31.139s14.378-16.4,21.409-15.2S713.784,339.237,714.627,354.388Z" transform="translate(-646.03 -322.99)" fill="#ff8426"/>
      <path id="Tracé_6501" data-name="Tracé 6501" d="M709.236,657.56a63.875,63.875,0,0,0-1.71,8.1c-.262,2.858-7.99,9.413-15.022,3.839s-8.073-24.74-8.073-24.74Z" transform="translate(-656.643 -594.521)" fill="#ff8426"/>
      <path id="Tracé_6502" data-name="Tracé 6502" d="M1002.753,961.18a37.971,37.971,0,0,0-1.468-4.212c-1.121-2.8-2.291-5.629-2.262-8.7a.263.263,0,0,0-.526,0,22.377,22.377,0,0,0,1.892,8.364c.521,1.4,1.074,2.781,1.493,4.212.411,1.406.463,2.888.858,4.283a.212.212,0,0,0,.406,0A8.2,8.2,0,0,0,1002.753,961.18Z" transform="translate(-926.586 -855.177)" fill="#29536b"/>
      <path id="Tracé_6503" data-name="Tracé 6503" d="M663.208,768.883a40.878,40.878,0,0,1,7.816.573c2.87,5.28,5.482,19.863,3.152,33.611,0,0-30.155-18.248-34.844-27.976A75.714,75.714,0,0,1,653,769.884,35.876,35.876,0,0,1,663.208,768.883Z" transform="translate(-617.878 -701.191)" fill="#ff8426"/>
      <path id="Tracé_6504" data-name="Tracé 6504" d="M1037.927,960.646s1.383-2.733,2.769-3.09,12.264-.014,13.35.67c1.778,1.118,1.067,2.21.629,3.08s-11.9,20.647-11.9,20.647-.782,1.906-1.912,1.943c-1.927.062-13.486-.082-13.486-.082s-1.66-.86-.122-3.717S1037.351,961.606,1037.927,960.646Z" transform="translate(-950.745 -863.253)" fill="#e04826"/>
      <path id="Tracé_6505" data-name="Tracé 6505" d="M1051.766,970.941c-3.959,7.042-8.02,14.008-11.423,21.32-.118.631-.231,1.266-.323,1.906,2.94.034,10.815.119,12.376.069,1.13-.036,1.912-1.943,1.912-1.943s11.465-19.778,11.9-20.647a3.015,3.015,0,0,0,.5-1.577c-3.912-.476-8.031-.347-11.933-.614A2.957,2.957,0,0,0,1051.766,970.941Z" transform="translate(-962.28 -873.593)" fill="#b52100"/>
      <path id="Tracé_6506" data-name="Tracé 6506" d="M779.441,735.407l-.514,2.006s-4.112,2.464-7.074-.106-4.287-7.973-4.287-7.973S771.252,733.23,779.441,735.407Z" transform="translate(-728.1 -667.214)" fill="#e66617"/>
      <path id="Tracé_6507" data-name="Tracé 6507" d="M539.488,1086.439s10.136,29.36,15.029,33.729,6.99,2.1,12.932-1.922,39.321-40.02,42.467-41.768a60.656,60.656,0,0,0,10.078-7.029,35.3,35.3,0,0,0,7.581-10.227c1.242-2.748-5.672-5.18-5.672-5.18s-4.929,3.9-7.793,4.61c-.687.169-2.893-.8-2.893-.8l2.326-4.355s-3.86,1.044-5.141,2.063a18.054,18.054,0,0,0-5.155,7.748c-.524,2.216-1.309,4.538-1.309,4.538l-36.759,24.88-8.913-26.913S538.439,1072.283,539.488,1086.439Z" transform="translate(-532.022 -945.842)" fill="#ff8426"/>
      <path id="Tracé_6508" data-name="Tracé 6508" d="M587.258,293.027a28.194,28.194,0,0,0-13.171-5.863c-1.574-.271-4.947.715-4.947.715a35.887,35.887,0,0,0-6.634-.225,22.2,22.2,0,0,0-8.6,2.838c-11.962,7.434-10.547,17.7-14.458,29.491-4.7,14.163-7.047,22.8-7.047,22.8a23.611,23.611,0,0,0,1.039,2.192,8.281,8.281,0,0,0,1.455,4.251,8.919,8.919,0,0,0,2.7,2.415,5.386,5.386,0,0,1,2.259,1.681,16.613,16.613,0,0,0,1.819,3.084,7.808,7.808,0,0,0,3.223,1.993c.944.353,1.889.617,2.8.951,1.161.774,2.315,1.494,3.437,2.158a8.739,8.739,0,0,0,2.925,2.093,40.064,40.064,0,0,0,5.176,1.7c2.114.267,3.425-.135,3.272-1.928-.747-8.727-4.787-22.637-4.787-22.637s-2.434-12.51,7.745-15.658c18.1-5.6,20.817-15.817,20.817-15.817s3.663,5.454,6.457,7.693c3.11,2.492,5.086,2.377,5.086,2.377S600.618,303.186,587.258,293.027Z" transform="translate(-525.968 -287.117)" fill="#a76043"/>
      <path id="Tracé_6509" data-name="Tracé 6509" d="M689.674,572.7s-3.65-3.453-6.319-1.988-3.233,8.025,1.315,11.5a10.737,10.737,0,0,0,6.712,2.195Z" transform="translate(-653.95 -530.562)" fill="#ff8426"/>
      <path id="Tracé_6510" data-name="Tracé 6510" d="M897.516,600.949c-.312-.74-.606-1.487-.894-2.236-.553-1.439-.976-2.926-1.556-4.354-.136-.336-.584-.1-.551.2a23.2,23.2,0,0,0,1.1,4.521c.211.66.443,1.31.691,1.957a9.275,9.275,0,0,0,.612,1.478c-.375.159-.732.368-1.119.531a4.636,4.636,0,0,1-2.2.41.515.515,0,0,0-.185,1c1.612.52,4.451.393,4.8-1.711A12.522,12.522,0,0,0,897.516,600.949Z" transform="translate(-835.976 -551.057)" fill="#e66617"/>
      <path id="Tracé_6511" data-name="Tracé 6511" d="M851.955,693.317c-1.847.253-3.6.81-5.489.62a12.267,12.267,0,0,1-5.155-1.887c-.227-.14-.542.161-.373.386a8.151,8.151,0,0,0,5.193,3.112c2.088.352,4.611.092,6.136-1.515C852.494,693.792,852.335,693.264,851.955,693.317Z" transform="translate(-791.122 -635.136)" fill="#e66617"/>
      <path id="Tracé_6512" data-name="Tracé 6512" d="M805.188,554.223a5.959,5.959,0,0,0-2.439-.58,15.649,15.649,0,0,0-3.879.406,18.938,18.938,0,0,0-3.96,1.365c-.458.23-1.021.7-.959,1.28.09.842.476,1.029,1.281,1,1.586-.048,2.6-.831,4.189-.879,1.291-.039,2.7.236,3.995.321a1.823,1.823,0,0,0,1.747-.641C805.645,555.747,805.784,554.7,805.188,554.223Z" transform="translate(-750.774 -516.198)" fill="#895036"/>
      <path id="Tracé_6513" data-name="Tracé 6513" d="M936.055,549.13c-.109-.774-.495-1.193-1-1.237a24.277,24.277,0,0,0-4.184.1,3.429,3.429,0,0,0-1.557.345,1.54,1.54,0,0,0,.27,2.674c.436.191,3.817-.851,4.683-.932,1.1-.1,1.6.212,1.867-.006A4.263,4.263,0,0,0,936.055,549.13Z" transform="translate(-866.557 -511.209)" fill="#895036"/>
      <path id="Tracé_6514" data-name="Tracé 6514" d="M695.435,589.227a4.284,4.284,0,0,1,2.444-3.565c.513-.282.975.527.518.871a3.321,3.321,0,0,0-1.466,2.572c.059,1.012,1.17,1.753,1.826,2.4a.516.516,0,0,1-.37.914A3.566,3.566,0,0,1,695.435,589.227Z" transform="translate(-666.1 -543.673)" fill="#e66617"/>
      <path id="Tracé_6515" data-name="Tracé 6515" d="M509.6,830.8l-.369-1.632c-.514-.542-1.017-1.075-1.494-1.585-1.052-1.124-2.632-2.87-2.632-2.87l-.047-.054-.4.229c-3.8,2.179-9.991,5.938-12.868,8.855-3.811,3.864-3.936,17.3-3.974,17.494a39.551,39.551,0,0,0-.517,10.571c.231,3.533.6,7.071.509,10.615-.094,3.663-1.127,7.221-1.188,10.882a26.527,26.527,0,0,0,.758,6.518,21.271,21.271,0,0,0,.888,2.863,2.649,2.649,0,0,1,.083.289c10.544-.891,20.429-4.945,29.77-10.072l-2.5-25.373Z" transform="translate(-486.617 -749.151)" fill="#3f6c85"/>
      <path id="Tracé_6516" data-name="Tracé 6516" d="M496.218,1248.327c.136,1.087,1.228,5.218,1.228,5.218s19.234,1.045,30.093-9.334l-.971-6C517.227,1243.337,506.762,1247.435,496.218,1248.327Z" transform="translate(-494.869 -1104.604)" fill="#29536b"/>
      <circle id="Ellipse_13" data-name="Ellipse 13" cx="1.074" cy="1.074" r="1.074" transform="matrix(0.966, -0.258, 0.258, 0.966, 31.676, 50.385)" fill="#fff"/>
      <path id="Tracé_6517" data-name="Tracé 6517" d="M699.87,636.13a.865.865,0,1,1-.88-.851A.865.865,0,0,1,699.87,636.13Z" transform="translate(-668.425 -586.371)" fill="#fff"/>
      <path id="Tracé_6518" data-name="Tracé 6518" d="M672.146,613.231a1.989,1.989,0,0,0,1.792-.258c.272-.225.876.235.7.407s-2.215,1.03-2.938.294.236-1.538.236-1.538a2.35,2.35,0,0,1,.916-.474l.058.473S671.588,612.839,672.146,613.231Z" transform="translate(-645.472 -566.071)" fill="#fff"/>
      <path id="Tracé_6519" data-name="Tracé 6519" d="M751,459.91s19.6-8.542,21.252-14.163c0,0-7.787,6.154-10.61,8.036C759.155,455.442,751,459.91,751,459.91Z" transform="translate(-713.863 -423.463)" fill="#ff8426"/>
      <path id="Tracé_6520" data-name="Tracé 6520" d="M1127.665,1006.785c1.265-2.2,1.879-3.594,3.28-5.667.4-.6,1.433-1.186,2.068-.851.354.187-.152,1.625-1.585,4.365-.594,1.136-1.205,2.664-1.924,4.064a23.821,23.821,0,0,1-1.34,2.02c-.626-.531-1.048-2.073-1.722-2.513C1126.964,1007.623,1127.542,1006.939,1127.665,1006.785Z" transform="translate(-1036.563 -900.003)" fill="#ff8426"/>
      <path id="Tracé_6521" data-name="Tracé 6521" d="M1139.522,1024.97c.213-.321,1.03-1.209,1.03-1.209.871-1.778,2.172-3.537,3.145-5.517a1.909,1.909,0,0,1,1.282-1.07c1.076-.183.738,1.032.456,1.749a35.313,35.313,0,0,1-2.608,5.771h0c-.119.208-.424.634-.717,1.046C1141.532,1025.271,1140.143,1025.372,1139.522,1024.97Z" transform="translate(-1047.804 -914.602)" fill="#ff8426"/>
      <path id="Tracé_6522" data-name="Tracé 6522" d="M1151.626,1046.93a42.411,42.411,0,0,1,2.159-4.129,4.256,4.256,0,0,1,1.713-1.551c.742-.251.707.585.509,1.342a28.27,28.27,0,0,1-2.029,5.17l-.151.3c-.093.17-.215.388-.328.591a23.176,23.176,0,0,0-2.177-1.23C1151.479,1047.172,1151.612,1046.955,1151.626,1046.93Z" transform="translate(-1057.945 -935.273)" fill="#ff8426"/>
      <path id="Tracé_6523" data-name="Tracé 6523" d="M1193.687,978.7c.117-.351.158-.605-.206-.673a8.343,8.343,0,0,0-2.215-.153,10.051,10.051,0,0,0-1.449,2.8.5.5,0,0,0,.317.729,14.781,14.781,0,0,0,2.065.007C1192.459,981.407,1193.357,979.691,1193.687,978.7Z" transform="translate(-1090.989 -880.807)" fill="#130806"/>
      <path id="Tracé_6524" data-name="Tracé 6524" d="M1200.054,982.54c-.127.285-.361.458-.522.386s-.189-.361-.062-.646.361-.458.522-.386S1200.181,982.255,1200.054,982.54Z" transform="translate(-1099.262 -884.28)" fill="#29536b"/>
      <path id="Tracé_6525" data-name="Tracé 6525" d="M1208.226,983.86c-.127.285-.361.458-.522.386s-.189-.361-.062-.646.361-.458.522-.386S1208.353,983.575,1208.226,983.86Z" transform="translate(-1106.286 -885.414)" fill="#545050"/>
      <path id="Tracé_6526" data-name="Tracé 6526" d="M1203.59,993.994c-.127.285-.361.458-.522.386s-.189-.361-.062-.647.361-.458.522-.386S1203.717,993.709,1203.59,993.994Z" transform="translate(-1102.301 -894.125)" fill="#545050"/>
      <path id="Tracé_6527" data-name="Tracé 6527" d="M1195.614,993.593c-.127.285-.361.458-.522.386s-.189-.361-.062-.647.361-.458.522-.386S1195.741,993.307,1195.614,993.593Z" transform="translate(-1095.446 -893.78)" fill="#545050"/>
      <path id="Tracé_6528" data-name="Tracé 6528" d="M1087.715,993.994a39.117,39.117,0,0,0-2.529,4.631.388.388,0,0,0,.68.3c.41-.518,2.8-4.463,2.5-4.774S1087.837,993.793,1087.715,993.994Z" transform="translate(-1001.101 -894.59)" fill="#b52100"/>
      <path id="Tracé_6529" data-name="Tracé 6529" d="M1150.229,1045.388c-.386,1.013-.749,2.037-1.124,3.055-.3.811-.655,1.663-.975,2.5-.742,1.023-1.276,2.2-1.987,3.39-.092.154.185.323.31.181a9.2,9.2,0,0,0,1.008-1.667c.227-.406.727-1.233.75-1.268a11.824,11.824,0,0,0,1.141-2.889c.356-1.079.688-2.173.956-3.278A.041.041,0,0,0,1150.229,1045.388Z" transform="translate(-1053.479 -938.844)" fill="#e66617"/>
      <path id="Tracé_6530" data-name="Tracé 6530" d="M1133.893,1060.531c-.361.619-.71,1.157-1.034,1.754-.365.674-.964,1.862-1.272,2.564a.2.2,0,0,0,.34.2,21.667,21.667,0,0,0,1.219-2.543c.3-.615.539-1.238.857-1.909C1134.028,1060.542,1133.929,1060.47,1133.893,1060.531Z" transform="translate(-1040.966 -951.864)" fill="#e66617"/>
      <path id="Tracé_6531" data-name="Tracé 6531" d="M1070.47,1148.424c-.82.638-1.51,1.467-2.272,2.175s-1.558,1.4-2.373,2.063a50.776,50.776,0,0,1-5.34,3.717.225.225,0,0,0,.227.388,34.9,34.9,0,0,0,5.463-3.544,20.939,20.939,0,0,0,4.7-4.485C1071.05,1148.47,1070.683,1148.258,1070.47,1148.424Z" transform="translate(-979.778 -1027.38)" fill="#e66617"/>
      <path id="Tracé_6532" data-name="Tracé 6532" d="M673.375,1334.074c-3.983,2.608-6.513,7.159-7.432,11.755-.087.437.577.626.673.185a22.75,22.75,0,0,1,7.008-11.618C673.791,1334.238,673.573,1333.944,673.375,1334.074Z" transform="translate(-640.746 -1186.974)" fill="#e66617"/>
      <path id="Tracé_6533" data-name="Tracé 6533" d="M676.456,1017.927c-.137-.32-.269-.641-.4-.963a.159.159,0,0,0,.031-.109c-.086-1.321-.349-2.623-.49-3.938s-.22-2.645-.252-3.973a.239.239,0,0,0-.478,0,39.8,39.8,0,0,0,.354,5.761,39.455,39.455,0,0,1-2.047-10.421c-.016-.28-.446-.285-.44,0a37.349,37.349,0,0,0,2.614,13.068c.868,2.178,1.735,4.173,1.68,6.569-.054,2.31-.524,4.7-.18,7,.045.3.512.271.581,0a30.616,30.616,0,0,0,.463-6.826A14.556,14.556,0,0,0,676.456,1017.927Z" transform="translate(-646.592 -903.357)" fill="#29536b"/>
      <path id="Tracé_6534" data-name="Tracé 6534" d="M1269.562,685.239s-.036,41.984.092,45.577c.077,2.143.031,5.55-.017,7.951a1.648,1.648,0,0,0,2.41,1.5c2.417-1.259,6.1-3.173,8.668-4.5a8.271,8.271,0,0,1,3.768-.92c6.317-.018,26.2-.124,37.193-.765,7.971-.464,7.372-4.371,7.51-6.678.427-7.084.762-35.01.811-40.691.05-5.761-.854-7.575-5.506-7.7-3.52-.1-44.562-.654-48.264-.532C1272.983,678.585,1269.946,678.859,1269.562,685.239Z" transform="translate(-1169.573 -660.342)" fill="#18a839"/>
      <path id="Tracé_6535" data-name="Tracé 6535" d="M727.024,417.314a9.483,9.483,0,0,0-1.993,2.227,21.3,21.3,0,0,1-2.239,2.218,23.326,23.326,0,0,1-5.547,3.381c-3.6,1.647-7.669,3.325-9.214,7.286-.155.4.518.668.7.28,1.888-4.127,6.652-5.122,10.376-6.908a22.078,22.078,0,0,0,5.02-3.323,21.248,21.248,0,0,0,2.12-2.144,5.343,5.343,0,0,0,1.541-2.454A.517.517,0,0,0,727.024,417.314Z" transform="translate(-676.908 -398.96)" fill="#895036"/>
      <path id="Tracé_6536" data-name="Tracé 6536" d="M673.288,470a15.288,15.288,0,0,0-5,3.694,11.357,11.357,0,0,0-2.891,5.253.428.428,0,0,0,.828.213,11.253,11.253,0,0,1,3.212-4.712c1.349-1.3,3.057-2.307,4.295-3.714C674,470.43,673.728,469.824,673.288,470Z" transform="translate(-640.271 -444.282)" fill="#895036"/>
      <path id="Tracé_6537" data-name="Tracé 6537" d="M652.768,472.164c-1.5.288-2.778,1.648-3.711,2.783a12.992,12.992,0,0,0-2.364,4.4c-.08.257.293.434.391.172a12.329,12.329,0,0,1,2.457-4.023c1.034-1.126,2.423-1.812,3.462-2.9A.265.265,0,0,0,652.768,472.164Z" transform="translate(-624.196 -446.166)" fill="#895036"/>
      <path id="Tracé_6538" data-name="Tracé 6538" d="M804.825,562.264s-2.117-.541-.378-2.543c.211-.243-.018-.758-.562-.3a1.984,1.984,0,0,0,.6,3.431C804.96,563.041,805.107,562.456,804.825,562.264Z" transform="translate(-758.67 -521.011)" fill="#fff"/>
      <path id="Tracé_6539" data-name="Tracé 6539" d="M822.592,601.146a1.4,1.4,0,0,0,.875.516,1.375,1.375,0,0,0,1.23-.609c.424-.908.687-3.918-1.007-3.714C822.208,597.518,821.828,600.154,822.592,601.146Z" transform="translate(-775.065 -553.752)" fill="#5c3d3d"/>
      <path id="Tracé_6540" data-name="Tracé 6540" d="M946.909,585.267a1.4,1.4,0,0,0,.875.516,1.375,1.375,0,0,0,1.23-.609c.425-.908.687-3.918-1.007-3.714C946.524,581.639,946.144,584.275,946.909,585.267Z" transform="translate(-881.918 -540.104)" fill="#5c3d3d"/>
      <path id="Tracé_6541" data-name="Tracé 6541" d="M830.515,317.239c-.4-.9-.879-1.778-1.352-2.647a42.749,42.749,0,0,0-3.2-5.084c-2.079-2.793-4.577-5.418-7.978-6.5a.32.32,0,0,0-.309.531,42.455,42.455,0,0,1,6.919,7.251,43.406,43.406,0,0,1,2.816,4.643c.441.829.843,1.677,1.28,2.508a6.9,6.9,0,0,0,1.557,2.347.645.645,0,0,0,1.086-.45A6.29,6.29,0,0,0,830.515,317.239Z" transform="translate(-771.089 -300.765)" fill="#895036"/>
      <path id="Tracé_6542" data-name="Tracé 6542" d="M588.7,636.049c-.714,2.891-1.941,5.609-2.861,8.435-.868,2.666-1.557,5.5-.872,8.278a.241.241,0,0,0,.472-.064,27.339,27.339,0,0,1,1.29-8.482,78.992,78.992,0,0,0,2.372-8.056C589.153,635.9,588.766,635.787,588.7,636.049Z" transform="translate(-570.913 -586.904)" fill="#895036"/>
      <path id="Tracé_6543" data-name="Tracé 6543" d="M599.89,685.181a37.729,37.729,0,0,0-1.04,5.5,20.82,20.82,0,0,0-.091,5.586c.068.418.669.279.7-.094.134-1.771.027-3.55.193-5.325a36.3,36.3,0,0,1,.956-5.47A.372.372,0,0,0,599.89,685.181Z" transform="translate(-582.872 -629.036)" fill="#895036"/>
      <path id="Tracé_6544" data-name="Tracé 6544" d="M643.589,672.532a32,32,0,0,1-2.77-10,78.454,78.454,0,0,1-.743-11.255.377.377,0,0,0-.754,0,52.475,52.475,0,0,0,.385,11.561,26.692,26.692,0,0,0,3.174,10.1A.41.41,0,0,0,643.589,672.532Z" transform="translate(-617.733 -599.811)" fill="#895036"/>
      <path id="Tracé_6545" data-name="Tracé 6545" d="M671.466,748.133c-.871-2.124-1.883-4.178-2.663-6.341a37.718,37.718,0,0,1-1.72-6.672c-.056-.34-.57-.195-.516.142.707,4.431,1.914,9.295,4.479,13.046C671.182,748.508,671.57,748.389,671.466,748.133Z" transform="translate(-641.285 -672.02)" fill="#895036"/>
    </g>
    <g id="Groupe_1092" data-name="Groupe 1092" transform="translate(601.269 321.452)">
      <path id="Tracé_6546" data-name="Tracé 6546" d="M1348.271,726.636c.6-.226.651-.69.785-1.058a.439.439,0,0,0-.376-.53c-.3-.065-.412.1-.41.38,0,.374,0,.748,0,1.208Zm.971,3.79a1.95,1.95,0,0,0-.339-1.373c-1.057-1.914-4.057-2.344-5.374-.652a1.223,1.223,0,0,0-.105,1.428.809.809,0,0,0,1.129.113c.644-.5.7.059.855.39.318.676.676.829,1.328.433.39-.236.543-.258.655.263.1.453.282.953.959.841a.982.982,0,0,0,.892-1.055c0-.13,0-.259,0-.388Zm-22.357,9.763c0,.207-.011.414,0,.62a1.266,1.266,0,0,0,1.158,1.274c.659-.013,1.045-.517,1.025-1.337-.011-.438-.046-.88-.02-1.316a4.256,4.256,0,0,1,3.175-3.8c1.747-.446,3.555-.649,5.327-1.006a15.136,15.136,0,0,0,2.174-.653c.174-.062.525-.217.388-.518a.469.469,0,0,0-.622-.286,26.507,26.507,0,0,1-5.744.846,19.491,19.491,0,0,0-2.124.258,6.346,6.346,0,0,0-4.739,5.923Zm19.063-3.7c-.332-.6-.411-1.284-1.111-1.572a1.475,1.475,0,0,0-2.12,1.059c-.085.487-.3.588-.716.565-.594-.032-1.188-.022-1.781-.068a1.432,1.432,0,0,0-1.646,1.04c-.3,1.1-1.166,1.855-1.587,2.887a7.812,7.812,0,0,0-.277,5.086c.1.371-.056.5-.338.646a8.686,8.686,0,0,1-6.293.659,7.26,7.26,0,0,1-4.745-3.626,7.115,7.115,0,0,1,1.641-8.558,8.727,8.727,0,0,1,5.194-2.146c1.925-.2,3.849-.432,5.756-.826a27.167,27.167,0,0,0,3.887-1.012c.365-.134.664-.283.519-.76a2.591,2.591,0,0,1,1.276-2.969,4.717,4.717,0,0,1,3.015-.592c.445.039.714-.066.6-.6a1.274,1.274,0,0,1,1.01-1.61c1.115-.141,1.858.379,1.912,1.31a2.518,2.518,0,0,1-.648,1.655c-.257.348-.388.564-.032.955a4.7,4.7,0,0,1,.9,1.894c.258.87-.322,2.649-1.506,2.9-.963.2-1.024,1.165-1.49,1.783a11.948,11.948,0,0,1-1.42,1.9Z" transform="translate(-1324.545 -724.065)" fill="#fff" fill-rule="evenodd"/>
      <path id="Tracé_6547" data-name="Tracé 6547" d="M1391.187,802.21c-.945,0-1.536.495-1.571,1.239-.037.788,1.018,1.5,1.851,1.534a1.581,1.581,0,0,0,1.565-1.36,1.8,1.8,0,0,0-1.845-1.413Zm2.9,6.524a6.538,6.538,0,0,1-6.255-4.327,6.323,6.323,0,0,1,.893-5.941.559.559,0,0,1,.8-.2,1.572,1.572,0,0,0,.705.252c.3.01.383.239.267.42a1.364,1.364,0,0,0,.388,1.945,1.535,1.535,0,0,0,2.044.04c1.22-1.171,2.39-.79,3.593-.139a1.268,1.268,0,0,0,1.635-.346,1.1,1.1,0,0,0,.207-1.5c-.093-.167-.619-.438-.187-.71a.723.723,0,0,1,1.037.357,6.47,6.47,0,0,1-3.093,9.748,3.693,3.693,0,0,1-2.038.4Z" transform="translate(-1374.575 -782.963)" fill="#fff" fill-rule="evenodd"/>
      <path id="Tracé_6548" data-name="Tracé 6548" d="M1407.092,783.9c-.688.24-1.373.491-2.066.714-.515.166-.562.373-.142.722a4.742,4.742,0,0,1,.665.694c.158.2.52.409.262.687-.188.2-.551.116-.8-.025-.37-.208-.79-.35-1.124-.574a1.526,1.526,0,0,0-1.934.19,11.125,11.125,0,0,1-1.052.711c-.266.14-.662.223-.846-.054a.724.724,0,0,1,.144-.831c.844-1.085.831-1.136-.474-1.458-.4-.1-.762-.278-1.16-.351-.214-.039-.392-.088-.418-.36-.031-.315.241-.425.408-.48a1.256,1.256,0,0,1,.831-.008,5.941,5.941,0,0,0,1.746.238c.723.107.951-.291,1.034-.893a1.3,1.3,0,0,1,.1-.524c.117-.171.152-.443.454-.461.318-.019.33.233.458.414a1.99,1.99,0,0,1,.262.78c.225.994.4,1.064,1.38.791a9.051,9.051,0,0,1,2.252-.138c.008.075.017.147.026.219Z" transform="translate(-1383.083 -770.01)" fill="#fff" fill-rule="evenodd"/>
    </g>
  </g>
</svg>
