<svg xmlns="http://www.w3.org/2000/svg" xmlns:xlink="http://www.w3.org/1999/xlink" width="143.864" height="128.664" viewBox="0 0 143.864 128.664">
  <defs>
    <linearGradient id="linear-gradient" x1="2.772" y1="17.468" x2="-2.138" y2="-20.263" gradientUnits="objectBoundingBox">
      <stop offset="0.156" stop-color="#ffe2bd"/>
      <stop offset="1" stop-color="#ffcd8c"/>
    </linearGradient>
    <linearGradient id="linear-gradient-2" x1="0.64" y1="4.129" x2="0.286" y2="-4.108" xlink:href="#linear-gradient"/>
    <linearGradient id="linear-gradient-3" x1="0.606" y1="1.67" x2="0.423" y2="-0.559" gradientUnits="objectBoundingBox">
      <stop offset="0.156" stop-color="#fff"/>
      <stop offset="1" stop-color="#fff"/>
    </linearGradient>
    <linearGradient id="linear-gradient-4" x1="0.599" y1="1.828" x2="0.413" y2="-0.928" gradientUnits="objectBoundingBox">
      <stop offset="0.156" stop-color="#d1edff"/>
      <stop offset="1" stop-color="#fff"/>
    </linearGradient>
  </defs>
  <g id="contact-illus" transform="matrix(0.998, 0.07, -0.07, 0.998, -944.955, -1308.161)">
    <path id="Tracé_6972" data-name="Tracé 6972" d="M1136.99,1237.956s-52.34,29.011-67.725,46.154l128.384,2.2S1156.889,1253.578,1136.99,1237.956Z" transform="translate(-19.606)" fill="#13c084" fill-rule="evenodd"/>
    <g id="Groupe_1203" data-name="Groupe 1203" transform="translate(1042.22 1249.77)">
      <path id="Tracé_6973" data-name="Tracé 6973" d="M1049.66,1405.73l-7.44,68.572,133.187,5.275,2.638-71.648Z" transform="translate(-1042.22 -1371.39)" fill="#34d19a" fill-rule="evenodd"/>
      <path id="Tracé_6974" data-name="Tracé 6974" d="M1049.66,1405.73l-7.44,68.572,133.187,5.275,2.638-71.648Z" transform="translate(-1042.22 -1371.39)" fill="#34d19a" fill-rule="evenodd"/>
      <path id="Tracé_6975" data-name="Tracé 6975" d="M1454.6,1421.081c1.853-1.681,3.571-5.949,4.527-8.718l-13.134-.225c.616,3.216,1.784,8.989,2.439,12.2Z" transform="translate(-1334.917 -1376.035)" fill-rule="evenodd" opacity="0.47" fill="url(#linear-gradient)" style="mix-blend-mode: multiply;isolation: isolate"/>
      <path id="Tracé_6976" data-name="Tracé 6976" d="M1187.53,1311.186c.1-.528.187-1.08.266-1.648-9.232-7.4-23.433-18.759-35.865-28.635-8.78,2.059-17.7,3.487-26.633,4.676-4.7.625-9.372,1.039-14.1,1.281-1.491.076-2.983.153-4.474.248-14.438,9.129-30.131,19.976-37.453,28.135l116.778,2A54.059,54.059,0,0,0,1187.53,1311.186Z" transform="translate(-1061.825 -1280.902)" fill-rule="evenodd" opacity="0.39" fill="url(#linear-gradient-2)" style="mix-blend-mode: multiply;isolation: isolate"/>
      <path id="Tracé_6977" data-name="Tracé 6977" d="M1175.406,1548.932l-60.535-47.526c-29.738,14.067-72.652,42.251-72.652,42.251Z" transform="translate(-1042.22 -1440.747)" fill="#13c084" fill-rule="evenodd"/>
      <path id="Tracé_6978" data-name="Tracé 6978" d="M1098.221,1334.418s2.393-9.075-1.778-27.885c47.672-3.188,64.285-5.465,99.2-6.465,0,0,7.208,21.133,4.19,40.6l-38.4,20.471-7.245-5.688-8.816,4.371Z" transform="translate(-1081.526 -1294.795)" fill-rule="evenodd" fill="url(#linear-gradient-3)"/>
      <g id="Groupe_1201" data-name="Groupe 1201" transform="translate(79.773 36.285)">
        <rect id="Rectangle_12" data-name="Rectangle 12" width="63.376" height="0.55" transform="translate(0 29.829) rotate(-28.078)" fill="#fff"/>
      </g>
      <g id="Groupe_1202" data-name="Groupe 1202" transform="translate(7.303 34.101)">
        <path id="Tracé_6979" data-name="Tracé 6979" d="M1125.18,1436.042c-19.292-9.3-56.045-30.489-56.414-30.7l.275-.476c.369.213,37.1,21.393,56.378,30.682Z" transform="translate(-1068.766 -1404.864)" fill="#fff"/>
      </g>
      <path id="Tracé_6980" data-name="Tracé 6980" d="M1199.286,1345.9a21.161,21.161,0,0,1-9.637,4.064c-5.078.668-10.214.766-15.315,1.17a63.093,63.093,0,0,0-15.111,2.792c-4.1,1.371-7.9,3.444-11.928,4.986a29.861,29.861,0,0,1-6.123,1.7,27.115,27.115,0,0,1-6.433.1c-4.368-.366-8.711-.973-13.08-1.323-6.128-.491-12.459-.418-18.189,1.582a25.65,25.65,0,0,1-.563,4.241l47.141,25.409,8.817-4.372,7.245,5.688,38.4-20.471c1.6-10.3.331-21.065-1.215-28.921A42.705,42.705,0,0,1,1199.286,1345.9Z" transform="translate(-1086.211 -1325.582)" fill-rule="evenodd" opacity="0.55" fill="url(#linear-gradient-4)" style="mix-blend-mode: multiply;isolation: isolate"/>
    </g>
  </g>
</svg>
