<svg xmlns="http://www.w3.org/2000/svg" width="290.754" height="209.179" viewBox="0 0 290.754 209.179">
  <g id="logo" transform="translate(145.377 104.589)">
    <g id="Groupe_1220" data-name="Groupe 1220" transform="translate(-145.377 -104.589)">
      <g id="Groupe_1213" data-name="Groupe 1213" transform="translate(77.804 35.618)">
        <path id="Tracé_7015" data-name="Tracé 7015" d="M631.806,243.313a.953.953,0,0,1,.233-1.1,62.577,62.577,0,0,0-3-94.084.981.981,0,0,1-.042-1.3.992.992,0,0,1,1.293-.2,64.54,64.54,0,0,1,3.083,97.038.991.991,0,0,1-1.57-.348Z" transform="translate(-523.781 -139.441)" fill="#18a839"/>
        <path id="Tracé_7016" data-name="Tracé 7016" d="M341.429,477.365a.992.992,0,0,1-1.192.174,65.005,65.005,0,0,1-16.111-12.915.987.987,0,1,1,1.454-1.3A63.028,63.028,0,0,0,341.2,475.859a.982.982,0,0,1,.2,1.535Z" transform="translate(-307.474 -364.226)" fill="#18a839"/>
        <path id="Tracé_7017" data-name="Tracé 7017" d="M270.81,196.39a.988.988,0,0,1-.96-.724,64.762,64.762,0,0,1,31.931-73.351.986.986,0,1,1,.931,1.737,62.8,62.8,0,0,0-30.971,71.121.984.984,0,0,1-.7,1.187Z" transform="translate(-267.739 -122.199)" fill="#18a839"/>
        <path id="Tracé_7018" data-name="Tracé 7018" d="M598.143,224.881a.991.991,0,0,0,1.367-.319,56.492,56.492,0,0,0-22.771-79.577.986.986,0,1,0-.9,1.737,54.556,54.556,0,0,1,21.985,76.826A.982.982,0,0,0,598.143,224.881Z" transform="translate(-485.785 -138.268)" fill="#18a839"/>
        <path id="Tracé_7019" data-name="Tracé 7019" d="M329.967,268.155a.992.992,0,0,1-1.134.2,56.432,56.432,0,0,1-14.744-92.666.987.987,0,1,1,1.338,1.448,54.51,54.51,0,0,0,14.25,89.48.982.982,0,0,1,.291,1.593Z" transform="translate(-287.781 -159.997)" fill="#18a839"/>
      </g>
      <g id="Groupe_1216" data-name="Groupe 1216" transform="translate(100.127)">
        <path id="Tracé_7020" data-name="Tracé 7020" d="M452.519,243.506c6.689-6.718,2.559-12.742,2.53-12.8a.89.89,0,0,0-1.541.145l-3.664,7.848.436-8.4a.9.9,0,0,0-1.309-.84c-.058.029-6.369,3.359-3.839,12.191a6.519,6.519,0,0,0-5.7,4.546h.145l3.9,1.3a.9.9,0,0,1-.291,1.737l-.291-.058-3.693-1.245v5.7l4.1,1.245a.9.9,0,0,1-.262,1.737h-.262l-3.577-1.071v7.587c.116-.029,3.49,0,3.577.232a8.612,8.612,0,0,1,5.031-4.865,7.528,7.528,0,0,1,2.7-3.938l-1.716-.492a.9.9,0,0,1,.494-1.709l3.548,1.014.931-.232a18.612,18.612,0,0,0,1.4-3.707A8.582,8.582,0,0,0,452.519,243.506Z" transform="translate(-411.66 -162.713)" fill="#18a839"/>
        <path id="Tracé_7021" data-name="Tracé 7021" d="M527.432,247.558a12.237,12.237,0,0,0,2.821-7.355,1.278,1.278,0,0,0-1.6-1.3c-1.89.463-5,1.622-6.747,4.257-.058-1.361-.145-2.375-.145-2.461a.817.817,0,0,0-1.629.145,43.143,43.143,0,0,1-.058,8.108c-5.787-.492-7.939,3.562-8.375,5.3s-1.105,3.88-1.6,5.3a7.01,7.01,0,0,1,2.821,1.911,7.692,7.692,0,0,1,10.44,3.562,46.956,46.956,0,0,0,3.49-4.952c.2-3.475.378-7.877-2.879-9.962A10.263,10.263,0,0,0,527.432,247.558Z" transform="translate(-461.942 -169.458)" fill="#18a839"/>
        <path id="Tracé_7022" data-name="Tracé 7022" d="M485.283,339.047a.9.9,0,1,1,1.658.666,3.534,3.534,0,0,0,3.257,4.894h.523a.9.9,0,0,1,.9.286.9.9,0,0,1-.606,1.481l-.814.058a5.3,5.3,0,0,1-4.915-7.355Z" transform="translate(-444.046 -240.155)" fill="#18a839"/>
        <path id="Tracé_7023" data-name="Tracé 7023" d="M450.245,392.7v.232l.087.405v.116l.058.145h10.876a5.726,5.726,0,0,0-9.771-5.5l-.174.232a5.727,5.727,0,0,0-.872,1.564l-.058.116-.087.29-.058.261-.058.232-.058.319v.174a3.134,3.134,0,0,0-.029.521h0a3.311,3.311,0,0,0,.029.55A1.584,1.584,0,0,0,450.245,392.7Z" transform="translate(-419.39 -274.088)" fill="#18a839"/>
        <path id="Tracé_7024" data-name="Tracé 7024" d="M388.344,369.089a7.929,7.929,0,0,1,10.731-8.716l.989.376a7.927,7.927,0,0,1,2.7-1.158,7.814,7.814,0,0,1-4.042-6.805,7.7,7.7,0,0,1,.058-.84A17.574,17.574,0,0,0,377.7,369.089ZM393.258,356a15.8,15.8,0,0,1,2.414-.376.9.9,0,0,1,.145,1.766,13.957,13.957,0,0,0-2.152.348h-.2a.9.9,0,0,1-.2-1.766Zm-10.091,7.674a15.645,15.645,0,0,1,6.718-6.458.9.9,0,0,1,.814,1.593,13.875,13.875,0,0,0-5.962,5.7.9.9,0,0,1-1.57-.869Z" transform="translate(-368.045 -249.55)" fill="#18a839"/>
        <path id="Tracé_7025" data-name="Tracé 7025" d="M554.991,251.251l1.861-9.064s.523-2.114-1.309-2.577a2.392,2.392,0,0,0-2.675,1.3l-2.181,8.34c-4.1-.405-7.1,1.274-10.993,9.846a47.841,47.841,0,0,1-6.747,10.193,8.105,8.105,0,0,1-.029,2.2,7.489,7.489,0,0,1-2.646,13.234,7.709,7.709,0,0,1-4.188-.116l-2.385,4.865h20.88v-9.73a2.467,2.467,0,0,1,2.472-2.461h4.827a2.442,2.442,0,0,0,2.53-1.853c.989-4.488,2.937-13.639,3.373-16.911A8.7,8.7,0,0,0,554.991,251.251ZM542.341,265.5a51.93,51.93,0,0,1-4.246,5.821.9.9,0,0,1-1.195-.135.9.9,0,0,1,0-1.2,47.456,47.456,0,0,0,3.926-5.444.9.9,0,1,1,1.512.956Zm13.145-1.651h-.262a.9.9,0,0,1-.872-.637c0-.029-.814-2.519-2.065-2.288-2.094.405-3.752-.261-5.322-2.172s-3.606.087-3.693.145a.9.9,0,0,1-1.047-1.448c1.28-.927,4.217-2.114,6.107.145,1.338,1.593,2.414,1.766,3.635,1.564,2.3-.434,3.664,2.027,4.13,3.562a.9.9,0,0,1-.611,1.129Z" transform="translate(-471.586 -169.937)" fill="#18a839"/>
        <path id="Tracé_7026" data-name="Tracé 7026" d="M357.973,201.385H357.8a.84.84,0,0,1-.64-.985c.64-2.925,2.385-10.135,5.147-13.784s11.138-6.284,18.176-8.253l.669-.174.582-1.882a1.834,1.834,0,0,1,3.519.029l2.85,10.193,5.206-5.878a1.835,1.835,0,0,1,1.367-.608h2.821a1.836,1.836,0,0,1,1.367.608l5.206,5.878,2.85-10.193a1.834,1.834,0,0,1,3.519-.029l.582,1.853c4.071,1.129,15.326,4.517,18.845,8.427a14.086,14.086,0,0,1,2.937,5.1.843.843,0,1,1-1.57.608,13.144,13.144,0,0,0-2.617-4.6c-3.432-3.851-15.995-7.384-18.467-8.05a.842.842,0,0,1-.582-.579l-.7-2.317a.146.146,0,0,0-.262,0l-3.257,11.67a.842.842,0,0,1-.611.579.816.816,0,0,1-.814-.261l-6.223-7.037-.116-.058h-2.821l-.116.058-6.223,7.037a.816.816,0,0,1-.814.261.842.842,0,0,1-.611-.579l-3.257-11.67a.149.149,0,0,0-.291,0l-.7,2.317a.842.842,0,0,1-.582.55l-1.105.319c-3.606,1.014-14.57,4.054-17.274,7.645s-4.362,10.917-4.827,13.118a.843.843,0,0,1-.989.695Z" transform="translate(-353.466 -124.096)" fill="#18a839"/>
        <path id="Tracé_7027" data-name="Tracé 7027" d="M416.581,17.183a22.032,22.032,0,0,0-43.3-.058C363.188,18.37,354.9,20.658,354.9,24.306c0,2.461,3.548,4.431,10.847,5.965h.2a.984.984,0,0,0,.2-1.94c-7.328-1.535-9.277-3.243-9.277-4.025s2.21-2.693,10.556-4.286a152.53,152.53,0,0,1,27.249-2.172,149.882,149.882,0,0,1,27.249,2.172c8.346,1.593,10.556,3.5,10.556,4.286s-1.948,2.49-9.277,4.025a.991.991,0,1,0,.407,1.94c7.3-1.535,10.847-3.475,10.847-5.965C434.466,20.715,426.44,18.457,416.581,17.183Z" transform="translate(-351.876 0.8)" fill="#18a839"/>
        <g id="Groupe_1215" data-name="Groupe 1215" transform="translate(1.123 74.827)">
          <path id="Tracé_7028" data-name="Tracé 7028" d="M363.373,288.243a.846.846,0,0,1-.378-.087,12.383,12.383,0,0,1-5.787-6.226,9.98,9.98,0,0,1-.611-6.255.847.847,0,0,1,1.658.348,8.365,8.365,0,0,0,.494,5.212,11.581,11.581,0,0,0,2.472,3.562,14.221,14.221,0,0,1-.7-4.054,12.091,12.091,0,0,1,1.338-5.7.843.843,0,1,1,1.512.724,10.389,10.389,0,0,0-1.163,4.923,11.779,11.779,0,0,0,1.89,6.226.84.84,0,0,1-.7,1.3Z" transform="translate(-354.027 -269.594)" fill="#18a839"/>
          <path id="Tracé_7029" data-name="Tracé 7029" d="M375.06,321.49l1.192-.29a.9.9,0,0,1,.32,1.737l-1.047.232h-.233a.9.9,0,0,1-.233-1.737Zm-9.335,9.44a13.442,13.442,0,0,1,5.991-7.992.9.9,0,1,1,.931,1.506,11.675,11.675,0,0,0-5.206,6.921.9.9,0,0,1-.872.666h-.2a.9.9,0,0,1-.64-1.1Z" transform="translate(-360.653 -302.783)" fill="#18a839"/>
          <g id="Groupe_1214" data-name="Groupe 1214">
            <path id="Tracé_7030" data-name="Tracé 7030" d="M396.293,275.727a.845.845,0,0,1-.582-.232c-1.861-1.853-6.543-1.651-8.172-1.419a.84.84,0,0,1-.756-1.361,9.327,9.327,0,0,0,1.861-6.2c-.233-2.693-2.181-5.531-3.17-6.834l-1.25,1.245a.846.846,0,0,1-1.178-.014.837.837,0,0,1-.014-1.173l1.919-1.911a.875.875,0,0,1,.611-.232.845.845,0,0,1,.611.29c.145.174,3.781,4.315,4.159,8.485a10.619,10.619,0,0,1-1.25,5.907c2.21-.087,5.9.087,7.852,2.056a.839.839,0,0,1-.582,1.419Z" transform="translate(-372.784 -257.599)" fill="#18a839"/>
            <path id="Tracé_7031" data-name="Tracé 7031" d="M349.506,335.063a.842.842,0,0,1-.814-.666,13.5,13.5,0,0,1,4.973-13.581.853.853,0,1,1,.989,1.39,11.788,11.788,0,0,0-4.3,11.873.84.84,0,0,1-.64.985Z" transform="translate(-348.36 -302.398)" fill="#18a839"/>
          </g>
        </g>
        <path id="Tracé_7032" data-name="Tracé 7032" d="M504.453,132.3a.985.985,0,1,1-.029-1.969c5.031-.232,6.456-5.7,6.456-5.763a.989.989,0,0,1,1.919.463c-.611,2.4-3.112,7.008-8.288,7.239Z" transform="translate(-457.225 -87.767)" fill="#18a839"/>
        <path id="Tracé_7033" data-name="Tracé 7033" d="M456.731,89.024a6.9,6.9,0,0,0-5.379-6.718l-.2-.087L449.9,81.9v7.124h0v7.355c-.262,1.187-3,12.22-16.4,12.22s-16.547-10.975-16.867-12.22V81.9l-1.28.319-.2.087a6.884,6.884,0,0,0-.494,13.292v.869a.98.98,0,0,0,.029.2A18.83,18.83,0,0,0,433.5,110.539c15.5,0,18.321-13.755,18.35-13.9a.983.983,0,0,0,.029-.174V95.6A6.924,6.924,0,0,0,456.731,89.024Zm-44.989,0a4.922,4.922,0,0,1,2.908-4.488v8.977a4.951,4.951,0,0,1-2.937-4.488Zm40.1,4.488V84.535a4.914,4.914,0,0,1,0,8.977Z" transform="translate(-390.804 -57.952)" fill="#18a839"/>
        <path id="Tracé_7034" data-name="Tracé 7034" d="M425.869,376h-5.9a.7.7,0,0,0-.7.7v10.077a1.538,1.538,0,0,1-1.541,1.535h-64.27a1.538,1.538,0,0,1-1.541-1.535V376.7a.7.7,0,0,0-.7-.7H345.2a.7.7,0,0,0-.7.7v13.35a52.915,52.915,0,0,0,3.926,4.865h77.443a.7.7,0,0,0,.7-.695V376.7A.7.7,0,0,0,425.869,376Zm-77.443,16.738a1.68,1.68,0,1,1,1.687-1.68A1.683,1.683,0,0,1,348.426,392.738Zm74.215,0a1.68,1.68,0,1,1,1.687-1.68A1.683,1.683,0,0,1,422.641,392.738Z" transform="translate(-344.5 -266.886)" fill="#18a839"/>
      </g>
      <g id="Groupe_1217" data-name="Groupe 1217" transform="translate(48.74 118.38)">
        <path id="Tracé_7035" data-name="Tracé 7035" d="M189,415.124a.261.261,0,0,1,.291.29c0,.376-4.595,10.019-6.979,11.989a2.45,2.45,0,0,1-1.512.492,3.183,3.183,0,0,1-1.018-.174l-.233-.116a3.871,3.871,0,0,1-2.559-3.446c-1.338,1.564-3.286,3.388-5.322,3.62-2.85,0-3.868-3.446-3.868-5.126,0-6.4,4.479-14.653,8.957-14.653a4.89,4.89,0,0,1,4.711,4.46c1.018.376,2.53,1.506,2.53,2.664a1.962,1.962,0,0,1-.116.55,22.446,22.446,0,0,0-2.617,9.18c2.472-2.056,4.13-6.805,5.991-8.572A4.048,4.048,0,0,1,189,415.124Zm-10.731-2.78c0-.608-.058-.782-.349-.782-1.745,0-6.107,10.743-6.107,12.915,0,.232.058.376.174.376.669,0,5.933-5.5,5.933-6.458a1.187,1.187,0,0,1-.611-.9.779.779,0,0,1,.116-.348A16.449,16.449,0,0,0,178.269,412.344Z" transform="translate(-167.8 -408)" fill="#18a839"/>
        <path id="Tracé_7036" data-name="Tracé 7036" d="M249.824,415.961a.2.2,0,0,1,.233.232c-.174,0-4.857,12.307-9.859,12.307-1.338,0-2.966-1.506-2.966-4.894-1.512,2.288-3.4,4.517-5.322,4.517s-3.81-2.461-3.81-3.736c0-4.778,3.519-12.539,4.188-14.363a.786.786,0,0,1,.785-.434,2.274,2.274,0,0,1,.9.376c.058,0,.116,0,.116-.116a7.573,7.573,0,0,1,1.28,1.1,1.969,1.969,0,0,1,.843,1.274,1.529,1.529,0,0,0-.058.492v.463c-1.4,2.346-3.751,8.8-3.751,10.628,0,.492.233.55.378.55,2.675,0,6.485-8.919,8.23-13.031.116-.348.291-.608.378-.9l.116-.174a.961.961,0,0,1,.9-.492c1.221,0,3.141,1.506,3.141,2.548a.692.692,0,0,1-.058.348,34.471,34.471,0,0,0-4.3,12.973c2.85-1.824,4.857-6.689,6.834-8.514A4.1,4.1,0,0,1,249.824,415.961Z" transform="translate(-210.564 -409.127)" fill="#18a839"/>
      </g>
      <g id="Groupe_1218" data-name="Groupe 1218" transform="translate(0 133.265)">
        <path id="Tracé_7037" data-name="Tracé 7037" d="M40.216,466.292a2.026,2.026,0,0,1-1.163,1.882c-2.3,1.3-6.66,9.18-7.154,10.657l-.087.319-.407.405c-.9,0-.9-.724-1.309-.811s-1.483-.985-1.483-4.025a18.487,18.487,0,0,1,1.163-6.052c-.087-1.216-.233-3.938-2.152-3.938-6.427,0-19.746,19.344-19.746,30,0,3.446,1.658,6.805,5.758,6.805,3.461,0,7.241-4.025,9.306-6.226,1.076-1.158,1.8-4.112,2.559-5.994a22.687,22.687,0,0,0-7.328,1.882.729.729,0,0,1-.407.087c-.582,0-.727-.405-.727-.9,0-5.647,6.02-7.471,12.767-7.471,4.042,0,6.02,1.969,6.02,5.068,0,.811-.407,1.651-1.221,1.651a5.371,5.371,0,0,1-1.483-.319c-1.57,4.749-4.362,14.276-4.362,19.749a12.107,12.107,0,0,0,1.076,4.344c0,.405-.407.579-1.163.579-2.646,0-8.4-2.143-8.4-4.17a23.038,23.038,0,0,1,1.57-7.471c-3.781,4.923-7.91,7.037-11.516,7.037C4.795,509.381.2,504.053.2,495.54c0-15.406,16.373-36.14,26.435-36.14,2.792,0,6.165,1.158,7.241,3.359.989-.666,1.309-.985,2.152-.985a5.11,5.11,0,0,1,3.054,1.564A4.766,4.766,0,0,1,40.216,466.292Z" transform="translate(-0.2 -459.4)" fill="#18a839"/>
        <path id="Tracé_7038" data-name="Tracé 7038" d="M143.687,525.356c0,2.461-3.955,5.647-3.955,12.133a18.68,18.68,0,0,0,.174,2.056,1.053,1.053,0,0,1-1.163,1.158c-2.385,0-3.635-2.78-3.635-7.7a13.843,13.843,0,0,1,.087-1.8c-3.781,6.313-7.328,12.857-8.55,18.678a1.307,1.307,0,0,1-1.309,1.071c-3.373,0-4.537-2.78-4.537-6.718,0-7.963,4.769-20.242,5.758-21.545a1.9,1.9,0,0,1,1.483-.492c1.89,0,4.624,1.3,4.624,3.041a1.384,1.384,0,0,1-.087.579c-1.57,3.765-4.13,9.18-4.944,14.1.989-3.62,7.561-17.056,13-17.056a3.265,3.265,0,0,1,2.21.9A2,2,0,0,1,143.687,525.356Z" transform="translate(-85.728 -504.014)" fill="#18a839"/>
        <path id="Tracé_7039" data-name="Tracé 7039" d="M220.875,532.654a.377.377,0,0,1,.407.405c0,.579-6.747,14.74-10.295,17.635a3.587,3.587,0,0,1-2.21.724,4.672,4.672,0,0,1-1.483-.232l-.32-.174c-2.21-.666-3.373-2.635-3.781-5.068-1.978,2.288-4.857,5.01-7.823,5.328-4.188,0-5.671-5.068-5.671-7.529,0-9.411,6.572-21.545,13.174-21.545a7.173,7.173,0,0,1,6.921,6.544c1.483.579,3.693,2.2,3.693,3.938a2.856,2.856,0,0,1-.174.811c-2.152,4.257-3.868,9.44-3.868,13.523,3.635-3.041,6.078-9.991,8.812-12.626A5.856,5.856,0,0,1,220.875,532.654Zm-15.791-4.112c0-.9-.087-1.158-.494-1.158-2.559,0-8.957,15.811-8.957,19.025,0,.319.087.579.262.579.989,0,8.724-8.108,8.724-9.5a1.78,1.78,0,0,1-.9-1.3,1.184,1.184,0,0,1,.174-.492A26.488,26.488,0,0,0,205.084,528.542Z" transform="translate(-134.591 -504.014)" fill="#18a839"/>
        <path id="Tracé_7040" data-name="Tracé 7040" d="M290.95,523.873a2.572,2.572,0,0,1,.669,1.564c0,1.158-2.472,4.6-3.373,6.4,3.693-5.328,7.823-9.9,11.022-9.9a4.417,4.417,0,0,1,4.449,4.025c0,2.143-6.921,14.595-7.067,20.415,4.188-2.693,7.154-9.846,10.033-12.626a5.73,5.73,0,0,1,2.646-1.709c.494,0,.32.174.32.405,0,.985-8,17.954-14.4,17.954-2.152,0-4.362-2.056-4.362-5.907,0-6.226,4.362-15.319,5.031-16.969-1.4,1.158-9.713,12.047-13.348,21.487a1.017,1.017,0,0,1-1.076.811c-1.309,0-3.2-1.477-3.2-5.994s1.658-11.062,7.067-21.805a1.28,1.28,0,0,1,1.221-.724c1.309,0,3.2,1.3,4.275,2.548" transform="translate(-197.425 -503.371)" fill="#18a839"/>
        <path id="Tracé_7041" data-name="Tracé 7041" d="M398.245,493.068a.377.377,0,0,1,.407.405,4.683,4.683,0,0,1-.669,1.709l-.814,1.564c-3.054,5.56-7.91,14.682-12.5,14.682-2.646,0-4.857-2.288-5.089-6.718-2.559,3.359-6.078,6.631-9.219,6.631-4.769,0-4.857-7.3-4.857-7.211,0-9.846,6.834-21.052,12.679-21.052a6.379,6.379,0,0,1,4.944,2.375c3.781-11.728,7.736-18.852,8.812-18.852,1.57,0,3.373,2.461,3.373,5.155a5.279,5.279,0,0,1-.407,2.2l-.494,1.216c-3.286,7.7-9.626,22.616-9.626,30.724a13.411,13.411,0,0,0,.174,1.882c4.624-2.143,7.736-10.077,10.7-12.944A5.557,5.557,0,0,1,398.245,493.068Zm-17.769-4.025c0-.9-.087-1.158-.494-1.158-2.559,0-9.132,16.159-9.132,19.749,0,.405.087.666.233.666a48.38,48.38,0,0,0,8.9-9.9v-.405a1.78,1.78,0,0,1-.9-1.3,1.183,1.183,0,0,1,.174-.492,26.489,26.489,0,0,0,1.192-7.153Z" transform="translate(-259.266 -464.515)" fill="#18a839"/>
      </g>
      <g id="Groupe_1219" data-name="Groupe 1219" transform="translate(145.697 133.352)">
        <path id="Tracé_7042" data-name="Tracé 7042" d="M533.48,470.849c0,15.811-10.207,43.263-22.305,43.263-5.264,0-9.044-5.415-9.044-10.743,0-4.749,3.955-14.595,10.295-14.595a5.351,5.351,0,0,1,4.944,4.257.606.606,0,0,0,.087.319,7.7,7.7,0,0,1-.494,1.477c-.087,0-.233.174-.233.174-.669,0-1.163-.724-1.978-1.071-2.385,0-6.747,6.487-6.747,11.641,0,2.143,1.163,3.533,2.966,3.533,4.682,0,9.132-14.016,10.295-17.549,1.8-5.734,3.2-11.554,4.537-17.462a28.57,28.57,0,0,0,.9-7.471c0-2.288-.407-4.257-1.978-4.257-6.427,0-16.14,18.765-16.14,22.037,0,.666.494.985.494,1.158s-.494.579-.727.666h-.582c-2.646,0-6.572-3.272-6.572-5.56,0-4.836,6.078-10.656,10.615-14.247,3.2-2.635,9.219-6.718,14.25-6.718s6.514,3.446,7.154,6.892A22.433,22.433,0,0,1,533.48,470.849Z" transform="translate(-501.2 -459.7)" fill="#18a839"/>
        <path id="Tracé_7043" data-name="Tracé 7043" d="M633.875,532.654a.377.377,0,0,1,.407.405c0,.579-6.747,14.74-10.295,17.635a3.587,3.587,0,0,1-2.21.724,4.672,4.672,0,0,1-1.483-.232l-.32-.174c-2.21-.666-3.373-2.635-3.781-5.068-1.977,2.288-4.857,5.01-7.823,5.328-4.188,0-5.671-5.068-5.671-7.529,0-9.411,6.572-21.545,13.174-21.545a7.173,7.173,0,0,1,6.921,6.544c1.483.579,3.693,2.2,3.693,3.938a2.915,2.915,0,0,1-.174.811c-2.152,4.257-3.868,9.44-3.868,13.523,3.635-3.041,6.078-9.991,8.812-12.626A5.856,5.856,0,0,1,633.875,532.654Zm-15.791-4.112c0-.9-.087-1.158-.494-1.158-2.559,0-8.957,15.811-8.957,19.025,0,.319.087.579.262.579.989,0,8.724-8.108,8.724-9.5a1.78,1.78,0,0,1-.9-1.3,1.184,1.184,0,0,1,.174-.492,26.5,26.5,0,0,0,1.163-7.153Z" transform="translate(-573.183 -504.101)" fill="#18a839"/>
        <path id="Tracé_7044" data-name="Tracé 7044" d="M714.087,525.356c0,2.461-3.955,5.647-3.955,12.133a18.669,18.669,0,0,0,.174,2.056,1.054,1.054,0,0,1-1.163,1.158c-2.385,0-3.635-2.78-3.635-7.7a13.849,13.849,0,0,1,.087-1.8c-3.781,6.313-7.328,12.857-8.55,18.678a1.307,1.307,0,0,1-1.309,1.071c-3.373,0-4.537-2.78-4.537-6.718,0-7.963,4.769-20.242,5.758-21.545a1.9,1.9,0,0,1,1.483-.492c1.89,0,4.624,1.3,4.624,3.041a1.384,1.384,0,0,1-.087.579c-1.57,3.765-4.13,9.18-4.944,14.1.989-3.62,7.561-17.056,13-17.056a3.265,3.265,0,0,1,2.21.9A2.087,2.087,0,0,1,714.087,525.356Z" transform="translate(-635.946 -504.101)" fill="#18a839"/>
        <path id="Tracé_7045" data-name="Tracé 7045" d="M792.745,493.068a.377.377,0,0,1,.407.405,4.683,4.683,0,0,1-.669,1.709l-.814,1.564c-3.054,5.56-7.91,14.682-12.5,14.682-2.646,0-4.857-2.288-5.089-6.718-2.559,3.359-6.078,6.631-9.219,6.631-4.769,0-4.857-7.3-4.857-7.211,0-9.846,6.834-21.052,12.679-21.052a6.379,6.379,0,0,1,4.944,2.375c3.781-11.728,7.736-18.852,8.812-18.852,1.57,0,3.373,2.461,3.373,5.155a5.281,5.281,0,0,1-.436,2.2l-.494,1.216c-3.286,7.7-9.626,22.616-9.626,30.724a13.41,13.41,0,0,0,.174,1.882c4.624-2.143,7.736-10.077,10.7-12.944A5.889,5.889,0,0,1,792.745,493.068Zm-17.769-4.025c0-.9-.087-1.158-.494-1.158-2.559,0-9.132,16.159-9.132,19.749,0,.405.087.666.233.666a48.382,48.382,0,0,0,8.9-9.9v-.405a1.78,1.78,0,0,1-.9-1.3,1.184,1.184,0,0,1,.174-.492A25.4,25.4,0,0,0,774.977,489.042Z" transform="translate(-684.738 -464.602)" fill="#18a839"/>
        <path id="Tracé_7046" data-name="Tracé 7046" d="M864.363,533.364a.377.377,0,0,1,.407.405c0,1.39-8.492,17.867-13.494,17.867-3.693,0-5.176-3.272-5.176-6.718,0-5.5,3.053-13.35,6.514-21.052a1.466,1.466,0,0,1,1.4-.666c1.89,0,4.769,1.564,4.769,3.851a2.943,2.943,0,0,1-.407,1.564c-3.868,6.979-6.66,14.334-6.66,19.17,4.188-2.548,7.154-9.9,10.033-12.713C862.793,534.175,863.781,533.364,864.363,533.364Z" transform="translate(-745.799 -504.812)" fill="#18a839"/>
        <path id="Tracé_7047" data-name="Tracé 7047" d="M923.23,531.939c.233,0,.32.174.32.405,0,.985-8,17.954-14.4,17.954-2.152,0-4.362-2.056-4.362-5.907,0-6.226,4.362-15.319,5.031-16.969-1.4,1.158-9.713,12.047-13.348,21.487a1.017,1.017,0,0,1-1.076.811c-1.309,0-3.2-1.477-3.2-5.994s1.658-11.062,7.067-21.805a1.28,1.28,0,0,1,1.221-.724c1.309,0,3.2,1.3,4.275,2.548,0,0-.174.087.087.087a2.572,2.572,0,0,1,.669,1.564c0,1.158-2.472,4.6-3.373,6.4,3.693-5.328,7.823-9.9,11.022-9.9a4.417,4.417,0,0,1,4.449,4.025c0,2.143-6.921,14.595-7.067,20.415,4.188-2.693,7.154-9.846,10.033-12.626A5.507,5.507,0,0,1,923.23,531.939Z" transform="translate(-778.492 -503.387)" fill="#18a839"/>
      </g>
      <path id="Tracé_7048" data-name="Tracé 7048" d="M886.624,476.173c-2.966,2.461-5.613,4.778-6.369,8.745,2.879-2,6.718-2.461,8.724-4.865s1.716-5.907,1.832-9.353a34.958,34.958,0,0,1-7.3,2.317c-4.333.985-6.369,5.357-4.8,9.7C878.859,483.094,880.953,476.868,886.624,476.173Z" transform="translate(-622.858 -334.163)" fill="#18a839"/>
      <text id="PRODUCTEUR_DE_FRUITS_ET_LÉGUMES_BIO" data-name="PRODUCTEUR DE FRUITS ET LÉGUMES BIO" transform="translate(13.639 205.179)" fill="#18a839" font-size="11" font-family="BrandonGrotesque-Bold, Brandon Grotesque" font-weight="700" letter-spacing="0.15em"><tspan x="0" y="0">PRODU</tspan><tspan y="0" letter-spacing="0.18em">C</tspan><tspan y="0">TEUR DE FRUI</tspan><tspan y="0" letter-spacing="0.14em">T</tspan><tspan y="0">S </tspan><tspan y="0" letter-spacing="0.17em">E</tspan><tspan y="0">T LÉGUMES BIO</tspan></text>
    </g>
  </g>
</svg>
