<svg id="LOGO" xmlns="http://www.w3.org/2000/svg" width="196.102" height="32" viewBox="0 0 196.102 32">
  <g id="Groupe_864" data-name="Groupe 864" transform="translate(0 13.331)">
    <path id="Tracé_5511" data-name="Tracé 5511" d="M347.31,1183.414a.153.153,0,0,1,.162.162c0,.227-2.66,5.838-4.054,6.973a1.415,1.415,0,0,1-.876.292,1.84,1.84,0,0,1-.584-.1l-.13-.065a2.278,2.278,0,0,1-1.492-2.011,5.545,5.545,0,0,1-3.081,2.108c-1.654,0-2.238-2.011-2.238-2.984,0-3.73,2.595-8.53,5.189-8.53a2.823,2.823,0,0,1,2.724,2.594c.584.227,1.46.875,1.46,1.557a1.149,1.149,0,0,1-.065.324,13.139,13.139,0,0,0-1.524,5.352c1.427-1.2,2.4-3.957,3.47-4.995A2.451,2.451,0,0,1,347.31,1183.414Zm-6.227-1.622c0-.357-.032-.454-.195-.454-1.005,0-3.535,6.26-3.535,7.524,0,.13.032.227.1.227.389,0,3.438-3.211,3.438-3.762a.7.7,0,0,1-.357-.519.461.461,0,0,1,.065-.195A9.7,9.7,0,0,0,341.083,1181.792Z" transform="translate(-335.018 -1179.263)" fill="#0c4b31"/>
    <path id="Tracé_5512" data-name="Tracé 5512" d="M408.192,1184.536a.119.119,0,0,1,.13.13c-.1,0-2.822,7.168-5.708,7.168-.778,0-1.719-.876-1.719-2.854-.876,1.33-1.978,2.627-3.081,2.627a2.572,2.572,0,0,1-2.205-2.173c0-2.789,2.043-7.3,2.432-8.368a.461.461,0,0,1,.454-.259,1.312,1.312,0,0,1,.519.227c.032,0,.065,0,.065-.065.162.13.778.649.746.649a1.15,1.15,0,0,1,.486.746.9.9,0,0,0-.032.292v.26a21.531,21.531,0,0,0-2.173,6.195c0,.292.13.324.227.324,1.557,0,3.762-5.189,4.768-7.589.065-.195.162-.357.227-.519l.065-.1a.55.55,0,0,1,.519-.292c.714,0,1.816.876,1.816,1.492a.412.412,0,0,1-.032.195,20.433,20.433,0,0,0-2.5,7.557c1.654-1.07,2.822-3.892,3.957-4.962A2.125,2.125,0,0,1,408.192,1184.536Z" transform="translate(-385.423 -1180.547)" fill="#0c4b31"/>
  </g>
  <g id="Groupe_865" data-name="Groupe 865" transform="translate(27.466)">
    <path id="Tracé_5513" data-name="Tracé 5513" d="M521.661,1106.164a1.178,1.178,0,0,1-.668,1.1c-1.336.764-3.866,5.346-4.152,6.2l-.048.192-.238.238c-.525,0-.525-.43-.764-.478-.048,0-.859-.572-.859-2.338a11.041,11.041,0,0,1,.668-3.531c-.048-.716-.143-2.291-1.241-2.291-3.723,0-11.455,11.263-11.455,17.468,0,2,.955,3.961,3.341,3.961,2,0,4.2-2.339,5.393-3.627.621-.668,1.05-2.386,1.479-3.484a12.928,12.928,0,0,0-4.248,1.1.431.431,0,0,1-.239.048c-.334,0-.429-.239-.429-.525,0-3.293,3.484-4.343,7.4-4.343,2.338,0,3.484,1.145,3.484,2.959,0,.477-.239.954-.715.954a3.1,3.1,0,0,1-.859-.191c-.907,2.768-2.53,8.3-2.53,11.5a7.134,7.134,0,0,0,.621,2.529c0,.239-.239.334-.668.334-1.527,0-4.868-1.241-4.868-2.434a15.047,15.047,0,0,1,.907-4.343c-2.2,2.864-4.581,4.1-6.681,4.1-3.2,0-5.87-3.1-5.87-8.066,0-8.973,9.5-21.047,15.32-21.047,1.623,0,3.58.668,4.2,1.957.573-.381.764-.572,1.241-.572a2.56,2.56,0,0,1,1.766.907A2.789,2.789,0,0,1,521.661,1106.164Z" transform="translate(-498.419 -1102.155)" fill="#0c4b31"/>
    <path id="Tracé_5514" data-name="Tracé 5514" d="M632.931,1166.766c0,1.431-2.291,3.293-2.291,7.063a10.907,10.907,0,0,0,.1,1.194.6.6,0,0,1-.669.667c-1.384,0-2.1-1.622-2.1-4.486a8.119,8.119,0,0,1,.048-1.05c-2.2,3.674-4.247,7.492-4.963,10.881a.766.766,0,0,1-.763.62c-1.957,0-2.625-1.622-2.625-3.914,0-4.629,2.768-11.788,3.341-12.551a1.1,1.1,0,0,1,.859-.286c1.1,0,2.673.763,2.673,1.766a.815.815,0,0,1-.048.334,40.3,40.3,0,0,0-2.864,8.209c.572-2.1,4.391-9.927,7.54-9.927a1.881,1.881,0,0,1,1.289.525A1.313,1.313,0,0,1,632.931,1166.766Z" transform="translate(-599.283 -1154.357)" fill="#0c4b31"/>
    <path id="Tracé_5515" data-name="Tracé 5515" d="M706.751,1171.014a.225.225,0,0,1,.239.238c0,.334-3.914,8.59-5.966,10.261a2.082,2.082,0,0,1-1.288.429,2.711,2.711,0,0,1-.859-.143l-.191-.1a3.351,3.351,0,0,1-2.2-2.959c-1.145,1.337-2.816,2.911-4.534,3.1-2.434,0-3.293-2.959-3.293-4.391,0-5.488,3.818-12.552,7.636-12.552a4.154,4.154,0,0,1,4.008,3.818c.859.334,2.148,1.289,2.148,2.292a1.674,1.674,0,0,1-.1.477,19.339,19.339,0,0,0-2.243,7.875c2.1-1.766,3.532-5.823,5.107-7.35A3.6,3.6,0,0,1,706.751,1171.014Zm-9.163-2.387c0-.525-.048-.668-.287-.668-1.479,0-5.2,9.211-5.2,11.072,0,.191.048.334.144.334.572,0,5.058-4.725,5.058-5.536a1.028,1.028,0,0,1-.525-.763.685.685,0,0,1,.1-.287A14.268,14.268,0,0,0,697.588,1168.627Z" transform="translate(-656.685 -1154.357)" fill="#0c4b31"/>
    <path id="Tracé_5516" data-name="Tracé 5516" d="M784.887,1165.581a1.5,1.5,0,0,1,.382.907c0,.668-1.432,2.673-1.957,3.723,2.147-3.1,4.534-5.775,6.395-5.775a2.561,2.561,0,0,1,2.577,2.338c0,1.289-4.008,8.5-4.1,11.884,2.434-1.575,4.153-5.727,5.823-7.35a3.342,3.342,0,0,1,1.528-1c.143,0,.191.1.191.238,0,.573-4.63,10.452-8.352,10.452-1.241,0-2.53-1.193-2.53-3.436,0-3.628,2.53-8.925,2.911-9.88a47.413,47.413,0,0,0-7.732,12.5.583.583,0,0,1-.62.477c-.764,0-1.862-.859-1.862-3.484,0-2.434.955-6.443,4.1-12.695a.74.74,0,0,1,.716-.429,4.154,4.154,0,0,1,2.481,1.479" transform="translate(-730.62 -1153.649)" fill="#0c4b31"/>
    <path id="Tracé_5517" data-name="Tracé 5517" d="M883.987,1124.671a.225.225,0,0,1,.238.239,3.005,3.005,0,0,1-.382,1l-.477.907c-1.766,3.245-4.581,8.542-7.254,8.542-1.527,0-2.816-1.336-2.959-3.913-1.479,1.957-3.531,3.866-5.345,3.866-2.768,0-2.816-4.248-2.816-4.2,0-5.727,3.961-12.265,7.35-12.265a3.684,3.684,0,0,1,2.864,1.384c2.2-6.824,4.486-10.976,5.107-10.976.907,0,1.957,1.432,1.957,3.007a3.085,3.085,0,0,1-.239,1.288l-.287.715c-1.909,4.486-5.584,13.172-5.584,17.9a7.813,7.813,0,0,0,.1,1.1c2.673-1.241,4.486-5.87,6.2-7.54A3.393,3.393,0,0,1,883.987,1124.671Zm-10.309-2.339c0-.525-.048-.668-.287-.668-1.479,0-5.3,9.4-5.3,11.5,0,.239.048.382.143.382a22.786,22.786,0,0,0,5.154-5.774v-.239a1.028,1.028,0,0,1-.525-.763.684.684,0,0,1,.1-.287A14.266,14.266,0,0,0,873.678,1122.332Z" transform="translate(-803.374 -1108.062)" fill="#0c4b31"/>
  </g>
  <g id="Groupe_866" data-name="Groupe 866" transform="translate(111.959 0.049)">
    <path id="Tracé_5518" data-name="Tracé 5518" d="M1019.755,1108.93c0,9.211-5.917,25.2-12.933,25.2-3.054,0-5.25-3.151-5.25-6.253,0-2.768,2.291-8.495,5.965-8.495a3.1,3.1,0,0,1,2.864,2.481.361.361,0,0,0,.048.192,4.513,4.513,0,0,1-.286.859c-.048,0-.143.1-.143.1-.382,0-.668-.43-1.145-.621-1.385,0-3.914,3.771-3.914,6.777,0,1.241.668,2.052,1.719,2.052,2.72,0,5.3-8.161,5.965-10.213,1.05-3.341,1.861-6.729,2.625-10.165a16.391,16.391,0,0,0,.525-4.343c0-1.336-.239-2.482-1.146-2.482-3.722,0-9.354,10.929-9.354,12.839,0,.381.286.572.286.668,0,.239-.286.334-.429.382h-.334c-1.528,0-3.818-1.909-3.818-3.246,0-2.815,3.531-6.2,6.157-8.3,1.861-1.527,5.345-3.913,8.256-3.913,2.72,0,3.77,2,4.152,4.009A13.132,13.132,0,0,1,1019.755,1108.93Z" transform="translate(-1000.999 -1102.439)" fill="#0c4b31"/>
    <path id="Tracé_5519" data-name="Tracé 5519" d="M1121.021,1171.014a.225.225,0,0,1,.238.238c0,.334-3.913,8.59-5.966,10.261a2.081,2.081,0,0,1-1.288.429,2.713,2.713,0,0,1-.859-.143l-.191-.1a3.35,3.35,0,0,1-2.2-2.959c-1.145,1.337-2.816,2.911-4.534,3.1-2.434,0-3.293-2.959-3.293-4.391,0-5.488,3.818-12.552,7.636-12.552a4.154,4.154,0,0,1,4.009,3.818c.859.335,2.148,1.289,2.148,2.292a1.692,1.692,0,0,1-.1.477,19.34,19.34,0,0,0-2.243,7.875c2.1-1.766,3.532-5.823,5.106-7.349A3.6,3.6,0,0,1,1121.021,1171.014Zm-9.163-2.387c0-.525-.048-.668-.287-.668-1.479,0-5.2,9.211-5.2,11.072,0,.191.048.334.144.334.572,0,5.058-4.725,5.058-5.536a1.028,1.028,0,0,1-.525-.763.681.681,0,0,1,.1-.287A14.271,14.271,0,0,0,1111.858,1168.627Z" transform="translate(-1085.799 -1154.405)" fill="#0c4b31"/>
    <path id="Tracé_5520" data-name="Tracé 5520" d="M1205.075,1166.766c0,1.431-2.291,3.293-2.291,7.063a10.924,10.924,0,0,0,.1,1.194.6.6,0,0,1-.668.668c-1.384,0-2.1-1.622-2.1-4.486a8.089,8.089,0,0,1,.048-1.05c-2.2,3.674-4.248,7.493-4.964,10.882a.766.766,0,0,1-.763.62c-1.957,0-2.625-1.622-2.625-3.914,0-4.629,2.768-11.788,3.341-12.552a1.1,1.1,0,0,1,.859-.286c1.1,0,2.673.763,2.673,1.766a.813.813,0,0,1-.048.334,40.282,40.282,0,0,0-2.864,8.209c.573-2.1,4.391-9.927,7.541-9.927a1.881,1.881,0,0,1,1.289.525A1.313,1.313,0,0,1,1205.075,1166.766Z" transform="translate(-1159.734 -1154.405)" fill="#0c4b31"/>
    <path id="Tracé_5521" data-name="Tracé 5521" d="M1279.8,1124.671a.225.225,0,0,1,.239.239,3.007,3.007,0,0,1-.382,1l-.478.907c-1.766,3.245-4.581,8.542-7.254,8.542-1.528,0-2.816-1.336-2.959-3.913-1.479,1.957-3.531,3.866-5.345,3.866-2.768,0-2.816-4.248-2.816-4.2,0-5.727,3.961-12.265,7.35-12.265a3.684,3.684,0,0,1,2.864,1.384c2.2-6.824,4.486-10.976,5.107-10.976.907,0,1.957,1.432,1.957,3.007a3.084,3.084,0,0,1-.238,1.288l-.287.715c-1.908,4.486-5.583,13.172-5.583,17.9a7.833,7.833,0,0,0,.1,1.1c2.673-1.241,4.486-5.87,6.2-7.54A3.4,3.4,0,0,1,1279.8,1124.671Zm-10.309-2.339c0-.525-.048-.668-.287-.668-1.479,0-5.3,9.4-5.3,11.5,0,.239.048.382.143.382a22.78,22.78,0,0,0,5.154-5.774v-.239a1.028,1.028,0,0,1-.525-.763.683.683,0,0,1,.1-.287A14.27,14.27,0,0,0,1269.489,1122.332Z" transform="translate(-1217.132 -1108.11)" fill="#0c4b31"/>
    <path id="Tracé_5522" data-name="Tracé 5522" d="M1357.718,1171.958a.225.225,0,0,1,.239.238c0,.812-4.916,10.4-7.827,10.4-2.148,0-3.007-1.909-3.007-3.913,0-3.2,1.766-7.779,3.77-12.265a.845.845,0,0,1,.812-.382c1.1,0,2.768.907,2.768,2.243a1.723,1.723,0,0,1-.239.907c-2.243,4.057-3.866,8.352-3.866,11.168,2.434-1.479,4.152-5.775,5.823-7.4C1356.812,1172.435,1357.384,1171.958,1357.718,1171.958Z" transform="translate(-1288.943 -1155.349)" fill="#0c4b31"/>
    <path id="Tracé_5523" data-name="Tracé 5523" d="M1411.4,1170.306c.143,0,.191.1.191.238,0,.573-4.63,10.452-8.352,10.452-1.241,0-2.53-1.193-2.53-3.436,0-3.628,2.53-8.925,2.911-9.88a47.4,47.4,0,0,0-7.732,12.5.583.583,0,0,1-.62.478c-.764,0-1.861-.859-1.861-3.484,0-2.434.954-6.443,4.1-12.695a.74.74,0,0,1,.716-.429,4.154,4.154,0,0,1,2.481,1.479s-.1.048.048.048a1.5,1.5,0,0,1,.382.907c0,.668-1.432,2.673-1.957,3.723,2.147-3.1,4.533-5.775,6.395-5.775a2.56,2.56,0,0,1,2.577,2.338c0,1.289-4.008,8.5-4.1,11.884,2.434-1.575,4.153-5.727,5.823-7.35A3.341,3.341,0,0,1,1411.4,1170.306Z" transform="translate(-1327.444 -1153.697)" fill="#0c4b31"/>
  </g>
  <path id="Tracé_5524" data-name="Tracé 5524" d="M1384.241,1116.67c-1.722,1.432-3.261,2.787-3.692,5.094,1.674-1.155,3.888-1.429,5.061-2.826,1.21-1.441,1-3.434,1.062-5.452a20.181,20.181,0,0,1-4.232,1.353c-2.518.572-3.7,3.115-2.782,5.649.078.216,1.29-3.414,4.583-3.819Z" transform="translate(-1203.793 -1111.528)" fill="#00a544"/>
</svg>
