<svg xmlns="http://www.w3.org/2000/svg" width="189.673" height="182.917" viewBox="0 0 189.673 182.917">
  <g id="value-local-illus" transform="translate(-2032.872 -503.401)">
    <g id="Groupe_887" data-name="Groupe 887" transform="translate(2032.872 657.793)">
      <path id="Tracé_5696" data-name="Tracé 5696" d="M2217.708,806.378c-4.264-2.67-9.556-3.14-14.416-2.812a70.585,70.585,0,0,1-17.752-1.345,270.876,270.876,0,0,0-31.375-3.47c-11.432-.775-22.844-2.181-34.321-1.994-12.684.207-25.267,2.317-37.96,2.267-6.453-.026-12.44-1.689-18.754-2.207-5.513-.452-11.543,1.265-16.652,3.2-2.8,1.057-5.478,1.823-7.883,3.691-2.3,1.786-4.774,4.868-5.5,7.741-2.453,9.778,15.9,9.551,21.4,9.724,8.538.269,17.071-.494,25.608-.216,8.223.267,16.238,1.839,24.356,3.041,15.734,2.33,32.46.752,48.333.652,15.97-.1,32.012-.455,47.868-2.521,2.276-.3,4.505-.373,6.79-.548a52.826,52.826,0,0,0,9.078-1.561,7.964,7.964,0,0,0,5.826-5.469C2223.3,810.854,2220.544,808.154,2217.708,806.378Z" transform="translate(-2032.873 -796.74)" fill="#3a593d"/>
      <path id="Tracé_5697" data-name="Tracé 5697" d="M2277.589,824.842l-.03-.086a.267.267,0,0,0-.481-.063c-.356.514-.747,1.012-1.069,1.548-.13.216-.249.426-.389.629a.526.526,0,0,0-.126.411c.028.335.554.338.526,0-.009-.105.148-.236.2-.331.132-.222.241-.452.385-.669.252-.382.522-.752.785-1.126A.232.232,0,0,0,2277.589,824.842Z" transform="translate(-2147.795 -809.922)" fill="#293b2b"/>
      <path id="Tracé_5698" data-name="Tracé 5698" d="M2279.183,828.084c-.627.375-.867,1.075-1.359,1.581-.237.243.135.615.372.372.354-.364.577-.87.931-1.235a.207.207,0,0,0,.2-.04.536.536,0,0,0,.252-.451A.265.265,0,0,0,2279.183,828.084Z" transform="translate(-2148.864 -811.57)" fill="#293b2b"/>
      <path id="Tracé_5699" data-name="Tracé 5699" d="M2283.265,828.481c-.317.085-.461.391-.661.621-.113.131-.227.117-.373.191a.528.528,0,0,0-.189.164.394.394,0,0,0-.044.073c-.314.041-.31.539.021.521a.483.483,0,0,0,.408-.208c.064-.084.037-.059.138-.1a1.677,1.677,0,0,0,.21-.085,1.286,1.286,0,0,0,.324-.336c.076-.1.175-.295.305-.33A.263.263,0,0,0,2283.265,828.481Z" transform="translate(-2150.768 -811.77)" fill="#293b2b"/>
      <path id="Tracé_5700" data-name="Tracé 5700" d="M2343.369,827.368a4.785,4.785,0,0,1-.4-.493,2.517,2.517,0,0,1-.142-.339c-.094-.231-.22-.5-.49-.552-.331-.068-.472.439-.14.507.124.026.209.413.256.52a3.579,3.579,0,0,0,.548.728C2343.209,828,2343.58,827.63,2343.369,827.368Z" transform="translate(-2179.3 -810.589)" fill="#293b2b"/>
      <path id="Tracé_5701" data-name="Tracé 5701" d="M2339.759,828.9c-.167-.049-.248-.414-.332-.55a.711.711,0,0,0-.659-.38c-.337.019-.339.546,0,.526.217-.012.281.27.36.43a.821.821,0,0,0,.491.481A.263.263,0,0,0,2339.759,828.9Z" transform="translate(-2177.647 -811.533)" fill="#293b2b"/>
      <path id="Tracé_5702" data-name="Tracé 5702" d="M2357.2,824.146c-.011.01-.021.02-.031.03a.206.206,0,0,0-.153.145,9.852,9.852,0,0,0-1.275,1.565c-.279.393-.613.773-.244,1.221.215.261.586-.113.372-.372-.1-.123.556-.933.623-1.029a6.111,6.111,0,0,1,.951-1.063c.1-.041.146-.112.2-.241C2357.747,824.133,2357.377,824,2357.2,824.146Z" transform="translate(-2185.614 -809.692)" fill="#293b2b"/>
      <path id="Tracé_5703" data-name="Tracé 5703" d="M2363.1,827.482a5.6,5.6,0,0,0-1.649.888c-.293.209-.557.46-.864.649a3.717,3.717,0,0,0-.762.5.263.263,0,0,0,.372.372,4.275,4.275,0,0,1,.744-.483c.27-.18.51-.4.774-.589a5.528,5.528,0,0,1,.728-.433,4.282,4.282,0,0,1,.8-.4A.263.263,0,0,0,2363.1,827.482Z" transform="translate(-2187.704 -811.297)" fill="#293b2b"/>
      <path id="Tracé_5704" data-name="Tracé 5704" d="M2145.514,812.358c.029-.465.254-.922.259-1.365a.263.263,0,0,0-.526,0c0,.377-.221.839-.25,1.238-.054.742-.014,1.5-.014,2.244a.263.263,0,0,0,.527,0v-.156C2145.5,813.667,2145.473,813.007,2145.514,812.358Z" transform="translate(-2085.97 -803.371)" fill="#293b2b"/>
      <path id="Tracé_5705" data-name="Tracé 5705" d="M2147.862,814.921a3.443,3.443,0,0,1-.206.434,3.855,3.855,0,0,0-.131.465,4.691,4.691,0,0,0-.19.713c0,.013-.008.023-.008.036l0,.058a.263.263,0,0,0,.526,0,3.783,3.783,0,0,1,.207-.767c.069-.287.242-.519.313-.8A.264.264,0,0,0,2147.862,814.921Z" transform="translate(-2087.086 -805.263)" fill="#293b2b"/>
      <path id="Tracé_5706" data-name="Tracé 5706" d="M2159.037,813.7c-.4.551-.615,1.219-1.065,1.729a2.087,2.087,0,0,0-.314.516c-.061.123-.139.242-.192.376-.245.1-.1.528.2.485a.489.489,0,0,0,.292-.155.236.236,0,0,0,.071-.215.283.283,0,0,0-.007-.045.984.984,0,0,0,.122-.184,3.337,3.337,0,0,1,.462-.708c.346-.475.535-1.053.885-1.533C2159.692,813.692,2159.236,813.429,2159.037,813.7Z" transform="translate(-2091.83 -804.719)" fill="#293b2b"/>
      <path id="Tracé_5707" data-name="Tracé 5707" d="M2155.025,816.925a2.875,2.875,0,0,0-.04-.543c-.054-.2-.025-.407-.063-.615a.255.255,0,0,0-.183-.184l-.073-.015a.272.272,0,0,0-.24.465,3.038,3.038,0,0,0,.052.489c.054.219.009.447.055.67a.257.257,0,0,0,.184.184l.073.015A.271.271,0,0,0,2155.025,816.925Z" transform="translate(-2090.407 -805.655)" fill="#293b2b"/>
      <path id="Tracé_5708" data-name="Tracé 5708" d="M2066.2,814.974a11.553,11.553,0,0,1-.844-2.146c-.027-.335-.554-.338-.526,0,.072.877.711,1.579.9,2.424a.257.257,0,0,0,.184.184l.071.015A.266.266,0,0,0,2066.2,814.974Z" transform="translate(-2048.009 -804.241)" fill="#293b2b"/>
      <path id="Tracé_5709" data-name="Tracé 5709" d="M2069.261,812.66a.263.263,0,0,0-.527,0,4.041,4.041,0,0,1-.081.764,4.54,4.54,0,0,0-.006.815.263.263,0,0,0,.526,0,3.458,3.458,0,0,1,.027-.847A2.944,2.944,0,0,0,2069.261,812.66Z" transform="translate(-2049.81 -804.16)" fill="#293b2b"/>
      <path id="Tracé_5710" data-name="Tracé 5710" d="M2058.286,815.57c0-.005-.058-.221-.066-.249-.032-.114-.037-.23-.077-.347-.114-.333,0-.7-.139-1.042-.124-.31-.634-.175-.507.14a2.458,2.458,0,0,1,.053.775,1.975,1.975,0,0,0,.123.385,1.435,1.435,0,0,0,.242.711C2058.144,816.191,2058.516,815.818,2058.286,815.57Z" transform="translate(-2044.526 -804.8)" fill="#293b2b"/>
    </g>
    <g id="Groupe_900" data-name="Groupe 900" transform="translate(2058.078 503.401)">
      <g id="Groupe_889" data-name="Groupe 889" transform="translate(0 12.506)">
        <path id="Tracé_5711" data-name="Tracé 5711" d="M2123.192,575.761s-8.074.573-12.058,13.556c-2.427,7.909-3.3,15.154-1.323,18.378,1.313,2.144,5.855,3.7,6.053,3.355s8.264-16.448,8.211-18.816S2123.192,575.761,2123.192,575.761Z" transform="translate(-2094.007 -550.183)" fill="#662910"/>
        <path id="Tracé_5712" data-name="Tracé 5712" d="M2167.242,560.406c-.321-.557-.663-1.105-.952-1.677-.619-1.227-.992-2.571-1.655-3.774-.615-1.116-1.471-2.082-2.08-3.2-.587-1.08-.526-2.577-1.38-3.517-.981-1.078-2.434-1.3-3.124-2.762-.474-1.008-.435-2.2-.935-3.2-.617-1.231-1.92-1.925-3.058-2.7-2.083-1.419-2.146-3.477-2.675-5.732a8.76,8.76,0,0,0-12.741-5.628c-1.842.96-3.84,1.822-4.522,3.953a22.307,22.307,0,0,0-.746,5.51c-.058,1.478-.472,3.629-.095,5.032.172.64.494,1.236.618,1.886a7.965,7.965,0,0,1-.377,3.209c-.545,2.423,1.063,3.423,1.221,5.595.147,1.984-.058,3.9.547,5.832a24.793,24.793,0,0,0,2.189,5.074,12.818,12.818,0,0,0,3.527,4.311,10.838,10.838,0,0,0,2.489.995,7.477,7.477,0,0,1,3.111,2.311c.705.853,1.026,1.9,1.678,2.763a3.784,3.784,0,0,0,1.858,1.226c.874.342,1.8.889,2.71,1.142a6.325,6.325,0,0,1,1.421.358.2.2,0,0,0,.068.358,9.419,9.419,0,0,0,4.579.384,1.469,1.469,0,0,0,.737-.479c.616-.537,1.3-.921,1.958-1.416a3.525,3.525,0,0,0,.937-1.126,19.942,19.942,0,0,0,1.126-1.711c.2-.41.357-.836.552-1.252.466-1,1.236-1.187,1.976-1.849,1.753-1.567,2.552-5.742,1.937-7.929A8.808,8.808,0,0,0,2167.242,560.406Z" transform="translate(-2105.564 -527.163)" fill="#a76043"/>
        <path id="Tracé_5713" data-name="Tracé 5713" d="M2111.34,665.8s-3.421,25.965-3.947,31.141-2.9,26.141-2.9,27.457-.526,5.088,0,5.351,8.246.614,8.246.614,4.562-24.3,6.315-30.264,5.521-21.014,6.316-20.527c.68.416,1.946,23.077,2.719,25.79,1.462,5.131,16.316,19.562,16.93,19.65s6.843-5.263,6.931-5.7-12.544-17.369-12.807-18.948,1.929-19.737,2.28-24.474.263-9.3.263-9.3-15.526-7.983-16.053-8.071S2111.34,665.8,2111.34,665.8Z" transform="translate(-2091.895 -589.381)" fill="#ffddae"/>
        <path id="Tracé_5714" data-name="Tracé 5714" d="M2136.459,535.875s-.109,1.753-.173,3.988c-.005.127-.006.254-.012.386-.008.148-.012.3-.015.455,0,.111-.006.216-.009.327a58.446,58.446,0,0,0,.116,6.614,3.912,3.912,0,0,0,3.679,3.891,8.753,8.753,0,0,0,4.994-1.657,23.569,23.569,0,0,0,2.386-4.2s.961-5.735.935-5.866a11.244,11.244,0,0,0-2.294-3.218c-.9-.586-3.986-2.178-3.986-2.178Z" transform="translate(-2107.029 -530.6)" fill="#ff8426"/>
        <path id="Tracé_5715" data-name="Tracé 5715" d="M2155.583,549.313s1.9-.849,2.682.573-.868,3.39-1.958,3.59a15.79,15.79,0,0,1-2.782.128Z" transform="translate(-2115.227 -537.536)" fill="#ff8426"/>
        <path id="Tracé_5716" data-name="Tracé 5716" d="M2144.907,561.726l.323,1,.635,1.989,1.082,3.365,2.115,2.7,3.05-.129,2.579-4.37-2.958-9.855Z" transform="translate(-2111.146 -541.026)" fill="#ff8426"/>
        <path id="Tracé_5717" data-name="Tracé 5717" d="M2145.041,565.91l.631,1.987a8.837,8.837,0,0,0,2.043-.478c2.138-.794,2.223-2.3,1.987-2.493s-.953-.225-2.038.354A6.917,6.917,0,0,1,2145.041,565.91Z" transform="translate(-2111.209 -544.992)" fill="#e66617"/>
        <path id="Tracé_5718" data-name="Tracé 5718" d="M2140.254,551.185a2.076,2.076,0,0,0,.507-.8c.123-.335.062-.728.194-1.046s.262.144.3.3a3.41,3.41,0,0,1-.04,1.493,1.774,1.774,0,0,1-.827,1.169c-.3.154-.85.355-1.016-.078-.185-.484.481-.71.769-.936C2140.177,551.254,2140.217,551.22,2140.254,551.185Z" transform="translate(-2108.507 -537.614)" fill="#e66617"/>
        <path id="Tracé_5719" data-name="Tracé 5719" d="M2139.93,556.933a.346.346,0,0,1,.106-.09.288.288,0,0,1,.221-.015,1.186,1.186,0,0,1,.4.261.977.977,0,0,0,.479.242,1.388,1.388,0,0,0,.7-.048,1.237,1.237,0,0,0,.552-.45.434.434,0,0,1,.259-.157c.488-.065.354.791.234,1.026a1.727,1.727,0,0,1-2.557.326C2140.107,557.849,2139.7,557.234,2139.93,556.933Z" transform="translate(-2108.756 -541.141)" fill="#fff"/>
        <path id="Tracé_5720" data-name="Tracé 5720" d="M2137.9,548.815c-.047.1.066.316.234.267a1.554,1.554,0,0,1,.589-.081,2.6,2.6,0,0,0,.551.067c.157-.036.183-.244.034-.366a1.138,1.138,0,0,0-.677-.177A.857.857,0,0,0,2137.9,548.815Z" transform="translate(-2107.823 -537.282)" fill="#36312f"/>
        <path id="Tracé_5721" data-name="Tracé 5721" d="M2148.536,548.815c-.046.1.067.316.235.267a1.556,1.556,0,0,1,.59-.081,2.6,2.6,0,0,0,.551.067c.157-.036.182-.244.033-.366a1.136,1.136,0,0,0-.677-.177A.861.861,0,0,0,2148.536,548.815Z" transform="translate(-2112.859 -537.282)" fill="#36312f"/>
        <path id="Tracé_5722" data-name="Tracé 5722" d="M2122.392,575.956c1.974-1.645,4.765-2.726,10.477-3.487a25.385,25.385,0,0,1,15.437,2.719,14.844,14.844,0,0,1,4.745,4.254c.2.592-3.6,27.939-3.948,33.465s.527,13.772-.526,14.65-13.352,0-14.659,0-3.412-8.071-3.675-8.071-3.064,7.368-4.208,7.807-10.617-.088-11.231-.439,2.544-13.158,2.9-18.86.175-16.842.614-21.93S2120.418,577.6,2122.392,575.956Z" transform="translate(-2096.849 -548.51)" fill="#662910"/>
        <path id="Tracé_5723" data-name="Tracé 5723" d="M2091.928,792.882c1.425-.855,6.605.147,9.093.579s1.244,1.986,1.244,3.229-.389,10.026-.933,10.648-10.259.777-12.746.777-7.694.466-7.772-.622-.311-4.508,1.554-5.44,6.529-1.865,7.617-2.643S2090.5,793.737,2091.928,792.882Z" transform="translate(-2080.762 -652.869)" fill="#36312f"/>
        <path id="Tracé_5724" data-name="Tracé 5724" d="M2180.336,778.543c.162-1.654,4.055-5.215,5.885-6.955s2.336.185,3.334.926,7.818,6.289,7.993,7.1-5.491,8.7-6.974,10.7-4.212,6.456-5.132,5.87-3.8-2.438-3.442-4.491,2.394-6.354,2.419-7.691S2180.173,780.2,2180.336,778.543Z" transform="translate(-2127.925 -642.605)" fill="#36312f"/>
        <path id="Tracé_5725" data-name="Tracé 5725" d="M2177.684,585.933s2.018,2.237,1.315,8.728-2.407,15.843-3.6,17.9-8.245,2.105-8.6,2.105.615-21.053.79-21.579S2177.684,585.933,2177.684,585.933Z" transform="translate(-2121.483 -555.001)" fill="#662910"/>
        <path id="Tracé_5726" data-name="Tracé 5726" d="M2149.671,539.608a.536.536,0,0,1-.205.065c-.118,0-.2-.12-.257-.223a9.571,9.571,0,0,0-1.255-1.969,23.871,23.871,0,0,0-2.937-2.658,27.458,27.458,0,0,0-2.49-1.463,2.853,2.853,0,0,0-2.2-.105,20.787,20.787,0,0,0-3.832,1.168c-.515.221-1.421.705-1.594,1.311a.883.883,0,0,0,.326.9c.585.414,1.429-.248,2.038.274s.939,1.225,1.809,1.333c.647.08,1.332-.185,1.941.047.484.185.82.652,1.309.823.563.2,1.2-.041,1.773.112,1.226.325,1.618,2.2,2.88,2.336a2.446,2.446,0,0,0,1.351-.4,3.948,3.948,0,0,0,1.513-1.152c.09-.133.133-.364-.02-.413A.214.214,0,0,0,2149.671,539.608Z" transform="translate(-2106.395 -529.969)" fill="#a76043"/>
        <path id="Tracé_5727" data-name="Tracé 5727" d="M2138.029,545.088a3.6,3.6,0,0,0-.878.141c-.22.089-.695.489-.241.665a.306.306,0,0,0,.128.01c.447-.03.9-.049,1.343-.071.212-.01.829.032.915-.237C2139.447,545.13,2138.694,545.049,2138.029,545.088Z" transform="translate(-2107.268 -535.65)" fill="#a76043"/>
        <path id="Tracé_5728" data-name="Tracé 5728" d="M2148.789,544.9a3.614,3.614,0,0,1,.878.141c.221.089.695.489.241.664a.3.3,0,0,1-.127.011c-.448-.03-.9-.05-1.343-.071-.211-.01-.829.032-.916-.237C2147.371,544.942,2148.124,544.861,2148.789,544.9Z" transform="translate(-2112.375 -535.561)" fill="#a76043"/>
        <g id="Groupe_888" data-name="Groupe 888" transform="translate(16.236 27.785)">
          <path id="Tracé_5729" data-name="Tracé 5729" d="M2115.346,581.927c-1.666,1.174-4.123,3.235-3.684,9.375s5.79,16.93,10.351,22.72,10.877,7.983,15.7,4.386,3.79-8.777,2.992-12.02-7.2-20.679-12.992-24.461A10.687,10.687,0,0,0,2115.346,581.927Z" transform="translate(-2111.61 -579.953)" fill="#608d5c"/>
          <path id="Tracé_5730" data-name="Tracé 5730" d="M2135.589,620.165c-.777-.3-1.369-.921-2.171-1.206a21.446,21.446,0,0,0-2.975-.774,4.787,4.787,0,0,1-3.21-1.917,6.566,6.566,0,0,1-1.138-2.667c-.4-1.758-.867-3.1-2.337-4.155a9.77,9.77,0,0,1-2.611-2.054,5,5,0,0,1-.618-3.139c.121-1.531.455-2.961-.066-4.473a8.515,8.515,0,0,0-2.406-3.44,7.041,7.041,0,0,1-2.058-3.623,7.5,7.5,0,0,1,1.9-6.323c.215-.26-.156-.634-.372-.373a7.513,7.513,0,0,0-2.093,4.8,7.961,7.961,0,0,0,.74,3.939c.874,1.735,2.653,2.723,3.485,4.5.934,1.989.3,3.82.335,5.881a4.485,4.485,0,0,0,2.128,3.809c1.251.887,2.372,1.522,2.95,3.037.423,1.109.474,2.369.979,3.436a5.584,5.584,0,0,0,3.479,3.11c1.106.291,2.229.445,3.323.8.98.32,1.669.986,2.6,1.339C2135.766,620.793,2135.9,620.285,2135.589,620.165Z" transform="translate(-2113.42 -582.786)" fill="#3a593d"/>
          <path id="Tracé_5731" data-name="Tracé 5731" d="M2141.293,611.876a11.823,11.823,0,0,0-2.493-3.916c-1.14-1.351-3.037-1.682-4.548-2.46a2.975,2.975,0,0,1-1.847-3.008c-.019-.934.1-1.873.058-2.807-.153-3.713-4.66-5.07-5.4-8.519-.364-1.7-.226-3.554-1.009-5.155-.285-.583-.913-2.163-1.618-2.3-.331-.066-.472.442-.139.507s.964,1.4,1.117,1.695a7.389,7.389,0,0,1,.766,2.584,11.846,11.846,0,0,0,.917,4.39c.78,1.434,2.241,2.37,3.269,3.614a8.458,8.458,0,0,1,1.288,1.91,7.213,7.213,0,0,1,.245,3.115c-.032,1.21-.134,2.693.8,3.633,1.168,1.178,3.05,1.414,4.46,2.156a5.811,5.811,0,0,1,1.644,1.555,8.47,8.47,0,0,1,1.83,2.8,16.069,16.069,0,0,1,.669,5.713.263.263,0,0,0,.526,0A17.072,17.072,0,0,0,2141.293,611.876Z" transform="translate(-2117.531 -581.729)" fill="#3a593d"/>
          <path id="Tracé_5732" data-name="Tracé 5732" d="M2146.925,605.862c-.692-1.759-2.247-2.452-3.344-3.871a6.032,6.032,0,0,1-1.262-3.023,6.407,6.407,0,0,0-1.062-2.569,18.573,18.573,0,0,0-3.252-3.2c-1.547-1.389-1.583-3.874-2.173-5.73a6.863,6.863,0,0,0-2.507-3.955,5.909,5.909,0,0,0-3.678-1.33.263.263,0,0,0,0,.526,6.271,6.271,0,0,1,4.186,1.906c1.287,1.253,1.727,3.49,2.055,5.2a6.745,6.745,0,0,0,1.643,3.647c.989.995,2.1,1.824,3.025,2.9a5.732,5.732,0,0,1,1.256,2.746,6.478,6.478,0,0,0,.542,2.081c.769,1.435,2.028,2.117,3.087,3.264,1.321,1.431,1.524,3.492,1.708,5.346a13.169,13.169,0,0,1,.006,2.9c-.066.507-.167,1.9-.59,2.284-.25.229.123.6.373.372a2.383,2.383,0,0,0,.484-1.359,10.371,10.371,0,0,0,.294-2.353A16.2,16.2,0,0,0,2146.925,605.862Z" transform="translate(-2120.033 -581.009)" fill="#3a593d"/>
        </g>
        <path id="Tracé_5733" data-name="Tracé 5733" d="M2126.355,634.226a27.346,27.346,0,0,1-2.8.658c-.3-.033-1.187-1.746-1.974-2.138s-1.316-.526-1.974,0a1.6,1.6,0,0,0-.388.883,12.051,12.051,0,0,0-1.125,2.045,13.428,13.428,0,0,0,.362,1.81,4.174,4.174,0,0,0,.763,2.4c1.086,1.262,3.351.867,4.771.6.253-.047,3.746-.783,3.742-.8Z" transform="translate(-2098.444 -577.011)" fill="#ff8426"/>
        <path id="Tracé_5734" data-name="Tracé 5734" d="M2150.036,615.558s-1.012,3.213-3.184,4.633-14.605,5.038-15.132,5.367,1.693,7.237,3.211,7.632,6.131-.921,12.25-2.237,7.434-2.259,7.434-2.259Z" transform="translate(-2104.862 -569.033)" fill="#662910"/>
        <path id="Tracé_5735" data-name="Tracé 5735" d="M2113.415,619.155a6.807,6.807,0,0,0,.451,3.881c.754,2.14,2.236,2.541,3.121,2.508s1.815-.935,1.28-2.754-2.69-4.784-3.424-4.923S2113.534,618.525,2113.415,619.155Z" transform="translate(-2096.177 -570.119)" fill="#ff8426"/>
        <path id="Tracé_5736" data-name="Tracé 5736" d="M2139.369,688.546a32.246,32.246,0,0,0-1.806-3.455c-.841-1.566-2.329-3.087-2.667-4.879-.062-.332-.57-.192-.507.14.288,1.526,1.466,3.061,2.308,4.336a23.136,23.136,0,0,1,1.14,2.081,19.869,19.869,0,0,1,1.025,1.916C2138.983,689,2139.492,688.863,2139.369,688.546Z" transform="translate(-2106.161 -599.569)" fill="#f2c588"/>
      </g>
      <g id="Groupe_899" data-name="Groupe 899" transform="translate(79.338)">
        <path id="Tracé_5737" data-name="Tracé 5737" d="M2270.907,507.848c.071-.126,0-.541.017-.7a3.02,3.02,0,0,1,.214-.833,1.622,1.622,0,0,1,1.05-.9,4.493,4.493,0,0,1,1.26-.132c.245,0,.762.109.943-.1.286-.329.258-.814.559-1.15a1.784,1.784,0,0,1,1.207-.54,2.281,2.281,0,0,1,.724.058c.216.053.442.283.655.3a13.359,13.359,0,0,0,1.918-.395,5.48,5.48,0,0,1,2.109.1c.514.162.921.576,1.459.674.837.152,1.526-.113,2.049.754a3.526,3.526,0,0,1,.672.064,1.816,1.816,0,0,1,1.715,1.478c.071.525-.119,1,.073,1.482.324.81.84,1.582.381,2.465a1.208,1.208,0,0,0-.2.489,1.672,1.672,0,0,0,.04.293c.094.628-.349,1.245-.408,1.866-.073.772-.014,1.554-.1,2.326-.091.828-.481,1.592-.615,2.411-.093.567.373,1.616-.233,2.012a.108.108,0,0,1-.156-.046,3.761,3.761,0,0,1-.217-1.622,4.43,4.43,0,0,0-.7-.177,1.029,1.029,0,0,1-.56-.155,5.7,5.7,0,0,1-1.8-1.966c-.5-.924-.571-1.562-1.661-1.939-.422-.146-.856-.263-1.283-.4a5.124,5.124,0,0,1-2.515-1.385c-.56-.659-.567-1.137-1.612-1.177-.412-.016-.835.008-1.251,0a12.329,12.329,0,0,1-2.481-.119A2.542,2.542,0,0,1,2270.907,507.848Z" transform="translate(-2250.091 -503.401)" fill="#36312f"/>
        <g id="Groupe_890" data-name="Groupe 890" transform="translate(34.798 145.102)">
          <path id="Tracé_5738" data-name="Tracé 5738" d="M2312.9,780.1l1.083,8.628,5.1-.9-.478-8.735Z" transform="translate(-2304.856 -779.091)" fill="#ff8426"/>
          <path id="Tracé_5739" data-name="Tracé 5739" d="M2313.419,797.064s-.947-7.36-.655-7.724,6.148-1,6.633-.774.742,8.465.742,8.465-3.093,2.909-3.365,3.135S2313.419,797.064,2313.419,797.064Z" transform="translate(-2304.765 -783.557)" fill="#c93d2e"/>
          <path id="Tracé_5740" data-name="Tracé 5740" d="M2314.266,802.69c-.726-1.045-1.782-.265-2.687-.016-1.91.527-3.707.046-5.628.169-.892.057-1.722,2.731-2.127,3.412s-4.3,2.309-5.03,2.77a2.371,2.371,0,0,0-1.178,2.075c-.01.932.442,1.524.93,1.6s15.366-.74,15.949-1.33S2314.933,803.651,2314.266,802.69Z" transform="translate(-2297.616 -790.018)" fill="#fff"/>
        </g>
        <path id="Tracé_5741" data-name="Tracé 5741" d="M2258.98,781.85l-.439,8.684h5.176l1.052-8.684Z" transform="translate(-2244.31 -635.295)" fill="#ff8426"/>
        <path id="Tracé_5742" data-name="Tracé 5742" d="M2252.236,667.35s-2.72,25.482-3.115,31.272-.4,29.592.13,30.25,13.116.892,13.642.365,1.062-26.974,1.719-31.843,3.444-24,5.73-22.149,5.445,52.676,7.813,52.808,14.211,0,14.606-.921-5.79-58.948-5.79-58.948Z" transform="translate(-2239.714 -581.06)" fill="#36312f"/>
        <path id="Tracé_5743" data-name="Tracé 5743" d="M2250.212,558.147s-4.412,1.6-8.228,7.19-10.066,20.921-10.4,22.9.281,8.6,1.687,12.786l1.406,4.188,9.616-3.706s-2.2-11.121-1.524-12.478c1.25-2.522,4.236-7.513,4.236-7.513l5.041-16.9Z" transform="translate(-2231.501 -529.333)" fill="#c93d2e"/>
        <path id="Tracé_5744" data-name="Tracé 5744" d="M2286.456,525.275s-1.417,3.813-2.219,4.688a9.39,9.39,0,0,1-5.208,2.175c-1.853-.051-3.717-.966-4.248-3.869a62.82,62.82,0,0,1-.661-7.067c-.005-.085-.005-.169-.011-.254-.011-.2-.022-.389-.028-.582,0-.056-.006-.113-.006-.169-.118-2.514-.147-4.53-.147-4.53l5.9-2.011s3.423,1.457,4.44,2.011a12.294,12.294,0,0,1,2.717,3.259C2287.021,519.067,2286.456,525.275,2286.456,525.275Z" transform="translate(-2251.598 -508.259)" fill="#ff8426"/>
        <path id="Tracé_5745" data-name="Tracé 5745" d="M2295.468,528.693s1.965-1.063,2.916.4-.656,3.7-1.806,4a16.942,16.942,0,0,1-2.967.361Z" transform="translate(-2260.921 -515.204)" fill="#ff8426"/>
        <path id="Tracé_5746" data-name="Tracé 5746" d="M2291.124,548.584l-3.457,4.2-3.254-.367-1.8-3.22-.565-3.553-.028-.192-.317-2.056-.022-.158-.181-1.113,8.117-4.485Z" transform="translate(-2255.186 -519.621)" fill="#ff8426"/>
        <path id="Tracé_5747" data-name="Tracé 5747" d="M2284.624,549.668a13.118,13.118,0,0,1-2.39.406l-.028-.191-.316-2.056a7.321,7.321,0,0,0,2.859-.452c1.209-.525,1.971-.429,2.208-.2S2286.974,549,2284.624,549.668Z" transform="translate(-2255.369 -524.048)" fill="#e66617"/>
        <path id="Tracé_5748" data-name="Tracé 5748" d="M2279.088,532.049a2.242,2.242,0,0,0,.478-.9c.1-.369.008-.785.122-1.136s.293.133.341.3a3.644,3.644,0,0,1,.078,1.6,1.9,1.9,0,0,1-.791,1.318c-.3.188-.882.448-1.094,0-.237-.5.458-.8.748-1.063C2279.011,532.13,2279.051,532.09,2279.088,532.049Z" transform="translate(-2253.609 -515.949)" fill="#e66617"/>
        <g id="Groupe_891" data-name="Groupe 891" transform="translate(25.328 18.579)">
          <path id="Tracé_5749" data-name="Tracé 5749" d="M2280.934,540.154c-.963,0-1.246-.484-1.28-.549a.263.263,0,1,1,.466-.243h0s.274.408,1.364.212c.917-.165,1.128-.682,1.136-.7a.264.264,0,0,1,.337-.153.261.261,0,0,1,.158.332,1.876,1.876,0,0,1-1.537,1.044A3.65,3.65,0,0,1,2280.934,540.154Z" transform="translate(-2279.624 -538.7)" fill="#e66617"/>
        </g>
        <path id="Tracé_5750" data-name="Tracé 5750" d="M2286.612,529.417c-.049.107.073.339.253.286a1.658,1.658,0,0,1,.632-.087,2.817,2.817,0,0,0,.591.072c.169-.038.2-.262.036-.392a1.214,1.214,0,0,0-.726-.191A.923.923,0,0,0,2286.612,529.417Z" transform="translate(-2257.601 -515.577)" fill="#36312f"/>
        <path id="Tracé_5751" data-name="Tracé 5751" d="M2274.907,530.376c-.049.107.073.34.252.286a1.661,1.661,0,0,1,.632-.087,2.864,2.864,0,0,0,.592.072c.168-.039.2-.262.036-.393a1.217,1.217,0,0,0-.726-.191A.923.923,0,0,0,2274.907,530.376Z" transform="translate(-2252.056 -516.031)" fill="#36312f"/>
        <path id="Tracé_5752" data-name="Tracé 5752" d="M2276.635,526.061a.19.19,0,0,1-.085.209,1.382,1.382,0,0,1-.74.13,4.325,4.325,0,0,0-1.4.118c-.056.017-.107.039-.169.062-.011-.2-.022-.389-.028-.582,0-.056-.006-.113-.006-.17a3.6,3.6,0,0,1,.938-.254C2275.6,525.518,2276.46,525.484,2276.635,526.061Z" transform="translate(-2251.729 -513.891)" fill="#36312f"/>
        <path id="Tracé_5753" data-name="Tracé 5753" d="M2285.516,525.22c.132-.592,1-.62,1.452-.6a2.7,2.7,0,0,1,1.931.822.162.162,0,0,1-.075.241c-.332.168-.729-.1-1.051-.175a4.427,4.427,0,0,0-1.41-.017,1.36,1.36,0,0,1-.745-.07A.189.189,0,0,1,2285.516,525.22Z" transform="translate(-2257.085 -513.451)" fill="#36312f"/>
        <path id="Tracé_5754" data-name="Tracé 5754" d="M2287.892,519.623c-.469-2.169-2.322-3.948-4.163-5.1a7.951,7.951,0,0,0-7.457-.825c-.887.333-2.237.418-2.818,1.271-.316.463-.509,1.288.011,1.661a1.328,1.328,0,0,0,.955.1c.31-.051.61-.192.915-.254.728-.141.751,0,1.344.232a2.669,2.669,0,0,0,2.8-.2c.785-.5,1.158-.3,2.062-.2.6.067,1.983-.266,2.5.09.333.226.565,1.175.706,1.548a10.321,10.321,0,0,1,.571,2.245c.046.357-.079,1.364.423,1.455.249.045.35-.153.548-.266a1.754,1.754,0,0,0,.48-.333,5.306,5.306,0,0,0,1.18-1.259A.114.114,0,0,0,2287.892,519.623Z" transform="translate(-2251.226 -508.007)" fill="#36312f"/>
        <path id="Tracé_5755" data-name="Tracé 5755" d="M2274.236,553.6s1.465,1.058,4.673.7a5.479,5.479,0,0,0,3.827-1.78l6.348,1.539s-.175,31.92,0,32.534.351,15.082.351,15.082H2264.7l3.948-46.795Z" transform="translate(-2247.226 -526.668)" fill="#fff"/>
        <path id="Tracé_5756" data-name="Tracé 5756" d="M2267.669,555.5s-2.176,11.217-2.737,18.191-1.548,31.448-1.548,31.448l-8.092-.855s1.535-38.136,1.8-39.123,1.091-5.583,2.217-6.893C2261.148,556.12,2267.669,555.5,2267.669,555.5Z" transform="translate(-2242.77 -528.077)" fill="#f26555"/>
        <path id="Tracé_5757" data-name="Tracé 5757" d="M2304.588,553.882s.9,8.316.9,13.843v37.369l9.342-.724-.329-36.909s.051-9.4-.592-10.329C2312.59,555.225,2304.588,553.882,2304.588,553.882Z" transform="translate(-2266.12 -527.313)" fill="#f26555"/>
        <g id="Groupe_895" data-name="Groupe 895" transform="translate(3.648 53.951)">
          <g id="Groupe_892" data-name="Groupe 892" transform="translate(15.055)">
            <path id="Tracé_5758" data-name="Tracé 5758" d="M2280.593,606.423a1.958,1.958,0,0,0-1.5-.352,3.365,3.365,0,0,1-1.541.1c-.382-.1-.522-.262-.922-.264a7.5,7.5,0,0,0-1.877.294,11.238,11.238,0,0,1-1.147.319c-.218.035-.415.048-.637.1a8.3,8.3,0,0,0-3.931,2.51,6.992,6.992,0,0,0-1.376,2.367c-.3,1.163.069,2.292-.4,3.451a1.55,1.55,0,0,0,.058,1.694l.052.1a1.417,1.417,0,0,0,.181.758c.261.657.473,1.341.762,1.985a9.941,9.941,0,0,0,3.633,3.653,9.215,9.215,0,0,0,4.508,1.518,6.66,6.66,0,0,0,3.57-1.316l.045-.047c.222-.183.422-.4.623-.582.714-.625,1.534-1.117,2.243-1.739a8.409,8.409,0,0,0,2.955-6.77,6.055,6.055,0,0,0-1.072-3.7c-.277-.343-.635-.61-.932-.924a13.3,13.3,0,0,1-1.135-1.6A7.084,7.084,0,0,0,2280.593,606.423Z" transform="translate(-2267.036 -605.906)" fill="#3a593d"/>
            <path id="Tracé_5759" data-name="Tracé 5759" d="M2279.313,607.635a3.5,3.5,0,0,0-2.767,1.449c-.3.408-.77.684-1.032,1.088-.31.477-.06.451-.178.956a5.653,5.653,0,0,1-.486,1.018c-.267.62-.119.758-.1,1.353a18.236,18.236,0,0,0-.154,2.822,5.629,5.629,0,0,1,.335,2.177,6.122,6.122,0,0,0-.025.693,8.731,8.731,0,0,0-1.884-2.122c-.687-.519-1.394-.964-2.078-1.495-.414-.321-1.642-.8-1.734-1.309-.067-.37-.627-.2-.56.163.089.49.292.6.7.853.712.437,1.269.944,1.939,1.43a13.639,13.639,0,0,1,2.1,1.508,13.984,13.984,0,0,1,1.636,2.228.279.279,0,0,0,.154.123c.076.107.162.212.232.328.18.3.256.632.444.935.4.651.975,1.174,1.383,1.832a2.373,2.373,0,0,0,.719.836c.308.214.58-.3.275-.515a3.473,3.473,0,0,1-.763-1.04c-.325-.5-.831-.907-1.114-1.415-.071-.126-.165-.408-.281-.671.192.129.378.239.523.316a7.209,7.209,0,0,0,3.148.347,5.635,5.635,0,0,0,2.737-1.224c.668-.468,1.794-.951,1.7-1.89-.038-.372-.621-.358-.583.016.049.469-1.436,1.363-1.738,1.563a4.455,4.455,0,0,1-2.606.885,9.8,9.8,0,0,1-1.719-.042c-.516-.085-1.822-.691-2.007-1.336a10.415,10.415,0,0,0-.008-2.667c-.055-.194-.163-.314-.23-.547a2.464,2.464,0,0,1,.165-1.545,2.875,2.875,0,0,0,.059-1.111,7.931,7.931,0,0,1,.709-3.26c.552-.817,1.845-2.292,2.956-2.164C2279.548,608.246,2279.686,607.678,2279.313,607.635Z" transform="translate(-2267.799 -606.72)" fill="#608d5c"/>
          </g>
          <g id="Groupe_893" data-name="Groupe 893" transform="translate(0 1.339)">
            <path id="Tracé_5760" data-name="Tracé 5760" d="M2257.028,614.027a4.763,4.763,0,0,0-1.906-2.81c-.85-.517-2.076-.534-3.015-.986-.981-.472-1.969-1.072-2.99-1.446a5.41,5.41,0,0,0-2.8-.234,2.3,2.3,0,0,0-.46.222c-1,.575-1.834,1.458-2.87,1.953-.458.219-.968.314-1.423.538a4.375,4.375,0,0,0-2.025,2.877c-.7,2.515-1.6,4.821-.77,7.377a.686.686,0,0,0,.868.39,2.453,2.453,0,0,0,2.294,1.094,41.315,41.315,0,0,0,8.205-.949.73.73,0,0,0,.286.047,16.7,16.7,0,0,0,4.64-.89,1,1,0,0,0,1.661-.188c.422-.92.272-2.3.427-3.341A7.537,7.537,0,0,0,2257.028,614.027Z" transform="translate(-2238.432 -608.45)" fill="#608d5c"/>
            <path id="Tracé_5761" data-name="Tracé 5761" d="M2254.1,621.021a3.792,3.792,0,0,1,.058-3.1,2.59,2.59,0,0,0-.251-2.5c-.428-.951.025-1.618.085-2.545.022-.338-.5-.337-.526,0a10.592,10.592,0,0,0-.352,2.1c.082.6.246.41.562,1a2.337,2.337,0,0,1-.128,2.062.436.436,0,0,0-.035.03.116.116,0,0,0,.014.027l0,0a.232.232,0,0,0-.113.074,1.065,1.065,0,0,1,.1-.1l0,0a5.89,5.89,0,0,0-.8-.33,1.916,1.916,0,0,0-1.039.06,2.078,2.078,0,0,0-.393.2,2.129,2.129,0,0,0-.681-1.107c-.313-.3-.757-.467-1.049-.788s-.4-.749-.673-1.076a3.121,3.121,0,0,0-1.852-.829c-.576-.155-1.1-.253-1.548.208-.237.243.135.615.372.372.378-.389,1.209-.013,1.688.108.931.234.985.824,1.493,1.464.528.664,1.766.967,1.765,1.97v0a1.768,1.768,0,0,1-.646.27,11.777,11.777,0,0,0-1.633.068c-.647.223-.979.969-1.613,1.262-.534.246-1.061.132-1.618.346a3.773,3.773,0,0,0-1.78,1.911c-.155.3.3.567.455.266a2.911,2.911,0,0,1,2.416-1.794c.923-.076,1.2-.652,1.93-1.18.769-.557,1.735-.161,2.574-.551a3.071,3.071,0,0,1,2.476-.307,3.411,3.411,0,0,0-.06,1.9c.285.955.66,1.424.468,2.423a.256.256,0,0,0-.032.124v.074a.264.264,0,0,0,.517.07A3.009,3.009,0,0,0,2254.1,621.021Z" transform="translate(-2240.817 -610.425)" fill="#3a593d"/>
          </g>
          <g id="Groupe_894" data-name="Groupe 894" transform="translate(26.167 3.906)">
            <path id="Tracé_5762" data-name="Tracé 5762" d="M2288.315,622.187c.154,1.044,0,2.42.426,3.341a1,1,0,0,0,1.662.188,16.712,16.712,0,0,0,4.64.891.743.743,0,0,0,.286-.047,41.282,41.282,0,0,0,8.205.948,2.45,2.45,0,0,0,2.294-1.094.686.686,0,0,0,.868-.39,9.742,9.742,0,0,0-.3-5.736,7.125,7.125,0,0,0-2.7-4.408c-.929-.671-1.953-1.2-2.92-1.806a5.76,5.76,0,0,0-4.125-.619,18.83,18.83,0,0,0-2.86.992,20.594,20.594,0,0,0-3.459,1.275,4.759,4.759,0,0,0-1.905,2.809A7.53,7.53,0,0,0,2288.315,622.187Z" transform="translate(-2288.149 -613.327)" fill="#608d5c"/>
            <path id="Tracé_5763" data-name="Tracé 5763" d="M2309.943,621.333a7.433,7.433,0,0,0-.764.987,4.957,4.957,0,0,1-1.087,1.049c-.62.48-.517.692-.812,1.36-.347.789-1.128.851-1.935,1.065a3.665,3.665,0,0,1-2.679-.031,5.03,5.03,0,0,0-1-.344c-.6-.084-1.674.262-2.119-.284a17.421,17.421,0,0,0,3.327-2.739,17.281,17.281,0,0,1,1.87-1.949c.921-.819,1.1-2.253,2.385-2.672a.267.267,0,0,0,.157-.386l-.041-.081a.253.253,0,0,0-.461.041,3.247,3.247,0,0,0-1.536,1.547c-.581,1.037-1.579,1.529-2.258,2.463-.068.093-.143.177-.214.267-.654-.494-.691-.931-1.065-1.818-.222-.525-.573-.555-1-1.025-.54-.594-.438-1.1-.544-1.843-.041-.291-.071-.487-.358-.587-.321-.112-.458.4-.14.508a7.37,7.37,0,0,0,.119,1.534c.209.523.654.73,1.012,1.14s.257.157.4.736a3.467,3.467,0,0,0,.458.914,1.762,1.762,0,0,0,.768.859,39.573,39.573,0,0,1-4.15,3.413c-.26.218.114.589.372.372.149-.125.3-.246.457-.365.655.913,2.219.362,3.151.713a3.689,3.689,0,0,0,1.758.43,10.316,10.316,0,0,0,2.521-.605,2.261,2.261,0,0,0,1.329-.8c.219-.341.082-.616.181-.956.157-.538.894-.671,1.262-1.08.39-.433.57-1.052,1.008-1.458C2310.563,621.474,2310.191,621.1,2309.943,621.333Z" transform="translate(-2292.904 -614.753)" fill="#3a593d"/>
          </g>
        </g>
        <path id="Tracé_5764" data-name="Tracé 5764" d="M2235.239,631.008c.767-.205,45.761-.616,46.569,0s1.846,21.056.808,21.261-46.3,1.13-47.377.719S2234.472,631.214,2235.239,631.008Z" transform="translate(-2232.941 -563.691)" fill="#ffeacc"/>
        <path id="Tracé_5765" data-name="Tracé 5765" d="M2325.1,639.6l-2,3.552a9.111,9.111,0,0,1-2.632,2.544,5.545,5.545,0,0,0-2.489,4.125c.066,1.052,1.231,3.779,3.805,2.543,2.1-1.008,5.044-6.667,5.044-6.667l2.235-2.947Z" transform="translate(-2272.461 -567.916)" fill="#ff8426"/>
        <path id="Tracé_5766" data-name="Tracé 5766" d="M2319.111,558.861a45.648,45.648,0,0,1,14.181,13.13c4.344,6.136,5.679,10.724,6.206,13.356s-.088,6.491-3.158,12.281-6.265,8.785-7.017,9.1c-1.722.724-6.1-3.257-5.7-5.68.084-.519,4.473-13.86,4.3-14.737s-6.754-7.105-8.114-9.035a15.212,15.212,0,0,1-2.413-4.474c-.176-.877-.351-9.387-.351-9.65S2319.111,558.861,2319.111,558.861Z" transform="translate(-2272.02 -529.671)" fill="#f26555"/>
        <path id="Tracé_5767" data-name="Tracé 5767" d="M2256.375,798.386s.351-7.412.7-7.72,6.229.088,6.667.395-.746,8.465-.746,8.465-3.553,2.324-3.859,2.5S2256.375,798.386,2256.375,798.386Z" transform="translate(-2243.283 -639.419)" fill="#c93d2e"/>
        <path id="Tracé_5768" data-name="Tracé 5768" d="M2254.947,803.263a.979.979,0,0,0-.334-.394,1.992,1.992,0,0,0-1.51-.118,12.988,12.988,0,0,1-3.645.815c-1.173-.045-2.659-1.094-3.758-.372-.916.6-1.221,2.193-1.819,3.066-.466.681-4.625,2.115-5.414,2.545a2.47,2.47,0,0,0-1.363,2.08c-.071.968.358,1.614.861,1.721s16.026.251,16.671-.323C2255.684,811.349,2255.891,805.029,2254.947,803.263Z" transform="translate(-2234.152 -645.152)" fill="#fff"/>
        <path id="Tracé_5769" data-name="Tracé 5769" d="M2319.287,577.659a1.972,1.972,0,0,0-.515-.73,8.487,8.487,0,0,1-1.075-2.036,31.638,31.638,0,0,1-1.612-4.471,16.963,16.963,0,0,1-.306-5.1,10.473,10.473,0,0,1,1.288-4.744.263.263,0,0,0-.454-.265c-1.574,2.766-1.729,6.454-1.214,9.536a25.375,25.375,0,0,0,1.483,4.468c.229.614.533,1.2.807,1.8a4.4,4.4,0,0,0,.52.983c.2.247.463.378.571.7S2319.395,577.981,2319.287,577.659Z" transform="translate(-2271.116 -530.299)" fill="#c93d2e"/>
        <g id="Groupe_896" data-name="Groupe 896" transform="translate(4.722 70.976)">
          <path id="Tracé_5770" data-name="Tracé 5770" d="M2277.879,640.015h-.026c-.077,0-7.815-.249-14.28-.163-3.838.052-11.6.053-21.859,0l-.452,0a.789.789,0,0,1,0-1.579l.46,0c10.247.05,18,.05,21.83,0,6.5-.086,14.274.162,14.353.164a.789.789,0,0,1-.025,1.578Z" transform="translate(-2240.473 -638.254)" fill="#f2c588"/>
        </g>
        <g id="Groupe_897" data-name="Groupe 897" transform="translate(4.539 76.316)">
          <path id="Tracé_5771" data-name="Tracé 5771" d="M2240.914,650.479a.79.79,0,0,1-.015-1.579c.163,0,16.367-.311,20.167-.461,3.834-.151,16.735.182,17.281.2a.789.789,0,0,1-.02,1.578h-.021c-.134,0-13.4-.346-17.178-.2-3.816.151-20.036.459-20.2.462Z" transform="translate(-2240.125 -648.4)" fill="#f2c588"/>
        </g>
        <g id="Groupe_898" data-name="Groupe 898" transform="translate(4.539 82.474)">
          <path id="Tracé_5772" data-name="Tracé 5772" d="M2278.328,661.679h-37.413a.79.79,0,1,1,0-1.579h37.413a.79.79,0,0,1,0,1.579Z" transform="translate(-2240.125 -660.1)" fill="#f2c588"/>
        </g>
        <path id="Tracé_5773" data-name="Tracé 5773" d="M2291.393,554.643c-.228.472-.656.6-1.068.851-.383.234-.635.565-1.007.819a8.557,8.557,0,0,1-2.726,1.077,6.876,6.876,0,0,1-3.321-.2,6.335,6.335,0,0,1-2.915-1.583c-.193-.276-.649-.013-.455.266a5.279,5.279,0,0,0,2.316,1.514,8.09,8.09,0,0,0,4.09.6,8.884,8.884,0,0,0,3.277-1.217c.529-.347,1.007-.752,1.54-1.1a1.894,1.894,0,0,0,.724-.76C2291.993,554.6,2291.54,554.337,2291.393,554.643Z" transform="translate(-2254.405 -527.609)" fill="#ffddae"/>
        <path id="Tracé_5774" data-name="Tracé 5774" d="M2271.684,513.571c.014-.124.127-.877.151-.883a.353.353,0,0,1,.377-.414c.792-1.022,2.39-1.29,3.537-1.669,1.814-.611,3.668-1.182,5.461-.342,1.471.685,3.433,1.393,4.538,2.619a3.342,3.342,0,0,1,.49,2.314,1.913,1.913,0,0,1-.286,1.607.147.147,0,0,1-.144,0,2.854,2.854,0,0,1-.942-1.252,2.639,2.639,0,0,0-.677-1.217c-.408-.314-.887-.309-1.278-.693-.087-.088-.3-.432-.38-.506-.61-.544-.486-.284-1.046-.24a3.185,3.185,0,0,1-1.175.037c-.435-.1-1.252-.729-1.667-.691-.569.046-.406.621-.695.968-.411.5-1.03.326-1.564.569a2.352,2.352,0,0,0-.762.615,3.4,3.4,0,0,1-1.821,1.248,1.588,1.588,0,0,1-2.03-.9A2.061,2.061,0,0,1,2271.684,513.571Z" transform="translate(-2250.515 -506.452)" fill="#36312f"/>
      </g>
    </g>
  </g>
</svg>
