<svg id="tampon" xmlns="http://www.w3.org/2000/svg" width="447.322" height="543.231" viewBox="0 0 447.322 543.231">
  <g id="Groupe_1222" data-name="Groupe 1222">
    <path id="Tracé_7190" data-name="Tracé 7190" d="M371.461,481.9a3.349,3.349,0,0,1,.8-3.755,216.739,216.739,0,0,0-10.323-324.935,3.389,3.389,0,1,1,4.325-5.219,223.514,223.514,0,0,1,10.647,335.082,3.407,3.407,0,0,1-5.448-1.173Z" fill="#161614"/>
    <path id="Tracé_7191" data-name="Tracé 7191" d="M116.783,513.888a3.422,3.422,0,0,1-4.1.562A223.636,223.636,0,0,1,57.3,469.806a3.388,3.388,0,1,1,5.04-4.53,216.9,216.9,0,0,0,53.7,43.292,3.368,3.368,0,0,1,.74,5.319Z" fill="#161614"/>
    <g id="Groupe_1221" data-name="Groupe 1221">
      <path id="Tracé_7192" data-name="Tracé 7192" d="M10.5,379.436A3.392,3.392,0,0,1,7.223,376.9,224.027,224.027,0,0,1,117.048,123.64a3.39,3.39,0,1,1,3.236,5.957,217.244,217.244,0,0,0-106.5,245.594,3.39,3.39,0,0,1-3.281,4.245Z" fill="#161614"/>
    </g>
    <path id="Tracé_7193" data-name="Tracé 7193" d="M386.344,422.262a3.416,3.416,0,0,0,4.729-1.1,195.529,195.529,0,0,0-78.341-274.832,3.389,3.389,0,0,0-3.1,6.03,188.753,188.753,0,0,1,75.635,265.3,3.365,3.365,0,0,0,1.072,4.606Z" fill="#161614"/>
    <path id="Tracé_7194" data-name="Tracé 7194" d="M145.008,496.744a3.426,3.426,0,0,1-3.861.69c-66.629-31.164-112.9-98.843-112.9-177.127A196.119,196.119,0,0,1,90.412,177.366a3.389,3.389,0,1,1,4.623,4.958,189.314,189.314,0,0,0-60.01,137.983c0,75.569,44.667,140.9,108.987,170.984a3.375,3.375,0,0,1,1,5.453Z" fill="#161614"/>
  </g>
  <g id="Groupe_1233" data-name="Groupe 1233">
    <path id="Tracé_7195" data-name="Tracé 7195" d="M217.252,279.169c23-23.219,8.831-44,8.682-44.215a3.118,3.118,0,0,0-2.79-1.291,3.073,3.073,0,0,0-2.513,1.77L208.055,262.57l1.468-28.971a3.074,3.074,0,0,0-4.468-2.9c-.228.116-21.931,11.624-13.249,42.057-13.44,1.8-18.078,10.857-19.6,15.7a3.075,3.075,0,0,1,.542.125l13.382,4.539a3.074,3.074,0,1,1-1.976,5.822L171.5,294.651v19.724l14.107,4.252a3.075,3.075,0,1,1-1.775,5.889L171.5,320.8v26.167c.4-.051,11.957-.026,12.314.781,2.829-7.974,10.89-14.784,17.306-16.806a25.993,25.993,0,0,1,9.28-13.64l-5.919-1.7a3.074,3.074,0,0,1,1.7-5.91l12.2,3.5a26.062,26.062,0,0,1,3.2-.793c2.479-5.616,4.667-11.016,4.766-12.79C226.494,296.839,225.409,286.282,217.252,279.169Z" fill="#161614"/>
    <path id="Tracé_7196" data-name="Tracé 7196" d="M301.989,269.912c7.429-8.165,9.271-18.983,9.66-25.448a4.4,4.4,0,0,0-5.488-4.522c-6.5,1.624-17.162,5.588-23.172,14.7-.185-4.7-.483-8.175-.513-8.518a2.813,2.813,0,0,0-5.605.492c.016.188,1.545,18.047-.208,27.967-19.862-1.678-27.252,12.283-28.786,18.327-1.714,6.762-3.806,13.361-5.483,18.3a24.115,24.115,0,0,1,9.7,6.645,26.358,26.358,0,0,1,35.873,12.291,162.128,162.128,0,0,0,11.992-17.084c.705-11.984,1.345-27.212-9.924-34.448A35.317,35.317,0,0,0,301.989,269.912Z" fill="#161614"/>
    <path id="Tracé_7197" data-name="Tracé 7197" d="M218.55,341.651a3.074,3.074,0,1,1,5.663,2.394,12.161,12.161,0,0,0,11.2,16.88,12.236,12.236,0,0,0,1.887-.146,3.075,3.075,0,0,1,.958,6.075,18.307,18.307,0,0,1-19.706-25.2Z" fill="#161614"/>
    <path id="Tracé_7198" data-name="Tracé 7198" d="M182.826,409.847c.043.28.074.563.128.839.1.474.217.939.346,1.4.037.134.064.271.1.4.052.175.124.344.181.517h37.377a19.673,19.673,0,0,0-33.618-18.966l-.593.759a19.791,19.791,0,0,0-2.988,5.387c-.054.147-.112.292-.162.441-.108.319-.2.643-.29.967-.078.283-.154.567-.22.855-.062.266-.118.532-.168.8-.07.374-.125.752-.174,1.133-.027.214-.059.425-.079.64-.057.606-.093,1.218-.093,1.838h0c0,.656.035,1.3.1,1.943C182.71,409.158,182.773,409.5,182.826,409.847Z" fill="#161614"/>
    <path id="Tracé_7199" data-name="Tracé 7199" d="M146.568,413.009a27.328,27.328,0,0,1,36.925-30.093l3.383,1.325a27.23,27.23,0,0,1,9.263-4.036,26.954,26.954,0,0,1-13.9-23.55,26.541,26.541,0,0,1,.179-2.916,60.491,60.491,0,0,0-72.431,59.27h36.58Zm16.866-45.218a54.091,54.091,0,0,1,8.307-1.32,3.076,3.076,0,0,1,.489,6.132,47.909,47.909,0,0,0-7.361,1.166,3.017,3.017,0,0,1-.721.086,3.074,3.074,0,0,1-.714-6.064Zm-34.666,26.485a53.893,53.893,0,0,1,23.081-22.244,3.074,3.074,0,1,1,2.765,5.492,47.8,47.8,0,0,0-20.459,19.718,3.075,3.075,0,0,1-5.387-2.966Z" fill="#161614"/>
    <g id="Groupe_1223" data-name="Groupe 1223">
      <path id="Tracé_7200" data-name="Tracé 7200" d="M363.551,280.989s5.687-27.859,6.391-31.271c0,0,1.8-7.28-4.479-8.873s-9.193,4.517-9.193,4.517L348.763,274.2c-14.105-1.447-24.384,4.431-37.843,33.951-6.029,13.224-15.613,26.089-23.223,35.2a28.048,28.048,0,0,1-.131,7.641,25.916,25.916,0,0,1-9.062,45.7,26.352,26.352,0,0,1-14.369-.394l-8.214,16.712h71.8V379.442a8.5,8.5,0,0,1,8.5-8.5h16.59a8.415,8.415,0,0,0,8.654-6.413c3.362-15.453,10.119-47.059,11.642-58.4C375.154,290.9,363.551,280.989,363.551,280.989Zm-43.48,49.165c-1.113,1.717-10.97,16.872-14.591,20.084a3.076,3.076,0,0,1-4.082-4.6c2.259-2,9.485-12.608,13.51-18.823a3.075,3.075,0,0,1,5.163,3.342Zm45.158-5.673a3.027,3.027,0,0,1-.85.122,3.075,3.075,0,0,1-2.954-2.227c-.024-.081-2.752-8.745-7.112-7.936-7.219,1.353-12.872-.947-18.316-7.464-4.45-5.319-12.363.278-12.7.52a3.075,3.075,0,0,1-3.614-4.976c4.426-3.227,14.519-7.272,21.029.512,4.618,5.526,8.322,6.138,12.463,5.363,7.932-1.491,12.643,7.018,14.157,12.281A3.075,3.075,0,0,1,365.229,324.481Z" fill="#161614"/>
    </g>
    <g id="Groupe_1225" data-name="Groupe 1225">
      <g id="Groupe_1224" data-name="Groupe 1224">
        <path id="Tracé_7201" data-name="Tracé 7201" d="M92.286,267.134a2.8,2.8,0,0,1-.607-.064,2.894,2.894,0,0,1-2.229-3.436c2.161-10.122,8.21-35.025,17.688-47.6,9.315-12.367,38.3-21.7,62.5-28.452.834-.234,1.588-.441,2.252-.63l1.972-6.5a6.286,6.286,0,0,1,12.072.139l9.791,35.2,17.91-20.256a6.288,6.288,0,0,1,4.7-2.12h9.7a6.288,6.288,0,0,1,4.7,2.12l17.91,20.256,9.791-35.2a6.282,6.282,0,0,1,12.068-.132l1.957,6.434c13.962,3.87,52.7,15.561,64.789,29.134,3.379,3.794,6.084,7.275,10.115,17.609a2.894,2.894,0,1,1-5.393,2.1c-3.692-9.451-5.978-12.415-9.044-15.858-11.812-13.253-55-25.5-63.533-27.826a2.893,2.893,0,0,1-2.014-1.953l-2.421-7.969a.508.508,0,0,0-.943.011l-11.22,40.335a2.893,2.893,0,0,1-2.142,2.044,2.847,2.847,0,0,1-2.817-.9l-21.44-24.25a.489.489,0,0,0-.366-.166h-9.7a.489.489,0,0,0-.366.166l-21.44,24.25a2.826,2.826,0,0,1-2.817.9,2.9,2.9,0,0,1-2.143-2.044l-11.219-40.335a.5.5,0,0,0-.472-.362.54.54,0,0,0-.475.351l-2.429,8.014a2.9,2.9,0,0,1-1.953,1.939c-.947.279-2.248.641-3.828,1.082-12.393,3.454-50.1,13.969-59.438,26.354-9.024,11.982-15.021,37.722-16.646,45.325A2.9,2.9,0,0,1,92.286,267.134Z" fill="#161614"/>
      </g>
    </g>
    <path id="Tracé_7202" data-name="Tracé 7202" d="M299.25,62.311a75.676,75.676,0,0,0-148.931-.231c-34.7,4.322-63.241,12.175-63.241,24.77,0,8.522,12.193,15.25,37.277,20.567a3.41,3.41,0,1,0,1.414-6.671C100.61,95.413,93.9,89.5,93.9,86.85c0-2.7,7.59-9.271,36.309-14.794C155.2,67.251,188.47,64.6,223.9,64.6s68.7,2.648,93.689,7.453c28.719,5.523,36.307,12.092,36.307,14.794,0,2.651-6.709,8.562-31.859,13.893a3.41,3.41,0,0,0,1.415,6.671C348.523,102.1,360.71,95.372,360.71,86.85,360.71,74.472,333.134,66.679,299.25,62.311Z" fill="#161614"/>
    <g id="Groupe_1231" data-name="Groupe 1231">
      <g id="Groupe_1226" data-name="Groupe 1226">
        <path id="Tracé_7203" data-name="Tracé 7203" d="M112.719,323.011a2.894,2.894,0,0,1-1.289-.3c-4.967-2.47-14.162-8.546-19.936-21.482a34.642,34.642,0,0,1-2.055-21.557,2.9,2.9,0,1,1,5.672,1.177,28.979,28.979,0,0,0,1.671,18.02,39.942,39.942,0,0,0,8.451,12.324,49.327,49.327,0,0,1-2.4-13.995,41.866,41.866,0,0,1,4.552-19.743,2.9,2.9,0,1,1,5.2,2.549,36.063,36.063,0,0,0-3.964,17.02,40.842,40.842,0,0,0,6.514,21.505,2.9,2.9,0,0,1-2.422,4.484Z" fill="#161614"/>
      </g>
      <g id="Groupe_1227" data-name="Groupe 1227">
        <path id="Tracé_7204" data-name="Tracé 7204" d="M130.19,323.2c1.341-.386,2.727-.716,4.122-.981a3.075,3.075,0,1,1,1.147,6.042c-1.209.23-2.41.515-3.572.848a3.074,3.074,0,1,1-1.7-5.909ZM98.074,355.814a46.415,46.415,0,0,1,20.637-27.558,3.074,3.074,0,1,1,3.216,5.239,40.309,40.309,0,0,0-17.916,23.92,3.075,3.075,0,0,1-5.937-1.6Z" fill="#161614"/>
      </g>
      <g id="Groupe_1230" data-name="Groupe 1230">
        <g id="Groupe_1228" data-name="Groupe 1228">
          <path id="Tracé_7205" data-name="Tracé 7205" d="M161.484,321.227a2.885,2.885,0,0,1-2.048-.848c-6.438-6.442-22.474-5.733-28.112-4.922a2.927,2.927,0,0,1-2.942-1.452,2.9,2.9,0,0,1,.3-3.266c.072-.083,7.494-9.274,6.4-21.422-.841-9.323-7.546-19.132-10.937-23.552l-4.322,4.322a2.9,2.9,0,0,1-4.1-4.1l6.6-6.6a3,3,0,0,1,2.139-.848,2.892,2.892,0,0,1,2.082.984c.531.6,13.007,14.924,14.3,29.27a36.816,36.816,0,0,1-4.344,20.414c7.55-.331,20.252.3,27.029,7.072a2.9,2.9,0,0,1-2.047,4.944Z" fill="#161614"/>
        </g>
        <g id="Groupe_1229" data-name="Groupe 1229">
          <path id="Tracé_7206" data-name="Tracé 7206" d="M84.589,371.432a2.9,2.9,0,0,1-2.829-2.289c-6.381-29.742,16.179-46.211,17.141-46.9a2.9,2.9,0,0,1,3.368,4.711c-.837.6-20.411,15.029-14.844,40.972a2.9,2.9,0,0,1-2.225,3.44A2.827,2.827,0,0,1,84.589,371.432Z" fill="#161614"/>
        </g>
      </g>
    </g>
    <g id="Groupe_1232" data-name="Groupe 1232">
      <path id="Tracé_7207" data-name="Tracé 7207" d="M239.164,153.995a3.389,3.389,0,0,1-.149-6.774c17.27-.773,22.181-19.672,22.229-19.864A3.389,3.389,0,1,1,267.82,129c-2.068,8.295-10.689,24.2-28.5,24.994Z" fill="#161614"/>
    </g>
    <path id="Tracé_7208" data-name="Tracé 7208" d="M303.4,107.536a23.8,23.8,0,0,0-18.55-23.2,3.346,3.346,0,0,0-.7-.332c-.227-.065-1.722-.484-4.326-1.077v24.567h0v25.441c-.879,4.084-10.33,42.185-56.367,42.185-45.977,0-56.884-37.923-57.976-42.245V82.925L161.154,84a3.254,3.254,0,0,0-.7.332,23.767,23.767,0,0,0-1.75,45.911v3.032a3.428,3.428,0,0,0,.081.748c.109.478,11.44,47.87,64.672,47.87,53.31,0,62.993-47.5,63.086-47.983a3.475,3.475,0,0,0,.06-.635v-3.032A23.891,23.891,0,0,0,303.4,107.536Zm-154.72,0a17.038,17.038,0,0,1,10.023-15.505v31.013A17.126,17.126,0,0,1,148.682,107.536ZM286.6,123.044V92.031a17.008,17.008,0,0,1,0,31.013Z" fill="#161614"/>
    <path id="Tracé_7209" data-name="Tracé 7209" d="M356.593,377.029H336.22a2.415,2.415,0,0,0-2.414,2.413v34.833a5.317,5.317,0,0,1-5.31,5.31H107.485a5.317,5.317,0,0,1-5.31-5.31V379.442a2.416,2.416,0,0,0-2.414-2.413H79.139a2.416,2.416,0,0,0-2.414,2.413V425.5a182.583,182.583,0,0,0,13.57,16.8h266.3a2.416,2.416,0,0,0,2.413-2.414V379.442A2.415,2.415,0,0,0,356.593,377.029ZM90.242,434.806a5.792,5.792,0,1,1,5.793-5.79A5.8,5.8,0,0,1,90.242,434.806Zm255.248,0a5.792,5.792,0,1,1,5.793-5.79A5.8,5.8,0,0,1,345.49,434.806Z" fill="#161614"/>
  </g>
  <g id="Groupe_1234" data-name="Groupe 1234">
    <path id="Tracé_7210" data-name="Tracé 7210" d="M222.574,543.231a223.672,223.672,0,0,1-167.741-75.8,3.5,3.5,0,0,1,5.252-4.629A216.643,216.643,0,0,0,322.6,511.792,3.5,3.5,0,1,1,325.834,518,224.033,224.033,0,0,1,222.574,543.231Z" fill="#161614"/>
  </g>
</svg>
